<svg width="17" height="6" viewBox="0 0 17 6" fill="none" xmlns="http://www.w3.org/2000/svg">
<path d="M1.48779 3.95506V2.83542L1.20718 2.83295V3.93532H0.112213V3.23272H0.313861V1.7059H0.112213V1.40872L0.501761 1.01917H1.20718V2.13881L1.48779 2.14163V1.03927H2.58276V1.74151H2.38111V3.26868H2.58276V3.56586L2.19356 3.95506H1.48779Z" fill="url(#paint0_linear_2_13)"/>
<path d="M1.15429 1.07205V2.19134L1.54207 2.19487V1.09285H2.53128V1.68863H2.32963V3.32121H2.53128V3.54401L2.17311 3.90218H1.54207V2.785L1.15429 2.78113V3.8842H0.165086V3.2856H0.366734V1.65303H0.165086V1.43058L0.52361 1.07205H1.15429ZM1.26005 0.966293H0.479544L0.448874 0.997316L0.090349 1.35584L0.0593262 1.38651V1.75878H0.260974V3.17984H0.0593262V3.9882H1.26005V2.88618H1.43632V4.00617H2.21682L2.24784 3.9755L2.60602 3.61698L2.63704 3.58596V3.21545H2.43539V1.79439H2.63704V0.987093H1.43491V2.08805H1.25864V0.966293H1.26005Z" fill="#E8DC00"/>
<path d="M13.8477 2.54245H13.3585V2.3923C13.3585 2.32224 13.3522 2.27761 13.3397 2.25843C13.3272 2.23924 13.3064 2.22965 13.2772 2.22965C13.2455 2.22965 13.2213 2.24258 13.2046 2.26844C13.1887 2.29429 13.1808 2.3335 13.1808 2.38605C13.1808 2.45361 13.19 2.5045 13.2083 2.53869C13.2259 2.57289 13.2755 2.61418 13.3572 2.66256C13.5916 2.80186 13.7393 2.91614 13.8002 3.00539C13.8611 3.09465 13.8915 3.23853 13.8915 3.43706C13.8915 3.58136 13.8744 3.68772 13.8402 3.75611C13.8068 3.82451 13.7418 3.88207 13.645 3.92878C13.5483 3.97466 13.4357 3.9976 13.3072 3.9976C13.1662 3.9976 13.0457 3.9709 12.9456 3.91752C12.8463 3.86413 12.7813 3.79615 12.7504 3.71357C12.7195 3.63099 12.7041 3.5138 12.7041 3.36199V3.22936H13.1933V3.47584C13.1933 3.55175 13.2 3.60055 13.2134 3.62224C13.2275 3.64392 13.2521 3.65477 13.2872 3.65477C13.3222 3.65477 13.3481 3.641 13.3648 3.61348C13.3823 3.58595 13.391 3.54508 13.391 3.49086C13.391 3.37158 13.3748 3.29359 13.3422 3.25688C13.3089 3.22018 13.2267 3.15887 13.0957 3.07296C12.9648 2.98621 12.878 2.92323 12.8355 2.88403C12.793 2.84482 12.7575 2.7906 12.7291 2.72137C12.7016 2.65214 12.6879 2.56372 12.6879 2.45612C12.6879 2.30097 12.7075 2.18752 12.7467 2.11579C12.7867 2.04405 12.8509 1.98817 12.9393 1.94813C13.0278 1.90726 13.1345 1.88682 13.2596 1.88682C13.3964 1.88682 13.5128 1.90892 13.6087 1.95313C13.7055 1.99734 13.7693 2.05323 13.8002 2.12079C13.8319 2.18752 13.8477 2.30138 13.8477 2.46237V2.54245ZM14.3795 3.54216V3.95506H13.9979V3.54216H14.3795ZM15.4405 1.92936L15.742 3.95506H15.2028L15.1765 3.59096H14.9876L14.9563 3.95506H14.4108L14.6785 1.92936H15.4405ZM15.1615 3.23186C15.1348 3.00247 15.1081 2.71928 15.0814 2.38229C15.028 2.76933 14.9946 3.05252 14.9813 3.23186H15.1615ZM16.2187 3.54216V3.95506H15.8371V3.54216H16.2187Z" fill="#35284F"/>
<path d="M13.8477 2.54245V2.58155H13.8868V2.54245H13.8477ZM13.3585 2.54245H13.3194V2.58155H13.3585V2.54245ZM13.2046 2.26844L13.1717 2.24723L13.1713 2.248L13.2046 2.26844ZM13.2083 2.53869L13.2432 2.52087L13.2428 2.52021L13.2083 2.53869ZM13.3572 2.66256L13.3772 2.62895L13.3772 2.62892L13.3572 2.66256ZM13.8402 3.75611L13.8052 3.73863L13.8051 3.73897L13.8402 3.75611ZM13.645 3.92878L13.6618 3.96411L13.662 3.96399L13.645 3.92878ZM12.9456 3.91752L12.9271 3.95195L12.9272 3.95202L12.9456 3.91752ZM12.7041 3.22936V3.19026H12.665V3.22936H12.7041ZM13.1933 3.22936H13.2324V3.19026H13.1933V3.22936ZM13.2134 3.62224L13.18 3.64273L13.1806 3.64363L13.2134 3.62224ZM13.3648 3.61348L13.3318 3.59248L13.3313 3.59321L13.3648 3.61348ZM13.3422 3.25688L13.3715 3.23095L13.3712 3.23058L13.3422 3.25688ZM13.0957 3.07296L13.0742 3.10555L13.0743 3.10565L13.0957 3.07296ZM12.7291 2.72137L12.6928 2.73582L12.693 2.73619L12.7291 2.72137ZM12.7467 2.11579L12.7125 2.09673L12.7123 2.09704L12.7467 2.11579ZM12.9393 1.94813L12.9555 1.98374L12.9557 1.98362L12.9393 1.94813ZM13.6087 1.95313L13.5924 1.98864L13.5925 1.98869L13.6087 1.95313ZM13.8002 2.12079L13.7646 2.13704L13.7649 2.13757L13.8002 2.12079ZM13.8477 2.50335H13.3585V2.58155H13.8477V2.50335ZM13.3976 2.54245V2.3923H13.3194V2.54245H13.3976ZM13.3976 2.3923C13.3976 2.35633 13.396 2.32567 13.3925 2.30086C13.3892 2.27732 13.3836 2.25418 13.3725 2.23707L13.307 2.27978C13.3083 2.28185 13.3121 2.29063 13.3151 2.31171C13.3179 2.33153 13.3194 2.35821 13.3194 2.3923H13.3976ZM13.3725 2.23707C13.3508 2.20377 13.3155 2.19055 13.2772 2.19055V2.26875C13.2973 2.26875 13.3037 2.27471 13.307 2.27978L13.3725 2.23707ZM13.2772 2.19055C13.2327 2.19055 13.1959 2.20982 13.1717 2.24724L13.2374 2.28963C13.2467 2.27533 13.2583 2.26875 13.2772 2.26875V2.19055ZM13.1713 2.248C13.1498 2.28303 13.1417 2.33092 13.1417 2.38605H13.2199C13.2199 2.33608 13.2277 2.30556 13.2379 2.28887L13.1713 2.248ZM13.1417 2.38605C13.1417 2.45593 13.151 2.51452 13.1739 2.55718L13.2428 2.52021C13.229 2.49447 13.2199 2.4513 13.2199 2.38605H13.1417ZM13.1736 2.55652C13.1858 2.58046 13.2072 2.60334 13.2337 2.62537C13.2607 2.6478 13.2954 2.67141 13.3373 2.69621L13.3772 2.62892C13.3373 2.60534 13.3064 2.58411 13.2837 2.56526C13.2606 2.546 13.2484 2.53113 13.2431 2.52087L13.1736 2.55652ZM13.3373 2.69617C13.4537 2.76534 13.5477 2.82784 13.6198 2.88366C13.6924 2.93984 13.7408 2.98777 13.7679 3.02743L13.8325 2.98336C13.7986 2.93376 13.7428 2.87993 13.6677 2.82183C13.5922 2.76338 13.4952 2.69908 13.3772 2.62895L13.3373 2.69617ZM13.7679 3.02743C13.822 3.1067 13.8524 3.24072 13.8524 3.43706H13.9306C13.9306 3.23635 13.9002 3.08259 13.8325 2.98336L13.7679 3.02743ZM13.8524 3.43706C13.8524 3.57976 13.8353 3.67859 13.8052 3.73863L13.8752 3.7736C13.9136 3.69684 13.9306 3.58296 13.9306 3.43706H13.8524ZM13.8051 3.73897C13.7769 3.7968 13.7201 3.84914 13.628 3.89357L13.662 3.96399C13.7635 3.915 13.8368 3.85222 13.8753 3.77326L13.8051 3.73897ZM13.6283 3.89345C13.5377 3.9364 13.431 3.9585 13.3072 3.9585V4.03669C13.4403 4.03669 13.5588 4.01291 13.6618 3.96411L13.6283 3.89345ZM13.3072 3.9585C13.1711 3.9585 13.0572 3.93274 12.964 3.88302L12.9272 3.95202C13.0342 4.00907 13.1613 4.03669 13.3072 4.03669V3.9585ZM12.9641 3.88309C12.8708 3.83291 12.8137 3.77133 12.787 3.69989L12.7138 3.72726C12.7488 3.82097 12.8219 3.89536 12.9271 3.95195L12.9641 3.88309ZM12.787 3.69989C12.7586 3.62375 12.7432 3.512 12.7432 3.36199H12.665C12.665 3.5156 12.6805 3.63824 12.7138 3.72726L12.787 3.69989ZM12.7432 3.36199V3.22936H12.665V3.36199H12.7432ZM12.7041 3.26846H13.1933V3.19026H12.7041V3.26846ZM13.1542 3.22936V3.47584H13.2324V3.22936H13.1542ZM13.1542 3.47584C13.1542 3.51473 13.1559 3.54785 13.1596 3.57467C13.1631 3.60036 13.169 3.6247 13.1801 3.64273L13.2467 3.60174C13.2444 3.59809 13.2402 3.58718 13.2371 3.56407C13.2341 3.5421 13.2324 3.51286 13.2324 3.47584H13.1542ZM13.1806 3.64363C13.2045 3.68007 13.2441 3.69386 13.2872 3.69386V3.61567C13.2602 3.61567 13.2506 3.60778 13.2461 3.60084L13.1806 3.64363ZM13.2872 3.69386C13.3344 3.69386 13.3737 3.67415 13.3982 3.63374L13.3313 3.59321C13.3224 3.60785 13.31 3.61567 13.2872 3.61567V3.69386ZM13.3977 3.63447C13.4211 3.59777 13.4301 3.54811 13.4301 3.49086H13.3519C13.3519 3.54205 13.3434 3.57413 13.3318 3.59249L13.3977 3.63447ZM13.4301 3.49086C13.4301 3.42972 13.426 3.37749 13.4171 3.33492C13.4084 3.29299 13.3943 3.25664 13.3715 3.23095L13.313 3.28282C13.3227 3.29383 13.333 3.31483 13.3406 3.35089C13.3479 3.38631 13.3519 3.43272 13.3519 3.49086H13.4301ZM13.3712 3.23058C13.3339 3.18955 13.2473 3.12561 13.1172 3.04027L13.0743 3.10565C13.2061 3.19214 13.2839 3.25081 13.3133 3.28318L13.3712 3.23058ZM13.1173 3.04036C12.9861 2.95345 12.9019 2.89206 12.862 2.85528L12.809 2.91278C12.8542 2.9544 12.9434 3.01897 13.0742 3.10555L13.1173 3.04036ZM12.862 2.85528C12.8247 2.82091 12.7921 2.77198 12.7653 2.70655L12.693 2.73619C12.7229 2.80923 12.7612 2.86873 12.809 2.91278L12.862 2.85528ZM12.7655 2.70693C12.7404 2.64385 12.7269 2.56079 12.7269 2.45612H12.6488C12.6488 2.56665 12.6628 2.66043 12.6928 2.73582L12.7655 2.70693ZM12.7269 2.45612C12.7269 2.30262 12.7466 2.19738 12.781 2.13454L12.7123 2.09704C12.6683 2.17767 12.6488 2.29932 12.6488 2.45612H12.7269ZM12.7808 2.13484C12.8161 2.07167 12.8732 2.02098 12.9555 1.98374L12.9232 1.91251C12.8286 1.95535 12.7573 2.01643 12.7125 2.09673L12.7808 2.13484ZM12.9557 1.98362C13.0378 1.9457 13.1386 1.92592 13.2596 1.92592V1.84772C13.1304 1.84772 13.0177 1.86881 12.9229 1.91264L12.9557 1.98362ZM13.2596 1.92592C13.3924 1.92592 13.5029 1.94739 13.5924 1.98864L13.6251 1.91762C13.5228 1.87046 13.4005 1.84772 13.2596 1.84772V1.92592ZM13.5925 1.98869C13.6843 2.03066 13.739 2.08107 13.7646 2.13704L13.8357 2.10455C13.7996 2.02538 13.7267 1.96402 13.625 1.91757L13.5925 1.98869ZM13.7649 2.13757C13.7925 2.19578 13.8086 2.30191 13.8086 2.46237H13.8868C13.8868 2.30086 13.8712 2.17927 13.8355 2.10402L13.7649 2.13757ZM13.8086 2.46237V2.54245H13.8868V2.46237H13.8086ZM14.3795 3.54216H14.4186V3.50306H14.3795V3.54216ZM14.3795 3.95506V3.99415H14.4186V3.95506H14.3795ZM13.9979 3.95506H13.9588V3.99415H13.9979V3.95506ZM13.9979 3.54216V3.50306H13.9588V3.54216H13.9979ZM14.3404 3.54216V3.95506H14.4186V3.54216H14.3404ZM14.3795 3.91596H13.9979V3.99415H14.3795V3.91596ZM14.037 3.95506V3.54216H13.9588V3.95506H14.037ZM13.9979 3.58126H14.3795V3.50306H13.9979V3.58126ZM15.4405 1.92936L15.4792 1.9236L15.4742 1.89026H15.4405V1.92936ZM15.742 3.95506V3.99415H15.7874L15.7807 3.9493L15.742 3.95506ZM15.2028 3.95506L15.1638 3.95787L15.1664 3.99415H15.2028V3.95506ZM15.1765 3.59096L15.2155 3.58814L15.2129 3.55186H15.1765V3.59096ZM14.9876 3.59096V3.55186H14.9517L14.9486 3.58761L14.9876 3.59096ZM14.9563 3.95506V3.99415H14.9922L14.9952 3.9584L14.9563 3.95506ZM14.4108 3.95506L14.372 3.94993L14.3661 3.99415H14.4108V3.95506ZM14.6785 1.92936V1.89026H14.6442L14.6398 1.92424L14.6785 1.92936ZM15.1615 3.23186V3.27096H15.2054L15.2003 3.22734L15.1615 3.23186ZM15.0814 2.38229L15.1204 2.37921L15.0919 2.01991L15.0427 2.37695L15.0814 2.38229ZM14.9813 3.23186L14.9423 3.22896L14.9392 3.27096H14.9813V3.23186ZM15.4018 1.93512L15.7034 3.96081L15.7807 3.9493L15.4792 1.9236L15.4018 1.93512ZM15.742 3.91596H15.2028V3.99415H15.742V3.91596ZM15.2418 3.95224L15.2155 3.58814L15.1375 3.59377L15.1638 3.95787L15.2418 3.95224ZM15.1765 3.55186H14.9876V3.63005H15.1765V3.55186ZM14.9486 3.58761L14.9173 3.95171L14.9952 3.9584L15.0265 3.5943L14.9486 3.58761ZM14.9563 3.91596H14.4108V3.99415H14.9563V3.91596ZM14.4495 3.96018L14.7173 1.93448L14.6398 1.92424L14.372 3.94993L14.4495 3.96018ZM14.6785 1.96846H15.4405V1.89026H14.6785V1.96846ZM15.2003 3.22734C15.1737 2.99859 15.147 2.71592 15.1204 2.37921L15.0424 2.38538C15.0691 2.72265 15.0959 3.00635 15.1226 3.23638L15.2003 3.22734ZM15.0427 2.37695C14.9893 2.76409 14.9558 3.04831 14.9423 3.22896L15.0203 3.23476C15.0335 3.05673 15.0668 2.77458 15.1201 2.38764L15.0427 2.37695ZM14.9813 3.27096H15.1615V3.19276H14.9813V3.27096ZM16.2187 3.54216H16.2578V3.50306H16.2187V3.54216ZM16.2187 3.95506V3.99415H16.2578V3.95506H16.2187ZM15.8371 3.95506H15.798V3.99415H15.8371V3.95506ZM15.8371 3.54216V3.50306H15.798V3.54216H15.8371ZM16.1796 3.54216V3.95506H16.2578V3.54216H16.1796ZM16.2187 3.91596H15.8371V3.99415H16.2187V3.91596ZM15.8762 3.95506V3.54216H15.798V3.95506H15.8762ZM15.8371 3.58126H16.2187V3.50306H15.8371V3.58126Z" fill="#E8DC00"/>
<path d="M2.88853 1.86553H3.80004V2.28622H3.43518V2.68484H3.77666V3.08476H3.43518V3.547H3.83639V3.9677H2.88853V1.86553ZM3.9948 1.86553H4.38174C4.63969 1.86553 4.81412 1.87548 4.90501 1.89539C4.99676 1.9153 5.07121 1.96637 5.12834 2.04861C5.18634 2.12997 5.21533 2.26025 5.21533 2.43944C5.21533 2.60304 5.19499 2.71297 5.15431 2.76924C5.11362 2.8255 5.03355 2.85926 4.9141 2.87052C5.0223 2.89735 5.09501 2.93328 5.13223 2.97829C5.16946 3.0233 5.19239 3.06485 5.20105 3.10294C5.21057 3.14016 5.21533 3.2436 5.21533 3.41326V3.9677H4.70764V3.26914C4.70764 3.15661 4.69856 3.08692 4.68038 3.06009C4.66307 3.03325 4.61675 3.01984 4.54144 3.01984V3.9677H3.9948V1.86553ZM4.54144 2.22519V2.69263C4.6029 2.69263 4.64575 2.68441 4.66999 2.66796C4.69509 2.65065 4.70764 2.59568 4.70764 2.50306V2.3875C4.70764 2.32085 4.69553 2.27713 4.67129 2.25636C4.64792 2.23558 4.60464 2.22519 4.54144 2.22519ZM5.42828 1.86553H5.81521C6.07317 1.86553 6.24759 1.87548 6.33848 1.89539C6.43024 1.9153 6.50468 1.96637 6.56181 2.04861C6.61981 2.12997 6.64881 2.26025 6.64881 2.43944C6.64881 2.60304 6.62847 2.71297 6.58778 2.76924C6.5471 2.8255 6.46703 2.85926 6.34757 2.87052C6.45578 2.89735 6.52849 2.93328 6.56571 2.97829C6.60293 3.0233 6.62587 3.06485 6.63453 3.10294C6.64405 3.14016 6.64881 3.2436 6.64881 3.41326V3.9677H6.14112V3.26914C6.14112 3.15661 6.13203 3.08692 6.11385 3.06009C6.09654 3.03325 6.05023 3.01984 5.97492 3.01984V3.9677H5.42828V1.86553ZM5.97492 2.22519V2.69263C6.03638 2.69263 6.07923 2.68441 6.10347 2.66796C6.12857 2.65065 6.14112 2.59568 6.14112 2.50306V2.3875C6.14112 2.32085 6.129 2.27713 6.10476 2.25636C6.08139 2.23558 6.03811 2.22519 5.97492 2.22519ZM7.80572 1.86553L8.11864 3.9677H7.55901L7.53175 3.58985H7.33568L7.30322 3.9677H6.7371L7.01497 1.86553H7.80572ZM7.51617 3.2172C7.48847 2.97915 7.46077 2.68527 7.43307 2.33556C7.37767 2.73721 7.34304 3.03109 7.32919 3.2172H7.51617ZM9.48849 2.78222H8.94185V2.41606C8.94185 2.30959 8.93579 2.24337 8.92367 2.2174C8.91242 2.19057 8.88688 2.17715 8.84706 2.17715C8.80205 2.17715 8.77349 2.19317 8.76137 2.22519C8.74925 2.25722 8.74319 2.32647 8.74319 2.43294V3.40937C8.74319 3.51151 8.74925 3.57817 8.76137 3.60933C8.77349 3.64049 8.80075 3.65607 8.84317 3.65607C8.88385 3.65607 8.91026 3.64049 8.92237 3.60933C8.93536 3.57817 8.94185 3.50502 8.94185 3.38989V3.12631H9.48849V3.20811C9.48849 3.42538 9.47291 3.57946 9.44175 3.67035C9.41145 3.76125 9.3435 3.84088 9.23789 3.90927C9.13315 3.97765 9.00374 4.01184 8.84966 4.01184C8.68952 4.01184 8.55751 3.98285 8.45364 3.92485C8.34976 3.86685 8.28095 3.78678 8.24719 3.68464C8.21343 3.58163 8.19655 3.42711 8.19655 3.2211V2.60693C8.19655 2.45545 8.20174 2.34205 8.21213 2.26674C8.22252 2.19057 8.25325 2.11742 8.30432 2.04731C8.35626 1.97719 8.42767 1.92222 8.51856 1.88241C8.61032 1.84172 8.71549 1.82138 8.83408 1.82138C8.99509 1.82138 9.12796 1.85254 9.2327 1.91487C9.33744 1.97719 9.40626 2.0551 9.43915 2.14859C9.47205 2.24121 9.48849 2.38577 9.48849 2.58226V2.78222ZM10.9337 3.09645C10.9337 3.30766 10.9285 3.45741 10.9181 3.5457C10.9086 3.63313 10.8774 3.7132 10.8246 3.78592C10.7726 3.85863 10.7021 3.91446 10.6129 3.95341C10.5238 3.99237 10.4199 4.01184 10.3013 4.01184C10.1888 4.01184 10.0875 3.99367 9.99748 3.95731C9.90832 3.92009 9.83647 3.86469 9.78194 3.79111C9.72741 3.71753 9.69494 3.63746 9.68456 3.5509C9.67417 3.46434 9.66898 3.31285 9.66898 3.09645V2.73678C9.66898 2.52557 9.67374 2.37625 9.68326 2.28882C9.69365 2.20052 9.72481 2.12002 9.77675 2.04731C9.82955 1.9746 9.90053 1.91876 9.98969 1.87981C10.0788 1.84086 10.1827 1.82138 10.3013 1.82138C10.4138 1.82138 10.5147 1.83999 10.6039 1.87721C10.6939 1.91357 10.7662 1.96854 10.8207 2.04211C10.8752 2.11569 10.9077 2.19576 10.9181 2.28232C10.9285 2.36889 10.9337 2.52037 10.9337 2.73678V3.09645ZM10.387 2.40568C10.387 2.30786 10.3814 2.24554 10.3701 2.2187C10.3597 2.191 10.3377 2.17715 10.3039 2.17715C10.2753 2.17715 10.2533 2.1884 10.2377 2.21091C10.223 2.23255 10.2156 2.29747 10.2156 2.40568V3.3873C10.2156 3.50935 10.2204 3.58466 10.2299 3.61322C10.2403 3.64179 10.2637 3.65607 10.3 3.65607C10.3372 3.65607 10.361 3.63963 10.3714 3.60673C10.3818 3.57384 10.387 3.4955 10.387 3.37171V2.40568ZM11.6854 1.86553V3.547H12.0178V3.9677H11.1388V1.86553H11.6854Z" fill="#35284F"/>
<path d="M2.88853 1.86553V1.82805H2.85106V1.86553H2.88853ZM3.80004 1.86553H3.83751V1.82805H3.80004V1.86553ZM3.80004 2.28622V2.32369H3.83751V2.28622H3.80004ZM3.43518 2.28622V2.24875H3.3977V2.28622H3.43518ZM3.43518 2.68484H3.3977V2.72232H3.43518V2.68484ZM3.77666 2.68484H3.81414V2.64737H3.77666V2.68484ZM3.77666 3.08476V3.12223H3.81414V3.08476H3.77666ZM3.43518 3.08476V3.04728H3.3977V3.08476H3.43518ZM3.43518 3.547H3.3977V3.58448H3.43518V3.547ZM3.83639 3.547H3.87387V3.50953H3.83639V3.547ZM3.83639 3.9677V4.00517H3.87387V3.9677H3.83639ZM2.88853 3.9677H2.85106V4.00517H2.88853V3.9677ZM2.88853 1.903H3.80004V1.82805H2.88853V1.903ZM3.76256 1.86553V2.28622H3.83751V1.86553H3.76256ZM3.80004 2.24875H3.43518V2.32369H3.80004V2.24875ZM3.3977 2.28622V2.68484H3.47265V2.28622H3.3977ZM3.43518 2.72232H3.77666V2.64737H3.43518V2.72232ZM3.73919 2.68484V3.08476H3.81414V2.68484H3.73919ZM3.77666 3.04728H3.43518V3.12223H3.77666V3.04728ZM3.3977 3.08476V3.547H3.47265V3.08476H3.3977ZM3.43518 3.58448H3.83639V3.50953H3.43518V3.58448ZM3.79892 3.547V3.9677H3.87387V3.547H3.79892ZM3.83639 3.93022H2.88853V4.00517H3.83639V3.93022ZM2.92601 3.9677V1.86553H2.85106V3.9677H2.92601ZM3.9948 1.86553V1.82805H3.95733V1.86553H3.9948ZM4.90501 1.89539L4.89699 1.932L4.89706 1.93201L4.90501 1.89539ZM5.12834 2.04861L5.09756 2.06999L5.09782 2.07036L5.12834 2.04861ZM4.9141 2.87052L4.91058 2.83321L4.69127 2.85387L4.90508 2.90689L4.9141 2.87052ZM5.20105 3.10294L5.1645 3.11125L5.16475 3.11223L5.20105 3.10294ZM5.21533 3.9677V4.00517H5.25281V3.9677H5.21533ZM4.70764 3.9677H4.67017V4.00517H4.70764V3.9677ZM4.68038 3.06009L4.64888 3.08041L4.64935 3.08111L4.68038 3.06009ZM4.54144 3.01984V2.98236H4.50397V3.01984H4.54144ZM4.54144 3.9677V4.00517H4.57892V3.9677H4.54144ZM3.9948 3.9677H3.95733V4.00517H3.9948V3.9677ZM4.54144 2.22519V2.18772H4.50397V2.22519H4.54144ZM4.54144 2.69263H4.50397V2.73011H4.54144V2.69263ZM4.66999 2.66796L4.69103 2.69897L4.69127 2.69881L4.66999 2.66796ZM4.67129 2.25636L4.64639 2.28437L4.6469 2.28481L4.67129 2.25636ZM3.9948 1.903H4.38174V1.82805H3.9948V1.903ZM4.38174 1.903C4.64015 1.903 4.81064 1.91308 4.89699 1.932L4.91303 1.85878C4.81759 1.83788 4.63924 1.82805 4.38174 1.82805V1.903ZM4.89706 1.93201C4.9789 1.94977 5.04545 1.99497 5.09756 2.06999L5.15912 2.02722C5.09697 1.93777 5.01463 1.88083 4.91295 1.85877L4.89706 1.93201ZM5.09782 2.07036C5.14893 2.14206 5.17786 2.26263 5.17786 2.43944H5.25281C5.25281 2.25787 5.22374 2.11789 5.15886 2.02686L5.09782 2.07036ZM5.17786 2.43944C5.17786 2.5199 5.17284 2.58582 5.16323 2.63777C5.15352 2.69023 5.13963 2.72558 5.12394 2.74728L5.18468 2.7912C5.20967 2.75663 5.22629 2.70888 5.23693 2.65141C5.24766 2.59342 5.25281 2.52258 5.25281 2.43944H5.17786ZM5.12394 2.74728C5.09292 2.79018 5.02672 2.82227 4.91058 2.83321L4.91761 2.90783C5.04038 2.89626 5.13432 2.86083 5.18468 2.7912L5.12394 2.74728ZM4.90508 2.90689C5.01154 2.93329 5.07414 2.96684 5.10335 3.00217L5.16111 2.95441C5.11588 2.89971 5.03306 2.86141 4.92312 2.83414L4.90508 2.90689ZM5.10335 3.00217C5.13854 3.04471 5.15764 3.08101 5.16451 3.11124L5.23759 3.09463C5.22715 3.04869 5.20038 3.00189 5.16111 2.95441L5.10335 3.00217ZM5.16475 3.11223C5.16842 3.1266 5.17193 3.15809 5.17433 3.21016C5.17667 3.26106 5.17786 3.3287 5.17786 3.41326H5.25281C5.25281 3.32817 5.25162 3.25925 5.2492 3.20671C5.24683 3.15534 5.2432 3.1165 5.23736 3.09365L5.16475 3.11223ZM5.17786 3.41326V3.9677H5.25281V3.41326H5.17786ZM5.21533 3.93022H4.70764V4.00517H5.21533V3.93022ZM4.74512 3.9677V3.26914H4.67017V3.9677H4.74512ZM4.74512 3.26914C4.74512 3.21209 4.74283 3.16474 4.73799 3.12763C4.73337 3.09225 4.72582 3.06035 4.7114 3.03907L4.64935 3.08111C4.65312 3.08666 4.65919 3.10303 4.66367 3.13732C4.66792 3.1699 4.67017 3.21365 4.67017 3.26914H4.74512ZM4.71187 3.03977C4.69634 3.01571 4.67065 3.00189 4.64309 2.99391C4.6152 2.98583 4.58089 2.98236 4.54144 2.98236V3.05731C4.57731 3.05731 4.60381 3.06056 4.62223 3.06589C4.64098 3.07133 4.6471 3.07763 4.64889 3.08041L4.71187 3.03977ZM4.50397 3.01984V3.9677H4.57892V3.01984H4.50397ZM4.54144 3.93022H3.9948V4.00517H4.54144V3.93022ZM4.03228 3.9677V1.86553H3.95733V3.9677H4.03228ZM4.50397 2.22519V2.69263H4.57892V2.22519H4.50397ZM4.54144 2.73011C4.60375 2.73011 4.65673 2.72225 4.69103 2.69897L4.64895 2.63695C4.63477 2.64657 4.60206 2.65516 4.54144 2.65516V2.73011ZM4.69127 2.69881C4.71587 2.68184 4.72798 2.65181 4.73477 2.62209C4.74194 2.59069 4.74512 2.55063 4.74512 2.50306H4.67017C4.67017 2.54811 4.66708 2.58184 4.6617 2.60541C4.65902 2.61713 4.65601 2.62525 4.65323 2.6306C4.65043 2.63597 4.64855 2.63722 4.64871 2.63711L4.69127 2.69881ZM4.74512 2.50306V2.3875H4.67017V2.50306H4.74512ZM4.74512 2.3875C4.74512 2.35222 4.74195 2.32097 4.73467 2.29471C4.72742 2.26858 4.71537 2.24478 4.69568 2.2279L4.6469 2.28481C4.65145 2.28871 4.65757 2.29716 4.66244 2.31473C4.66728 2.33219 4.67017 2.35613 4.67017 2.3875H4.74512ZM4.69619 2.22835C4.66172 2.19771 4.60586 2.18772 4.54144 2.18772V2.26267C4.60342 2.26267 4.63411 2.27345 4.64639 2.28436L4.69619 2.22835ZM5.42828 1.86553V1.82805H5.3908V1.86553H5.42828ZM6.33848 1.89539L6.33046 1.932L6.33054 1.93201L6.33848 1.89539ZM6.56181 2.04861L6.53104 2.06999L6.5313 2.07036L6.56181 2.04861ZM6.34757 2.87052L6.34406 2.83321L6.12475 2.85387L6.33855 2.90689L6.34757 2.87052ZM6.63453 3.10294L6.59797 3.11125L6.59822 3.11223L6.63453 3.10294ZM6.64881 3.9677V4.00517H6.68628V3.9677H6.64881ZM6.14112 3.9677H6.10365V4.00517H6.14112V3.9677ZM6.11385 3.06009L6.08236 3.08041L6.08283 3.08111L6.11385 3.06009ZM5.97492 3.01984V2.98236H5.93745V3.01984H5.97492ZM5.97492 3.9677V4.00517H6.01239V3.9677H5.97492ZM5.42828 3.9677H5.3908V4.00517H5.42828V3.9677ZM5.97492 2.22519V2.18772H5.93745V2.22519H5.97492ZM5.97492 2.69263H5.93745V2.73011H5.97492V2.69263ZM6.10347 2.66796L6.12451 2.69897L6.12474 2.69881L6.10347 2.66796ZM6.10476 2.25636L6.07986 2.28437L6.08038 2.28481L6.10476 2.25636ZM5.42828 1.903H5.81521V1.82805H5.42828V1.903ZM5.81521 1.903C6.07362 1.903 6.24412 1.91308 6.33046 1.932L6.3465 1.85878C6.25107 1.83788 6.07271 1.82805 5.81521 1.82805V1.903ZM6.33054 1.93201C6.41238 1.94977 6.47892 1.99497 6.53104 2.06999L6.59259 2.02722C6.53044 1.93777 6.4481 1.88083 6.34643 1.85877L6.33054 1.93201ZM6.5313 2.07036C6.5824 2.14206 6.61133 2.26263 6.61133 2.43944H6.68628C6.68628 2.25787 6.65722 2.11789 6.59233 2.02686L6.5313 2.07036ZM6.61133 2.43944C6.61133 2.5199 6.60632 2.58582 6.5967 2.63777C6.587 2.69023 6.57311 2.72558 6.55742 2.74728L6.61815 2.7912C6.64314 2.75663 6.65977 2.70888 6.6704 2.65141C6.68113 2.59342 6.68628 2.52258 6.68628 2.43944H6.61133ZM6.55742 2.74728C6.5264 2.79018 6.4602 2.82227 6.34406 2.83321L6.35109 2.90783C6.47386 2.89626 6.5678 2.86083 6.61815 2.7912L6.55742 2.74728ZM6.33855 2.90689C6.44501 2.93329 6.50762 2.96684 6.53683 3.00217L6.59459 2.95441C6.54936 2.89971 6.46654 2.86141 6.35659 2.83414L6.33855 2.90689ZM6.53683 3.00217C6.57201 3.04471 6.59111 3.08101 6.59798 3.11124L6.67107 3.09463C6.66063 3.04869 6.63385 3.00189 6.59459 2.95441L6.53683 3.00217ZM6.59822 3.11223C6.6019 3.1266 6.60541 3.15809 6.6078 3.21016C6.61015 3.26106 6.61133 3.3287 6.61133 3.41326H6.68628C6.68628 3.32817 6.68509 3.25925 6.68267 3.20671C6.68031 3.15534 6.67668 3.1165 6.67083 3.09365L6.59822 3.11223ZM6.61133 3.41326V3.9677H6.68628V3.41326H6.61133ZM6.64881 3.93022H6.14112V4.00517H6.64881V3.93022ZM6.17859 3.9677V3.26914H6.10365V3.9677H6.17859ZM6.17859 3.26914C6.17859 3.21209 6.1763 3.16474 6.17146 3.12763C6.16685 3.09225 6.15929 3.06035 6.14488 3.03907L6.08283 3.08111C6.08659 3.08666 6.09267 3.10303 6.09714 3.13732C6.10139 3.1699 6.10365 3.21365 6.10365 3.26914H6.17859ZM6.14534 3.03977C6.12982 3.01571 6.10413 3.00189 6.07656 2.99391C6.04868 2.98583 6.01436 2.98236 5.97492 2.98236V3.05731C6.01079 3.05731 6.03728 3.06056 6.05571 3.06589C6.07446 3.07133 6.08058 3.07763 6.08236 3.08041L6.14534 3.03977ZM5.93745 3.01984V3.9677H6.01239V3.01984H5.93745ZM5.97492 3.93022H5.42828V4.00517H5.97492V3.93022ZM5.46575 3.9677V1.86553H5.3908V3.9677H5.46575ZM5.93745 2.22519V2.69263H6.01239V2.22519H5.93745ZM5.97492 2.73011C6.03722 2.73011 6.09021 2.72225 6.12451 2.69897L6.08242 2.63695C6.06825 2.64657 6.03554 2.65516 5.97492 2.65516V2.73011ZM6.12474 2.69881C6.14935 2.68184 6.16146 2.65181 6.16824 2.62209C6.17541 2.59069 6.17859 2.55063 6.17859 2.50306H6.10365C6.10365 2.54811 6.10055 2.58184 6.09517 2.60541C6.0925 2.61713 6.08949 2.62525 6.0867 2.6306C6.08391 2.63597 6.08203 2.63722 6.08219 2.63711L6.12474 2.69881ZM6.17859 2.50306V2.3875H6.10365V2.50306H6.17859ZM6.17859 2.3875C6.17859 2.35222 6.17542 2.32097 6.16814 2.29471C6.1609 2.26858 6.14884 2.24478 6.12915 2.2279L6.08038 2.28481C6.08492 2.28871 6.09105 2.29716 6.09592 2.31473C6.10076 2.33219 6.10365 2.35613 6.10365 2.3875H6.17859ZM6.12966 2.22835C6.09519 2.19771 6.03933 2.18772 5.97492 2.18772V2.26267C6.03689 2.26267 6.06759 2.27345 6.07987 2.28436L6.12966 2.22835ZM7.80572 1.86553L7.84278 1.86001L7.83803 1.82805H7.80572V1.86553ZM8.11864 3.9677V4.00517H8.16211L8.15571 3.96218L8.11864 3.9677ZM7.55901 3.9677L7.52164 3.97039L7.52415 4.00517H7.55901V3.9677ZM7.53175 3.58985L7.56912 3.58715L7.56662 3.55238H7.53175V3.58985ZM7.33568 3.58985V3.55238H7.30129L7.29835 3.58664L7.33568 3.58985ZM7.30322 3.9677V4.00517H7.33762L7.34056 3.9709L7.30322 3.9677ZM6.7371 3.9677L6.69995 3.96279L6.69435 4.00517H6.7371V3.9677ZM7.01497 1.86553V1.82805H6.98212L6.97782 1.86062L7.01497 1.86553ZM7.51617 3.2172V3.25467H7.55825L7.55339 3.21287L7.51617 3.2172ZM7.43307 2.33556L7.47042 2.3326L7.44315 1.98822L7.39594 2.33044L7.43307 2.33556ZM7.32919 3.2172L7.29182 3.21442L7.28882 3.25467H7.32919V3.2172ZM7.76865 1.87104L8.08157 3.97321L8.15571 3.96218L7.84278 1.86001L7.76865 1.87104ZM8.11864 3.93022H7.55901V4.00517H8.11864V3.93022ZM7.59639 3.965L7.56912 3.58715L7.49437 3.59255L7.52164 3.97039L7.59639 3.965ZM7.53175 3.55238H7.33568V3.62733H7.53175V3.55238ZM7.29835 3.58664L7.26589 3.96449L7.34056 3.9709L7.37302 3.59306L7.29835 3.58664ZM7.30322 3.93022H6.7371V4.00517H7.30322V3.93022ZM6.77425 3.97261L7.05212 1.87044L6.97782 1.86062L6.69995 3.96279L6.77425 3.97261ZM7.01497 1.903H7.80572V1.82805H7.01497V1.903ZM7.55339 3.21287C7.52576 2.97543 7.4981 2.68204 7.47042 2.3326L7.39571 2.33852C7.42343 2.6885 7.45117 2.98287 7.47894 3.22153L7.55339 3.21287ZM7.39594 2.33044C7.34053 2.73219 7.30576 3.02706 7.29182 3.21442L7.36656 3.21998C7.38032 3.03513 7.4148 2.74224 7.47019 2.34068L7.39594 2.33044ZM7.32919 3.25467H7.51617V3.17973H7.32919V3.25467ZM9.48849 2.78222V2.8197H9.52597V2.78222H9.48849ZM8.94185 2.78222H8.90438V2.8197H8.94185V2.78222ZM8.92367 2.2174L8.88909 2.23191L8.88971 2.23325L8.92367 2.2174ZM8.92237 3.60933L8.88777 3.59491L8.88745 3.59575L8.92237 3.60933ZM8.94185 3.12631V3.08883H8.90438V3.12631H8.94185ZM9.48849 3.12631H9.52597V3.08883H9.48849V3.12631ZM9.44175 3.67035L9.4063 3.6582L9.4062 3.6585L9.44175 3.67035ZM9.23789 3.90927L9.21753 3.87781L9.21741 3.87789L9.23789 3.90927ZM8.24719 3.68464L8.21158 3.69631L8.2116 3.6964L8.24719 3.68464ZM8.21213 2.26674L8.24925 2.27186L8.24926 2.27181L8.21213 2.26674ZM8.30432 2.04731L8.2742 2.025L8.27403 2.02524L8.30432 2.04731ZM8.51856 1.88241L8.5336 1.91673L8.53375 1.91666L8.51856 1.88241ZM9.43915 2.14859L9.4038 2.16102L9.40384 2.16113L9.43915 2.14859ZM9.48849 2.74475H8.94185V2.8197H9.48849V2.74475ZM8.97933 2.78222V2.41606H8.90438V2.78222H8.97933ZM8.97933 2.41606C8.97933 2.36228 8.9778 2.31784 8.97462 2.28313C8.97158 2.2499 8.96671 2.22101 8.95763 2.20156L8.88971 2.23325C8.89275 2.23977 8.89697 2.25697 8.89999 2.28996C8.90287 2.32147 8.90438 2.36338 8.90438 2.41606H8.97933ZM8.95823 2.20291C8.94927 2.18154 8.93406 2.16484 8.91351 2.15404C8.89372 2.14364 8.87086 2.13968 8.84706 2.13968V2.21463C8.86309 2.21463 8.87291 2.21737 8.87865 2.22039C8.88364 2.22301 8.88682 2.22643 8.88911 2.2319L8.95823 2.20291ZM8.84706 2.13968C8.82043 2.13968 8.79514 2.14437 8.77356 2.15647C8.75122 2.169 8.73534 2.18809 8.72632 2.21193L8.79642 2.23846C8.79951 2.23027 8.80398 2.22534 8.81021 2.22185C8.81718 2.21794 8.82868 2.21463 8.84706 2.21463V2.13968ZM8.72632 2.21193C8.71835 2.23299 8.71349 2.2626 8.7104 2.29789C8.70724 2.33401 8.70571 2.37912 8.70571 2.43294H8.78066C8.78066 2.38029 8.78217 2.33755 8.78507 2.30442C8.78804 2.27046 8.79227 2.24942 8.79642 2.23846L8.72632 2.21193ZM8.70571 2.43294V3.40937H8.78066V2.43294H8.70571ZM8.70571 3.40937C8.70571 3.46105 8.70724 3.50448 8.71041 3.53936C8.71351 3.57342 8.71839 3.60222 8.72644 3.62291L8.79629 3.59575C8.79222 3.58527 8.78802 3.56517 8.78505 3.53257C8.78217 3.5008 8.78066 3.45983 8.78066 3.40937H8.70571ZM8.72644 3.62291C8.7354 3.64594 8.75072 3.66459 8.77231 3.67692C8.79325 3.68889 8.81764 3.69355 8.84317 3.69355V3.6186C8.82628 3.6186 8.81583 3.61546 8.8095 3.61185C8.80382 3.60861 8.79946 3.60388 8.79629 3.59575L8.72644 3.62291ZM8.84317 3.69355C8.86808 3.69355 8.89197 3.68879 8.91253 3.67666C8.93364 3.6642 8.94849 3.64557 8.9573 3.62291L8.88745 3.59575C8.88414 3.60425 8.87973 3.60899 8.87444 3.61211C8.8686 3.61556 8.85894 3.6186 8.84317 3.6186V3.69355ZM8.95697 3.62374C8.96584 3.60245 8.97103 3.5714 8.97431 3.53441C8.97769 3.4963 8.97933 3.44802 8.97933 3.38989H8.90438C8.90438 3.44689 8.90276 3.49275 8.89965 3.52778C8.89644 3.56394 8.8919 3.58504 8.88778 3.59491L8.95697 3.62374ZM8.97933 3.38989V3.12631H8.90438V3.38989H8.97933ZM8.94185 3.16378H9.48849V3.08883H8.94185V3.16378ZM9.45102 3.12631V3.20811H9.52597V3.12631H9.45102ZM9.45102 3.20811C9.45102 3.42514 9.43527 3.57371 9.4063 3.6582L9.4772 3.68251C9.51055 3.58522 9.52597 3.42563 9.52597 3.20811H9.45102ZM9.4062 3.6585C9.37933 3.73911 9.31824 3.81259 9.21753 3.87781L9.25826 3.94072C9.36876 3.86917 9.44357 3.78339 9.4773 3.68221L9.4062 3.6585ZM9.21741 3.87789C9.12004 3.94146 8.99816 3.97437 8.84966 3.97437V4.04932C9.00933 4.04932 9.14627 4.01384 9.25838 3.94065L9.21741 3.87789ZM8.84966 3.97437C8.69379 3.97437 8.5686 3.94611 8.47191 3.89213L8.43537 3.95757C8.54643 4.01958 8.68525 4.04932 8.84966 4.04932V3.97437ZM8.47191 3.89213C8.37528 3.83818 8.31326 3.76514 8.28277 3.67288L8.2116 3.6964C8.24863 3.80842 8.32424 3.89552 8.43537 3.95757L8.47191 3.89213ZM8.2828 3.67297C8.25093 3.57574 8.23402 3.42604 8.23402 3.2211H8.15907C8.15907 3.42818 8.17592 3.58752 8.21158 3.69631L8.2828 3.67297ZM8.23402 3.2211V2.60693H8.15907V3.2211H8.23402ZM8.23402 2.60693C8.23402 2.45583 8.23923 2.34453 8.24925 2.27186L8.17501 2.26162C8.16425 2.33957 8.15907 2.45507 8.15907 2.60693H8.23402ZM8.24926 2.27181C8.25871 2.20253 8.28671 2.13513 8.33461 2.06937L8.27403 2.02524C8.21978 2.09972 8.18633 2.17861 8.175 2.26168L8.24926 2.27181ZM8.33443 2.06961C8.38197 2.00544 8.44786 1.95429 8.5336 1.91673L8.50352 1.84808C8.40748 1.89016 8.33054 1.94895 8.2742 2.025L8.33443 2.06961ZM8.53375 1.91666C8.61993 1.87845 8.71978 1.85885 8.83408 1.85885V1.7839C8.71119 1.7839 8.6007 1.80499 8.50337 1.84815L8.53375 1.91666ZM8.83408 1.85885C8.99045 1.85885 9.11617 1.88913 9.21354 1.94707L9.25186 1.88266C9.13975 1.81595 8.99973 1.7839 8.83408 1.7839V1.85885ZM9.21354 1.94707C9.31253 2.00597 9.37445 2.07759 9.4038 2.16102L9.4745 2.13615C9.43807 2.0326 9.36236 1.94841 9.25186 1.88266L9.21354 1.94707ZM9.40384 2.16113C9.43449 2.24744 9.45102 2.38665 9.45102 2.58226H9.52597C9.52597 2.38488 9.5096 2.23498 9.47447 2.13604L9.40384 2.16113ZM9.45102 2.58226V2.78222H9.52597V2.58226H9.45102ZM10.9181 3.5457L10.8809 3.54133L10.8808 3.54165L10.9181 3.5457ZM10.8246 3.78592L10.7943 3.7639L10.7941 3.76413L10.8246 3.78592ZM9.99748 3.95731L9.98304 3.99189L9.98345 3.99206L9.99748 3.95731ZM9.68326 2.28882L9.64604 2.28444L9.646 2.28476L9.68326 2.28882ZM9.77675 2.04731L9.74642 2.02529L9.74625 2.02553L9.77675 2.04731ZM10.6039 1.87721L10.5894 1.9118L10.5898 1.91196L10.6039 1.87721ZM10.3701 2.2187L10.335 2.23187L10.3356 2.23319L10.3701 2.2187ZM10.2377 2.21091L10.2069 2.18958L10.2067 2.18984L10.2377 2.21091ZM10.2299 3.61322L10.1943 3.62508L10.1947 3.62603L10.2299 3.61322ZM10.8962 3.09645C10.8962 3.30763 10.891 3.45543 10.8809 3.54133L10.9553 3.55008C10.966 3.45939 10.9711 3.30768 10.9711 3.09645H10.8962ZM10.8808 3.54165C10.872 3.62244 10.8433 3.69634 10.7943 3.7639L10.8549 3.80794C10.9115 3.73006 10.9451 3.64383 10.9553 3.54976L10.8808 3.54165ZM10.7941 3.76413C10.7464 3.83085 10.6815 3.88258 10.5979 3.91907L10.6279 3.98775C10.7227 3.94634 10.7989 3.8864 10.8551 3.8077L10.7941 3.76413ZM10.5979 3.91907C10.5144 3.95556 10.4158 3.97437 10.3013 3.97437V4.04932C10.424 4.04932 10.5331 4.02918 10.6279 3.98775L10.5979 3.91907ZM10.3013 3.97437C10.1928 3.97437 10.0964 3.95685 10.0115 3.92256L9.98345 3.99206C10.0786 4.03048 10.1847 4.04932 10.3013 4.04932V3.97437ZM10.0119 3.92273C9.92863 3.88796 9.86233 3.83664 9.81205 3.7688L9.75183 3.81342C9.81061 3.89273 9.88801 3.95222 9.98304 3.99189L10.0119 3.92273ZM9.81205 3.7688C9.76119 3.70017 9.73134 3.6262 9.72176 3.54643L9.64735 3.55536C9.65855 3.64872 9.69362 3.73489 9.75183 3.81342L9.81205 3.7688ZM9.72176 3.54643C9.71167 3.46235 9.70645 3.3129 9.70645 3.09645H9.6315C9.6315 3.3128 9.63666 3.46632 9.64735 3.55536L9.72176 3.54643ZM9.70645 3.09645V2.73678H9.6315V3.09645H9.70645ZM9.70645 2.73678C9.70645 2.52557 9.71123 2.37807 9.72051 2.29287L9.646 2.28476C9.63624 2.37442 9.6315 2.52556 9.6315 2.73678H9.70645ZM9.72048 2.2932C9.73012 2.21121 9.75896 2.13669 9.80724 2.06909L9.74625 2.02553C9.69066 2.10335 9.65717 2.18984 9.64604 2.28444L9.72048 2.2932ZM9.80707 2.06933C9.85563 2.00246 9.92112 1.95066 10.0047 1.91415L9.97469 1.84547C9.87994 1.88686 9.80347 1.94673 9.74642 2.02529L9.80707 2.06933ZM10.0047 1.91415C10.0882 1.87766 10.1868 1.85885 10.3013 1.85885V1.7839C10.1787 1.7839 10.0695 1.80405 9.97469 1.84547L10.0047 1.91415ZM10.3013 1.85885C10.4097 1.85885 10.5055 1.87677 10.5894 1.91179L10.6183 1.84263C10.5239 1.80321 10.418 1.7839 10.3013 1.7839V1.85885ZM10.5898 1.91196C10.6738 1.94589 10.7404 1.99673 10.7906 2.06443L10.8508 2.0198C10.7919 1.94034 10.7139 1.88124 10.6179 1.84246L10.5898 1.91196ZM10.7906 2.06443C10.8414 2.13305 10.8713 2.20702 10.8809 2.28679L10.9553 2.27786C10.9441 2.1845 10.909 2.09833 10.8508 2.0198L10.7906 2.06443ZM10.8809 2.28679C10.891 2.37088 10.8962 2.52032 10.8962 2.73678H10.9711C10.9711 2.52042 10.966 2.3669 10.9553 2.27786L10.8809 2.28679ZM10.8962 2.73678V3.09645H10.9711V2.73678H10.8962ZM10.4245 2.40568C10.4245 2.35619 10.4231 2.31492 10.4201 2.2822C10.4173 2.25057 10.4127 2.22332 10.4047 2.20421L10.3356 2.23319C10.3388 2.24092 10.3427 2.25825 10.3455 2.28894C10.3481 2.31854 10.3495 2.35734 10.3495 2.40568H10.4245ZM10.4052 2.20554C10.3976 2.18509 10.3846 2.16767 10.3657 2.1558C10.3472 2.14417 10.3258 2.13968 10.3039 2.13968V2.21463C10.3158 2.21463 10.3223 2.21706 10.3259 2.21928C10.329 2.22126 10.3323 2.22461 10.335 2.23186L10.4052 2.20554ZM10.3039 2.13968C10.2637 2.13968 10.2298 2.15645 10.2069 2.18958L10.2685 2.23224C10.2767 2.22036 10.287 2.21463 10.3039 2.21463V2.13968ZM10.2067 2.18984C10.1994 2.20052 10.1949 2.2135 10.1917 2.226C10.1884 2.23904 10.1859 2.25438 10.1839 2.27161C10.18 2.30608 10.1781 2.35095 10.1781 2.40568H10.2531C10.2531 2.3522 10.2549 2.3105 10.2584 2.28005C10.2601 2.26482 10.2622 2.25311 10.2643 2.24452C10.2654 2.24025 10.2665 2.2371 10.2674 2.23487C10.2683 2.23258 10.2688 2.23181 10.2687 2.23198L10.2067 2.18984ZM10.1781 2.40568V3.3873H10.2531V2.40568H10.1781ZM10.1781 3.3873C10.1781 3.44869 10.1793 3.49891 10.1818 3.53768C10.1842 3.57516 10.1879 3.60563 10.1943 3.62507L10.2655 3.60137C10.2624 3.59225 10.259 3.57079 10.2566 3.53295C10.2543 3.49641 10.2531 3.44795 10.2531 3.3873H10.1781ZM10.1947 3.62603C10.2024 3.64737 10.2159 3.66528 10.2357 3.67734C10.2549 3.68907 10.2771 3.69355 10.3 3.69355V3.6186C10.2865 3.6186 10.2789 3.61593 10.2748 3.61338C10.2711 3.61116 10.2677 3.60765 10.2651 3.60042L10.1947 3.62603ZM10.3 3.69355C10.3241 3.69355 10.3473 3.68821 10.3671 3.67457C10.3871 3.66075 10.4 3.64082 10.4072 3.61802L10.3357 3.59545C10.3325 3.60553 10.3283 3.61028 10.3245 3.61291C10.3204 3.61571 10.3132 3.6186 10.3 3.6186V3.69355ZM10.4072 3.61802C10.4138 3.5969 10.4179 3.56514 10.4205 3.52579C10.4232 3.48546 10.4245 3.43402 10.4245 3.37171H10.3495C10.3495 3.43319 10.3482 3.48281 10.3457 3.52083C10.3431 3.55982 10.3394 3.58367 10.3357 3.59545L10.4072 3.61802ZM10.4245 3.37171V2.40568H10.3495V3.37171H10.4245ZM11.6854 1.86553H11.7229V1.82805H11.6854V1.86553ZM11.6854 3.547H11.648V3.58448H11.6854V3.547ZM12.0178 3.547H12.0553V3.50953H12.0178V3.547ZM12.0178 3.9677V4.00517H12.0553V3.9677H12.0178ZM11.1388 3.9677H11.1013V4.00517H11.1388V3.9677ZM11.1388 1.86553V1.82805H11.1013V1.86553H11.1388ZM11.648 1.86553V3.547H11.7229V1.86553H11.648ZM11.6854 3.58448H12.0178V3.50953H11.6854V3.58448ZM11.9804 3.547V3.9677H12.0553V3.547H11.9804ZM12.0178 3.93022H11.1388V4.00517H12.0178V3.93022ZM11.1763 3.9677V1.86553H11.1013V3.9677H11.1763ZM11.1388 1.903H11.6854V1.82805H11.1388V1.903Z" fill="#E8DC00"/>
<path d="M1.74319 4.99025V5.00085H1.53064V4.99025H1.5482C1.56869 4.99025 1.58356 4.98558 1.59283 4.97622C1.59869 4.97011 1.60161 4.9554 1.60161 4.9321V4.68115C1.60161 4.66148 1.60003 4.64849 1.59686 4.64219C1.59442 4.63741 1.58942 4.63331 1.58186 4.62987C1.57113 4.62529 1.55991 4.623 1.5482 4.623H1.53064V4.6124H1.74319V4.623H1.72527C1.70502 4.623 1.69027 4.62767 1.681 4.63703C1.6749 4.64314 1.67185 4.65785 1.67185 4.68115V4.9321C1.67185 4.95177 1.67344 4.96476 1.67661 4.97106C1.67905 4.97584 1.68417 4.97994 1.69198 4.98338C1.70246 4.98796 1.71356 4.99025 1.72527 4.99025H1.74319Z" fill="white"/>
<path d="M2.06806 5.00085L1.87636 4.67399V4.93353C1.87636 4.95741 1.87965 4.9723 1.88624 4.97822C1.89526 4.98624 1.90953 4.99025 1.92904 4.99025H1.9466V5.00085H1.77392V4.99025H1.79148C1.81246 4.99025 1.82734 4.98529 1.83612 4.97536C1.84148 4.96925 1.84417 4.9553 1.84417 4.93353V4.67972C1.84417 4.66253 1.84173 4.65012 1.83685 4.64248C1.83343 4.63694 1.82709 4.63235 1.81783 4.62873C1.8088 4.62491 1.79417 4.623 1.77392 4.623V4.6124H1.91441L2.0944 4.91634L2.27147 4.6124H2.41195V4.623H2.39476C2.37354 4.623 2.35854 4.62796 2.34976 4.63789C2.34439 4.644 2.34171 4.65795 2.34171 4.67972V4.93353C2.34171 4.95741 2.34512 4.9723 2.35195 4.97822C2.36098 4.98624 2.37525 4.99025 2.39476 4.99025H2.41195V5.00085H2.20123V4.99025H2.21879C2.24001 4.99025 2.25488 4.98529 2.26342 4.97536C2.26879 4.96925 2.27147 4.9553 2.27147 4.93353V4.67399L2.08013 5.00085H2.06806Z" fill="white"/>
<path d="M2.5817 4.81894V4.9321C2.5817 4.95655 2.58512 4.97173 2.59195 4.97765C2.60121 4.98605 2.61524 4.99025 2.63402 4.99025H2.65304V5.00085H2.44049V4.99025H2.45915C2.48012 4.99025 2.49512 4.98491 2.50414 4.97421C2.50902 4.96829 2.51146 4.95425 2.51146 4.9321V4.68115C2.51146 4.6567 2.50817 4.64152 2.50158 4.6356C2.49207 4.6272 2.47792 4.623 2.45915 4.623H2.44049V4.6124H2.62231C2.6667 4.6124 2.7017 4.61602 2.72731 4.62328C2.75292 4.63035 2.7745 4.64238 2.79206 4.65938C2.80962 4.67638 2.8184 4.69652 2.8184 4.71982C2.8184 4.75153 2.80499 4.77731 2.77816 4.79717C2.75157 4.81703 2.71389 4.82696 2.66511 4.82696C2.65316 4.82696 2.64024 4.8263 2.62633 4.82496C2.61243 4.82362 2.59756 4.82162 2.5817 4.81894ZM2.5817 4.80261C2.59463 4.80452 2.60609 4.80596 2.61609 4.80691C2.62609 4.80787 2.63463 4.80834 2.6417 4.80834C2.66706 4.80834 2.68889 4.8007 2.70719 4.78543C2.72572 4.76996 2.73499 4.75 2.73499 4.72555C2.73499 4.70875 2.7306 4.69318 2.72182 4.67886C2.71304 4.66434 2.7006 4.65355 2.6845 4.64649C2.66841 4.63923 2.65011 4.6356 2.62963 4.6356C2.61719 4.6356 2.60121 4.63741 2.5817 4.64104V4.80261Z" fill="white"/>
<path d="M3.11912 4.60352C3.18351 4.60352 3.23924 4.62271 3.28631 4.6611C3.33363 4.69929 3.35729 4.74704 3.35729 4.80433C3.35729 4.86335 3.33351 4.91233 3.28595 4.95129C3.23839 4.99025 3.18083 5.00973 3.11327 5.00973C3.04498 5.00973 2.98754 4.99073 2.94096 4.95273C2.89462 4.91472 2.87145 4.86554 2.87145 4.80519C2.87145 4.74351 2.89828 4.69318 2.95193 4.65422C2.99852 4.62042 3.05425 4.60352 3.11912 4.60352ZM3.11217 4.62443C3.06778 4.62443 3.03217 4.63732 3.00535 4.6631C2.97193 4.69519 2.95523 4.74217 2.95523 4.80405C2.95523 4.86745 2.97254 4.91625 3.00718 4.95043C3.03376 4.97641 3.06888 4.98939 3.11254 4.98939C3.15912 4.98939 3.19753 4.97517 3.22778 4.94671C3.25826 4.91825 3.27351 4.87337 3.27351 4.81207C3.27351 4.74561 3.2568 4.69605 3.22339 4.66339C3.19656 4.63741 3.15949 4.62443 3.11217 4.62443Z" fill="white"/>
<path d="M3.89288 5.00085H3.76044L3.59252 4.81923C3.58008 4.81961 3.56996 4.8198 3.56216 4.8198C3.55899 4.8198 3.55557 4.8198 3.55191 4.8198C3.54825 4.81961 3.54447 4.81942 3.54057 4.81923V4.9321C3.54057 4.95655 3.54399 4.97173 3.55082 4.97765C3.56008 4.98605 3.57399 4.99025 3.59252 4.99025H3.61191V5.00085H3.39936V4.99025H3.41802C3.43899 4.99025 3.45399 4.98491 3.46301 4.97421C3.46814 4.96829 3.4707 4.95425 3.4707 4.9321V4.68115C3.4707 4.6567 3.46728 4.64152 3.46045 4.6356C3.45094 4.6272 3.4368 4.623 3.41802 4.623H3.39936V4.6124H3.58008C3.63276 4.6124 3.67154 4.61545 3.69642 4.62156C3.72154 4.62748 3.74276 4.63856 3.76008 4.65479C3.77764 4.67084 3.78642 4.69003 3.78642 4.71238C3.78642 4.73625 3.77642 4.75697 3.75642 4.77454C3.73666 4.79211 3.70593 4.80452 3.66423 4.81178L3.76666 4.92322C3.79008 4.94881 3.8102 4.96581 3.82703 4.97421C3.84385 4.98261 3.86581 4.98796 3.89288 4.99025V5.00085ZM3.54057 4.80118C3.54521 4.80118 3.54923 4.80128 3.55265 4.80147C3.55606 4.80147 3.55886 4.80147 3.56106 4.80147C3.60837 4.80147 3.64398 4.79345 3.66789 4.7774C3.69203 4.76136 3.7041 4.74093 3.7041 4.7161C3.7041 4.69184 3.69435 4.67217 3.67484 4.65709C3.65557 4.64181 3.62996 4.63417 3.59801 4.63417C3.58386 4.63417 3.56472 4.63598 3.54057 4.63961V4.80118Z" fill="white"/>
<path d="M4.27445 4.6124L4.27994 4.70349H4.26604C4.26335 4.68745 4.25969 4.67599 4.25506 4.66912C4.2475 4.65804 4.23738 4.64992 4.2247 4.64477C4.21226 4.63942 4.19579 4.63675 4.17531 4.63675H4.10543V4.93353C4.10543 4.95741 4.10872 4.9723 4.11531 4.97822C4.12458 4.98624 4.13884 4.99025 4.15811 4.99025H4.17531V5.00085H3.96495V4.99025H3.98251C4.00348 4.99025 4.01836 4.98529 4.02714 4.97536C4.03251 4.96925 4.03519 4.9553 4.03519 4.93353V4.63675H3.97556C3.95239 4.63675 3.93592 4.63808 3.92617 4.64076C3.91349 4.64439 3.90263 4.65136 3.89361 4.66167C3.88459 4.67198 3.87922 4.68592 3.87751 4.70349H3.86361L3.86946 4.6124H4.27445Z" fill="white"/>
<path d="M4.58176 4.87079H4.38969L4.35603 4.9321C4.34774 4.94719 4.34359 4.95846 4.34359 4.9659C4.34359 4.97182 4.34713 4.97708 4.3542 4.98166C4.36152 4.98605 4.37713 4.98892 4.40103 4.99025V5.00085H4.24482V4.99025C4.26555 4.98739 4.27896 4.98367 4.28506 4.97908C4.2975 4.96991 4.31128 4.95129 4.3264 4.92322L4.50091 4.60352H4.51371L4.68639 4.92666C4.70029 4.95263 4.71285 4.96953 4.72407 4.97736C4.73553 4.985 4.75139 4.9893 4.77163 4.99025V5.00085H4.5759V4.99025C4.59566 4.98949 4.60895 4.98691 4.61578 4.98252C4.62285 4.97813 4.62639 4.97278 4.62639 4.96648C4.62639 4.95807 4.62151 4.9448 4.61176 4.92666L4.58176 4.87079ZM4.57151 4.8496L4.48737 4.69261L4.40103 4.8496H4.57151Z" fill="white"/>
<path d="M5.23149 4.60352L5.24283 4.73558H5.23149C5.21637 4.69605 5.19478 4.66759 5.16674 4.65021C5.13869 4.63283 5.10503 4.62414 5.06576 4.62414C5.03284 4.62414 5.00308 4.63073 4.9765 4.64391C4.94992 4.6569 4.92894 4.67771 4.91357 4.70636C4.89845 4.73501 4.89089 4.77062 4.89089 4.81321C4.89089 4.84835 4.89809 4.87882 4.91248 4.9046C4.92687 4.93038 4.94845 4.95015 4.97723 4.9639C5.00625 4.97765 5.0393 4.98452 5.07637 4.98452C5.10857 4.98452 5.13698 4.97918 5.16162 4.96848C5.18625 4.9576 5.21332 4.93611 5.24283 4.90403L5.25417 4.90976C5.2293 4.94432 5.20027 4.96963 5.1671 4.98567C5.13393 5.00171 5.09454 5.00973 5.04894 5.00973C4.96674 5.00973 4.90309 4.98586 4.85797 4.93812C4.82431 4.90259 4.80748 4.86077 4.80748 4.81264C4.80748 4.77387 4.81858 4.73825 4.84077 4.70579C4.86297 4.67332 4.89345 4.64821 4.93223 4.63044C4.97126 4.61249 5.01382 4.60352 5.05991 4.60352C5.09576 4.60352 5.13113 4.61039 5.16601 4.62414C5.17625 4.62834 5.18357 4.63044 5.18796 4.63044C5.19454 4.63044 5.20027 4.62863 5.20515 4.625C5.21149 4.61984 5.216 4.61268 5.21869 4.60352H5.23149Z" fill="white"/>
<path d="M5.51136 4.99025V5.00085H5.29881V4.99025H5.31637C5.33685 4.99025 5.35173 4.98558 5.361 4.97622C5.36685 4.97011 5.36978 4.9554 5.36978 4.9321V4.68115C5.36978 4.66148 5.36819 4.64849 5.36502 4.64219C5.36258 4.63741 5.35758 4.63331 5.35002 4.62987C5.33929 4.62529 5.32807 4.623 5.31637 4.623H5.29881V4.6124H5.51136V4.623H5.49343C5.47319 4.623 5.45843 4.62767 5.44917 4.63703C5.44307 4.64314 5.44002 4.65785 5.44002 4.68115V4.9321C5.44002 4.95177 5.44161 4.96476 5.44478 4.97106C5.44722 4.97584 5.45234 4.97994 5.46014 4.98338C5.47063 4.98796 5.48173 4.99025 5.49343 4.99025H5.51136Z" fill="white"/>
<path d="M5.80367 4.60352C5.86806 4.60352 5.92379 4.62271 5.97086 4.6611C6.01817 4.69929 6.04183 4.74704 6.04183 4.80433C6.04183 4.86335 6.01805 4.91233 5.97049 4.95129C5.92293 4.99025 5.86537 5.00973 5.79781 5.00973C5.72952 5.00973 5.67209 4.99073 5.6255 4.95273C5.57916 4.91472 5.55599 4.86554 5.55599 4.80519C5.55599 4.74351 5.58282 4.69318 5.63648 4.65422C5.68306 4.62042 5.73879 4.60352 5.80367 4.60352ZM5.79672 4.62443C5.75233 4.62443 5.71672 4.63732 5.68989 4.6631C5.65648 4.69519 5.63977 4.74217 5.63977 4.80405C5.63977 4.86745 5.65709 4.91625 5.69172 4.95043C5.7183 4.97641 5.75342 4.98939 5.79708 4.98939C5.84367 4.98939 5.88208 4.97517 5.91232 4.94671C5.94281 4.91825 5.95805 4.87337 5.95805 4.81207C5.95805 4.74561 5.94135 4.69605 5.90793 4.66339C5.8811 4.63741 5.84403 4.62443 5.79672 4.62443Z" fill="white"/>
<path d="M6.06122 4.6124H6.19585L6.49913 4.90374V4.67972C6.49913 4.65584 6.49572 4.64095 6.48889 4.63503C6.47986 4.62701 6.4656 4.623 6.44608 4.623H6.42889V4.6124H6.60157V4.623H6.58401C6.56303 4.623 6.54815 4.62796 6.53937 4.63789C6.53401 4.644 6.53133 4.65795 6.53133 4.67972V5.00716H6.51816L6.19109 4.69433V4.93353C6.19109 4.95741 6.19439 4.9723 6.20097 4.97822C6.21024 4.98624 6.22451 4.99025 6.24377 4.99025H6.26133V5.00085H6.08866V4.99025H6.10585C6.12707 4.99025 6.14207 4.98529 6.15085 4.97536C6.15622 4.96925 6.1589 4.9553 6.1589 4.93353V4.66339C6.14451 4.65021 6.13353 4.64152 6.12597 4.63732C6.11866 4.63312 6.1078 4.6292 6.09341 4.62557C6.08634 4.62386 6.07561 4.623 6.06122 4.623V4.6124Z" fill="white"/>
<path d="M6.76912 4.6336V4.78714H6.87814C6.90644 4.78714 6.92534 4.7838 6.93485 4.77712C6.94753 4.76833 6.9546 4.75286 6.95607 4.73071H6.9696V4.86592H6.95607C6.95265 4.84702 6.94924 4.83489 6.94582 4.82954C6.94143 4.82286 6.93424 4.81761 6.92424 4.81379C6.91424 4.80997 6.89887 4.80806 6.87814 4.80806H6.76912V4.93611C6.76912 4.9533 6.7701 4.9638 6.77205 4.96762C6.774 4.97125 6.77742 4.97421 6.78229 4.9765C6.78717 4.9786 6.79644 4.97965 6.8101 4.97965H6.89424C6.92229 4.97965 6.94265 4.97813 6.95534 4.97507C6.96802 4.97202 6.98021 4.966 6.99192 4.95702C7.00704 4.94518 7.02253 4.92733 7.03838 4.90345H7.05302L7.01021 5.00085H6.62791V4.99025H6.64547C6.65718 4.99025 6.66827 4.98806 6.67876 4.98367C6.68656 4.98061 6.69181 4.97603 6.69449 4.96991C6.69742 4.9638 6.69888 4.95129 6.69888 4.93239V4.68C6.69888 4.65537 6.69571 4.64018 6.68937 4.63445C6.68059 4.62682 6.66596 4.623 6.64547 4.623H6.62791V4.6124H7.01021L7.0157 4.69748H7.00143C6.99631 4.67704 6.99058 4.66301 6.98424 4.65537C6.97814 4.64773 6.96899 4.6419 6.9568 4.63789C6.94704 4.63503 6.92985 4.6336 6.90522 4.6336H6.76912Z" fill="white"/>
<path d="M7.4141 4.60352V4.73787H7.40056C7.39617 4.71209 7.38825 4.69156 7.37678 4.67628C7.36557 4.661 7.34947 4.64887 7.32849 4.6399C7.30752 4.63092 7.28581 4.62643 7.26337 4.62643C7.23801 4.62643 7.21703 4.63254 7.20045 4.64477C7.18386 4.6568 7.17557 4.67055 7.17557 4.68602C7.17557 4.69786 7.18082 4.70865 7.1913 4.71839C7.20642 4.73271 7.2424 4.75181 7.29923 4.77569C7.34557 4.79517 7.37715 4.81016 7.39398 4.82066C7.41105 4.83098 7.4241 4.8432 7.43312 4.85733C7.44239 4.87146 7.44703 4.88626 7.44703 4.90173C7.44703 4.93115 7.43239 4.95655 7.40313 4.97794C7.3741 4.99913 7.33666 5.00973 7.29081 5.00973C7.27642 5.00973 7.26289 5.00888 7.2502 5.00716C7.24264 5.0062 7.22691 5.00276 7.20301 4.99684C7.17935 4.99073 7.16435 4.98768 7.15801 4.98768C7.15191 4.98768 7.14704 4.98911 7.14338 4.99197C7.13996 4.99484 7.1374 5.00076 7.1357 5.00973H7.12216V4.87652H7.1357C7.14204 4.90441 7.15057 4.92532 7.1613 4.93926C7.17204 4.95301 7.18838 4.96447 7.21033 4.97364C7.23252 4.98281 7.25679 4.98739 7.28313 4.98739C7.31362 4.98739 7.33764 4.98109 7.3552 4.96848C7.373 4.95588 7.38191 4.94098 7.38191 4.92379C7.38191 4.91424 7.37849 4.9046 7.37166 4.89486C7.36508 4.88512 7.35471 4.87605 7.34057 4.86764C7.33105 4.86191 7.30508 4.84979 7.26264 4.83126C7.2202 4.81255 7.18996 4.79765 7.17191 4.78657C7.15411 4.77549 7.14057 4.76327 7.13131 4.7499C7.12204 4.73653 7.1174 4.72183 7.1174 4.70579C7.1174 4.6779 7.13106 4.65393 7.15838 4.63388C7.18569 4.61364 7.22045 4.60352 7.26264 4.60352C7.28898 4.60352 7.31691 4.60858 7.34642 4.6187C7.36008 4.62347 7.36971 4.62586 7.37532 4.62586C7.38166 4.62586 7.38678 4.62443 7.39069 4.62156C7.39483 4.61851 7.39813 4.61249 7.40056 4.60352H7.4141Z" fill="white"/>
<path d="M8.0042 4.6124H8.17725V4.623H8.16773C8.16139 4.623 8.15212 4.62519 8.13993 4.62958C8.12774 4.63398 8.11664 4.64028 8.10664 4.64849C8.09664 4.6567 8.08432 4.67007 8.06969 4.6886L7.95006 4.83613V4.93353C7.95006 4.95741 7.95347 4.9723 7.9603 4.97822C7.96957 4.98624 7.9842 4.99025 8.0042 4.99025H8.0203V5.00085H7.80958V4.99025H7.82714C7.84811 4.99025 7.86299 4.98529 7.87177 4.97536C7.87713 4.96925 7.87982 4.9553 7.87982 4.93353V4.84157L7.74372 4.67886C7.72763 4.65976 7.71665 4.64782 7.7108 4.64305C7.70519 4.63827 7.69336 4.63254 7.67531 4.62586C7.67043 4.62395 7.66336 4.623 7.65409 4.623V4.6124H7.86628V4.623H7.85531C7.84384 4.623 7.83323 4.6251 7.82348 4.6293C7.81397 4.6335 7.80921 4.6398 7.80921 4.64821C7.80921 4.65508 7.81665 4.66749 7.83153 4.68545L7.93506 4.81064L8.03237 4.69089C8.04701 4.67294 8.05432 4.65957 8.05432 4.65078C8.05432 4.64544 8.05249 4.64066 8.04884 4.63646C8.04542 4.63226 8.04042 4.62901 8.03384 4.62672C8.02725 4.62424 8.01737 4.623 8.0042 4.623V4.6124Z" fill="white"/>
<path d="M8.3609 5.00085V4.99025H8.37956C8.40053 4.99025 8.41541 4.985 8.42419 4.9745C8.42955 4.9682 8.43224 4.95406 8.43224 4.9321V4.68115C8.43224 4.6569 8.42882 4.64171 8.42199 4.6356C8.41248 4.6272 8.39834 4.623 8.37956 4.623H8.3609V4.6124H8.56284C8.63699 4.6124 8.69333 4.61899 8.73186 4.63216C8.77064 4.64534 8.80174 4.6673 8.82515 4.69805C8.84881 4.7288 8.86064 4.76432 8.86064 4.80462C8.86064 4.85867 8.83966 4.90383 8.79771 4.94012C8.75064 4.98061 8.67894 5.00085 8.5826 5.00085H8.3609ZM8.50248 4.97278C8.53345 4.97813 8.55943 4.9808 8.5804 4.9808C8.63699 4.9808 8.68394 4.96524 8.72125 4.93411C8.75857 4.90298 8.77723 4.86077 8.77723 4.80748C8.77723 4.75382 8.75857 4.71152 8.72125 4.68058C8.68394 4.64964 8.63601 4.63417 8.57748 4.63417C8.55553 4.63417 8.53053 4.63694 8.50248 4.64248V4.97278Z" fill="white"/>
<path d="M9.12075 4.99025V5.00085H8.9082V4.99025H8.92576C8.94624 4.99025 8.96112 4.98558 8.97039 4.97622C8.97624 4.97011 8.97917 4.9554 8.97917 4.9321V4.68115C8.97917 4.66148 8.97759 4.64849 8.97441 4.64219C8.97198 4.63741 8.96698 4.63331 8.95942 4.62987C8.94868 4.62529 8.93746 4.623 8.92576 4.623H8.9082V4.6124H9.12075V4.623H9.10282C9.08258 4.623 9.06783 4.62767 9.05856 4.63703C9.05246 4.64314 9.04941 4.65785 9.04941 4.68115V4.9321C9.04941 4.95177 9.051 4.96476 9.05417 4.97106C9.05661 4.97584 9.06173 4.97994 9.06953 4.98338C9.08002 4.98796 9.09112 4.99025 9.10282 4.99025H9.12075Z" fill="white"/>
<path d="M9.48257 4.60352V4.73787H9.46903C9.46464 4.71209 9.45672 4.69156 9.44525 4.67628C9.43403 4.661 9.41794 4.64887 9.39696 4.6399C9.37599 4.63092 9.35428 4.62643 9.33184 4.62643C9.30648 4.62643 9.2855 4.63254 9.26892 4.64477C9.25233 4.6568 9.24404 4.67055 9.24404 4.68602C9.24404 4.69786 9.24928 4.70865 9.25977 4.71839C9.27489 4.73271 9.31087 4.75181 9.36769 4.77569C9.41403 4.79517 9.44562 4.81016 9.46245 4.82066C9.47952 4.83098 9.49257 4.8432 9.50159 4.85733C9.51086 4.87146 9.51549 4.88626 9.51549 4.90173C9.51549 4.93115 9.50086 4.95655 9.47159 4.97794C9.44257 4.99913 9.40513 5.00973 9.35928 5.00973C9.34489 5.00973 9.33135 5.00888 9.31867 5.00716C9.31111 5.0062 9.29538 5.00276 9.27148 4.99684C9.24782 4.99073 9.23282 4.98768 9.22648 4.98768C9.22038 4.98768 9.2155 4.98911 9.21185 4.99197C9.20843 4.99484 9.20587 5.00076 9.20416 5.00973H9.19063V4.87652H9.20416C9.2105 4.90441 9.21904 4.92532 9.22977 4.93926C9.2405 4.95301 9.25684 4.96447 9.27879 4.97364C9.30099 4.98281 9.32526 4.98739 9.3516 4.98739C9.38208 4.98739 9.40611 4.98109 9.42367 4.96848C9.44147 4.95588 9.45037 4.94098 9.45037 4.92379C9.45037 4.91424 9.44696 4.9046 9.44013 4.89486C9.43355 4.88512 9.42318 4.87605 9.40903 4.86764C9.39952 4.86191 9.37355 4.84979 9.33111 4.83126C9.28867 4.81255 9.25843 4.79765 9.24038 4.78657C9.22258 4.77549 9.20904 4.76327 9.19977 4.7499C9.1905 4.73653 9.18587 4.72183 9.18587 4.70579C9.18587 4.6779 9.19953 4.65393 9.22684 4.63388C9.25416 4.61364 9.28892 4.60352 9.33111 4.60352C9.35745 4.60352 9.38538 4.60858 9.41489 4.6187C9.42855 4.62347 9.43818 4.62586 9.44379 4.62586C9.45013 4.62586 9.45525 4.62443 9.45915 4.62156C9.4633 4.61851 9.46659 4.61249 9.46903 4.60352H9.48257Z" fill="white"/>
<path d="M9.98962 4.6124L9.99511 4.70349H9.98121C9.97853 4.68745 9.97487 4.67599 9.97024 4.66912C9.96267 4.65804 9.95255 4.64992 9.93987 4.64477C9.92743 4.63942 9.91097 4.63675 9.89048 4.63675H9.82061V4.93353C9.82061 4.95741 9.8239 4.9723 9.83048 4.97822C9.83975 4.98624 9.85402 4.99025 9.87329 4.99025H9.89048V5.00085H9.68012V4.99025H9.69768C9.71866 4.99025 9.73354 4.98529 9.74232 4.97536C9.74768 4.96925 9.75036 4.9553 9.75036 4.93353V4.63675H9.69073C9.66756 4.63675 9.6511 4.63808 9.64134 4.64076C9.62866 4.64439 9.61781 4.65136 9.60878 4.66167C9.59976 4.67198 9.59439 4.68592 9.59269 4.70349H9.57878L9.58464 4.6124H9.98962Z" fill="white"/>
<path d="M10.5205 5.00085H10.388L10.2201 4.81923C10.2077 4.81961 10.1975 4.8198 10.1897 4.8198C10.1866 4.8198 10.1832 4.8198 10.1795 4.8198C10.1758 4.81961 10.1721 4.81942 10.1682 4.81923V4.9321C10.1682 4.95655 10.1716 4.97173 10.1784 4.97765C10.1877 4.98605 10.2016 4.99025 10.2201 4.99025H10.2395V5.00085H10.0269V4.99025H10.0456C10.0666 4.99025 10.0816 4.98491 10.0906 4.97421C10.0957 4.96829 10.0983 4.95425 10.0983 4.9321V4.68115C10.0983 4.6567 10.0949 4.64152 10.088 4.6356C10.0785 4.6272 10.0644 4.623 10.0456 4.623H10.0269V4.6124H10.2077C10.2603 4.6124 10.2991 4.61545 10.324 4.62156C10.3491 4.62748 10.3703 4.63856 10.3877 4.65479C10.4052 4.67084 10.414 4.69003 10.414 4.71238C10.414 4.73625 10.404 4.75697 10.384 4.77454C10.3642 4.79211 10.3335 4.80452 10.2918 4.81178L10.3942 4.92322C10.4177 4.94881 10.4378 4.96581 10.4546 4.97421C10.4714 4.98261 10.4934 4.98796 10.5205 4.99025V5.00085ZM10.1682 4.80118C10.1728 4.80118 10.1768 4.80128 10.1802 4.80147C10.1836 4.80147 10.1864 4.80147 10.1886 4.80147C10.236 4.80147 10.2716 4.79345 10.2955 4.7774C10.3196 4.76136 10.3317 4.74093 10.3317 4.7161C10.3317 4.69184 10.3219 4.67217 10.3024 4.65709C10.2832 4.64181 10.2575 4.63417 10.2256 4.63417C10.2114 4.63417 10.1923 4.63598 10.1682 4.63961V4.80118Z" fill="white"/>
<path d="M10.7451 4.99025V5.00085H10.5325V4.99025H10.5501C10.5706 4.99025 10.5855 4.98558 10.5947 4.97622C10.6006 4.97011 10.6035 4.9554 10.6035 4.9321V4.68115C10.6035 4.66148 10.6019 4.64849 10.5988 4.64219C10.5963 4.63741 10.5913 4.63331 10.5838 4.62987C10.573 4.62529 10.5618 4.623 10.5501 4.623H10.5325V4.6124H10.7451V4.623H10.7272C10.7069 4.623 10.6922 4.62767 10.6829 4.63703C10.6768 4.64314 10.6737 4.65785 10.6737 4.68115V4.9321C10.6737 4.95177 10.6753 4.96476 10.6785 4.97106C10.6809 4.97584 10.6861 4.97994 10.6939 4.98338C10.7044 4.98796 10.7155 4.99025 10.7272 4.99025H10.7451Z" fill="white"/>
<path d="M11.1095 4.80261C11.1439 4.80834 11.1696 4.81751 11.1867 4.83012C11.2103 4.84769 11.2221 4.86917 11.2221 4.89457C11.2221 4.91386 11.2143 4.93239 11.1987 4.95015C11.1831 4.96772 11.1617 4.98061 11.1343 4.98882C11.1073 4.99684 11.0658 5.00085 11.01 5.00085H10.7758V4.99025H10.7945C10.8152 4.99025 10.8301 4.9851 10.8391 4.97478C10.8447 4.9681 10.8475 4.95387 10.8475 4.9321V4.68115C10.8475 4.65709 10.844 4.6419 10.8369 4.6356C10.8274 4.6272 10.8133 4.623 10.7945 4.623H10.7758V4.6124H10.9902C11.0302 4.6124 11.0623 4.61469 11.0864 4.61927C11.123 4.62615 11.1509 4.63837 11.1702 4.65594C11.1895 4.67332 11.1991 4.69337 11.1991 4.7161C11.1991 4.73558 11.1915 4.75305 11.1764 4.76852C11.1613 4.7838 11.139 4.79517 11.1095 4.80261ZM10.9178 4.78714C10.9268 4.78848 10.937 4.78953 10.9485 4.7903C10.9602 4.79087 10.973 4.79116 10.9869 4.79116C11.0225 4.79116 11.0492 4.7882 11.067 4.78227C11.0851 4.77616 11.0989 4.7669 11.1084 4.75449C11.1179 4.74207 11.1226 4.72851 11.1226 4.71381C11.1226 4.69108 11.1108 4.6717 11.0871 4.65565C11.0635 4.63961 11.029 4.63159 10.9836 4.63159C10.9592 4.63159 10.9373 4.63369 10.9178 4.63789V4.78714ZM10.9178 4.97278C10.9461 4.97794 10.974 4.98051 11.0015 4.98051C11.0457 4.98051 11.0793 4.97278 11.1025 4.95731C11.1257 4.94165 11.1373 4.92236 11.1373 4.89944C11.1373 4.88435 11.132 4.86984 11.1215 4.8559C11.1111 4.84196 11.094 4.83098 11.0703 4.82295C11.0467 4.81493 11.0174 4.81092 10.9825 4.81092C10.9674 4.81092 10.9545 4.81111 10.9437 4.8115C10.933 4.81188 10.9243 4.81255 10.9178 4.8135V4.97278Z" fill="white"/>
<path d="M11.6205 4.623V4.6124H11.7961V4.623H11.7775C11.758 4.623 11.743 4.62939 11.7325 4.64219C11.7274 4.64811 11.7248 4.66186 11.7248 4.68344V4.841C11.7248 4.87996 11.7198 4.91023 11.7098 4.93181C11.7001 4.9532 11.6807 4.97163 11.6516 4.9871C11.6229 5.00238 11.5836 5.01002 11.5338 5.01002C11.4797 5.01002 11.4386 5.00267 11.4106 4.98796C11.3825 4.97326 11.3626 4.95349 11.3509 4.92866C11.3431 4.91167 11.3392 4.87977 11.3392 4.83298V4.68115C11.3392 4.65728 11.3349 4.64162 11.3264 4.63417C11.3181 4.62672 11.3046 4.623 11.2858 4.623H11.2671V4.6124H11.4815V4.623H11.4625C11.442 4.623 11.4274 4.62806 11.4186 4.63818C11.4125 4.64505 11.4095 4.65938 11.4095 4.68115V4.85046C11.4095 4.86554 11.4112 4.88283 11.4146 4.90231C11.4182 4.92179 11.4247 4.93697 11.434 4.94786C11.4432 4.95874 11.4565 4.96772 11.4738 4.97478C11.4914 4.98185 11.5129 4.98538 11.5382 4.98538C11.5707 4.98538 11.5997 4.97985 11.6253 4.96877C11.6509 4.95769 11.6683 4.94356 11.6776 4.92637C11.6871 4.90899 11.6919 4.87968 11.6919 4.83842V4.68115C11.6919 4.6569 11.6885 4.64171 11.6816 4.6356C11.6721 4.6272 11.658 4.623 11.6392 4.623H11.6205Z" fill="white"/>
<path d="M12.2556 4.60352L12.267 4.73558H12.2556C12.2405 4.69605 12.2189 4.66759 12.1909 4.65021C12.1628 4.63283 12.1292 4.62414 12.0899 4.62414C12.057 4.62414 12.0272 4.63073 12.0007 4.64391C11.9741 4.6569 11.9531 4.67771 11.9377 4.70636C11.9226 4.73501 11.915 4.77062 11.915 4.81321C11.915 4.84835 11.9222 4.87882 11.9366 4.9046C11.951 4.93038 11.9726 4.95015 12.0014 4.9639C12.0304 4.97765 12.0635 4.98452 12.1005 4.98452C12.1327 4.98452 12.1611 4.97918 12.1858 4.96848C12.2104 4.9576 12.2375 4.93611 12.267 4.90403L12.2783 4.90976C12.2535 4.94432 12.2244 4.96963 12.1913 4.98567C12.1581 5.00171 12.1187 5.00973 12.0731 5.00973C11.9909 5.00973 11.9272 4.98586 11.8821 4.93812C11.8485 4.90259 11.8316 4.86077 11.8316 4.81264C11.8316 4.77387 11.8427 4.73825 11.8649 4.70579C11.8871 4.67332 11.9176 4.64821 11.9564 4.63044C11.9954 4.61249 12.038 4.60352 12.0841 4.60352C12.1199 4.60352 12.1553 4.61039 12.1902 4.62414C12.2004 4.62834 12.2077 4.63044 12.2121 4.63044C12.2187 4.63044 12.2244 4.62863 12.2293 4.625C12.2356 4.61984 12.2402 4.61268 12.2428 4.60352H12.2556Z" fill="white"/>
<path d="M12.5355 4.99025V5.00085H12.323V4.99025H12.3405C12.361 4.99025 12.3759 4.98558 12.3852 4.97622C12.391 4.97011 12.3939 4.9554 12.3939 4.9321V4.68115C12.3939 4.66148 12.3923 4.64849 12.3892 4.64219C12.3867 4.63741 12.3817 4.63331 12.3742 4.62987C12.3634 4.62529 12.3522 4.623 12.3405 4.623H12.323V4.6124H12.5355V4.623H12.5176C12.4973 4.623 12.4826 4.62767 12.4733 4.63703C12.4672 4.64314 12.4642 4.65785 12.4642 4.68115V4.9321C12.4642 4.95177 12.4658 4.96476 12.4689 4.97106C12.4714 4.97584 12.4765 4.97994 12.4843 4.98338C12.4948 4.98796 12.5059 4.99025 12.5176 4.99025H12.5355Z" fill="white"/>
<path d="M12.8278 4.60352C12.8922 4.60352 12.9479 4.62271 12.995 4.6611C13.0423 4.69929 13.066 4.74704 13.066 4.80433C13.066 4.86335 13.0422 4.91233 12.9946 4.95129C12.9471 4.99025 12.8895 5.00973 12.822 5.00973C12.7537 5.00973 12.6962 4.99073 12.6497 4.95273C12.6033 4.91472 12.5801 4.86554 12.5801 4.80519C12.5801 4.74351 12.607 4.69318 12.6606 4.65422C12.7072 4.62042 12.7629 4.60352 12.8278 4.60352ZM12.8209 4.62443C12.7765 4.62443 12.7409 4.63732 12.714 4.6631C12.6806 4.69519 12.6639 4.74217 12.6639 4.80405C12.6639 4.86745 12.6812 4.91625 12.7159 4.95043C12.7425 4.97641 12.7776 4.98939 12.8212 4.98939C12.8678 4.98939 12.9062 4.97517 12.9365 4.94671C12.967 4.91825 12.9822 4.87337 12.9822 4.81207C12.9822 4.74561 12.9655 4.69605 12.9321 4.66339C12.9053 4.63741 12.8682 4.62443 12.8209 4.62443Z" fill="white"/>
<path d="M13.0854 4.6124H13.22L13.5233 4.90374V4.67972C13.5233 4.65584 13.5199 4.64095 13.513 4.63503C13.504 4.62701 13.4898 4.623 13.4702 4.623H13.453V4.6124H13.6257V4.623H13.6082C13.5872 4.623 13.5723 4.62796 13.5635 4.63789C13.5582 4.644 13.5555 4.65795 13.5555 4.67972V5.00716H13.5423L13.2152 4.69433V4.93353C13.2152 4.95741 13.2185 4.9723 13.2251 4.97822C13.2344 4.98624 13.2487 4.99025 13.2679 4.99025H13.2855V5.00085H13.1128V4.99025H13.13C13.1512 4.99025 13.1662 4.98529 13.175 4.97536C13.1804 4.96925 13.1831 4.9553 13.1831 4.93353V4.66339C13.1687 4.65021 13.1577 4.64152 13.1501 4.63732C13.1428 4.63312 13.132 4.6292 13.1176 4.62557C13.1105 4.62386 13.0998 4.623 13.0854 4.623V4.6124Z" fill="white"/>
<path d="M13.7933 4.6336V4.78714H13.9023C13.9306 4.78714 13.9495 4.7838 13.959 4.77712C13.9717 4.76833 13.9788 4.75286 13.9802 4.73071H13.9938V4.86592H13.9802C13.9768 4.84702 13.9734 4.83489 13.97 4.82954C13.9656 4.82286 13.9584 4.81761 13.9484 4.81379C13.9384 4.80997 13.923 4.80806 13.9023 4.80806H13.7933V4.93611C13.7933 4.9533 13.7943 4.9638 13.7962 4.96762C13.7982 4.97125 13.8016 4.97421 13.8064 4.9765C13.8113 4.9786 13.8206 4.97965 13.8343 4.97965H13.9184C13.9464 4.97965 13.9668 4.97813 13.9795 4.97507C13.9922 4.97202 14.0044 4.966 14.0161 4.95702C14.0312 4.94518 14.0467 4.92733 14.0625 4.90345H14.0772L14.0344 5.00085H13.6521V4.99025H13.6696C13.6813 4.99025 13.6924 4.98806 13.7029 4.98367C13.7107 4.98061 13.716 4.97603 13.7186 4.96991C13.7216 4.9638 13.723 4.95129 13.723 4.93239V4.68C13.723 4.65537 13.7199 4.64018 13.7135 4.63445C13.7047 4.62682 13.6901 4.623 13.6696 4.623H13.6521V4.6124H14.0344L14.0399 4.69748H14.0256C14.0205 4.67704 14.0147 4.66301 14.0084 4.65537C14.0023 4.64773 13.9931 4.6419 13.981 4.63789C13.9712 4.63503 13.954 4.6336 13.9294 4.6336H13.7933Z" fill="white"/>
<path d="M14.4383 4.60352V4.73787H14.4247C14.4203 4.71209 14.4124 4.69156 14.4009 4.67628C14.3897 4.661 14.3736 4.64887 14.3526 4.6399C14.3317 4.63092 14.31 4.62643 14.2875 4.62643C14.2622 4.62643 14.2412 4.63254 14.2246 4.64477C14.208 4.6568 14.1997 4.67055 14.1997 4.68602C14.1997 4.69786 14.205 4.70865 14.2155 4.71839C14.2306 4.73271 14.2666 4.75181 14.3234 4.77569C14.3697 4.79517 14.4013 4.81016 14.4181 4.82066C14.4352 4.83098 14.4483 4.8432 14.4573 4.85733C14.4665 4.87146 14.4712 4.88626 14.4712 4.90173C14.4712 4.93115 14.4565 4.95655 14.4273 4.97794C14.3983 4.99913 14.3608 5.00973 14.315 5.00973C14.3006 5.00973 14.287 5.00888 14.2744 5.00716C14.2668 5.0062 14.2511 5.00276 14.2272 4.99684C14.2035 4.99073 14.1885 4.98768 14.1822 4.98768C14.1761 4.98768 14.1712 4.98911 14.1675 4.99197C14.1641 4.99484 14.1616 5.00076 14.1599 5.00973H14.1463V4.87652H14.1599C14.1662 4.90441 14.1747 4.92532 14.1855 4.93926C14.1962 4.95301 14.2125 4.96447 14.2345 4.97364C14.2567 4.98281 14.2809 4.98739 14.3073 4.98739C14.3378 4.98739 14.3618 4.98109 14.3794 4.96848C14.3972 4.95588 14.4061 4.94098 14.4061 4.92379C14.4061 4.91424 14.4026 4.9046 14.3958 4.89486C14.3892 4.88512 14.3789 4.87605 14.3647 4.86764C14.3552 4.86191 14.3292 4.84979 14.2868 4.83126C14.2444 4.81255 14.2141 4.79765 14.1961 4.78657C14.1783 4.77549 14.1647 4.76327 14.1555 4.7499C14.1462 4.73653 14.1416 4.72183 14.1416 4.70579C14.1416 4.6779 14.1552 4.65393 14.1825 4.63388C14.2098 4.61364 14.2446 4.60352 14.2868 4.60352C14.3131 4.60352 14.3411 4.60858 14.3706 4.6187C14.3842 4.62347 14.3939 4.62586 14.3995 4.62586C14.4058 4.62586 14.4109 4.62443 14.4148 4.62156C14.419 4.61851 14.4223 4.61249 14.4247 4.60352H14.4383Z" fill="white"/>
<defs>
<linearGradient id="paint0_linear_2_13" x1="1.34748" y1="3.95506" x2="1.34748" y2="1.01917" gradientUnits="userSpaceOnUse">
<stop stop-color="#1F1138"/>
<stop offset="0.04" stop-color="#24163C"/>
<stop offset="0.1" stop-color="#332447"/>
<stop offset="0.16" stop-color="#4B3C58"/>
<stop offset="0.22" stop-color="#6D5D72"/>
<stop offset="0.28" stop-color="#988791"/>
<stop offset="0.3" stop-color="#A5949B"/>
<stop offset="0.31" stop-color="#AFA0A7"/>
<stop offset="0.37" stop-color="#D2C9CD"/>
<stop offset="0.42" stop-color="#EAE7E8"/>
<stop offset="0.46" stop-color="#FAF9F9"/>
<stop offset="0.49" stop-color="white"/>
<stop offset="0.52" stop-color="#FAF9FA"/>
<stop offset="0.55" stop-color="#EDE9EB"/>
<stop offset="0.59" stop-color="#D6CED2"/>
<stop offset="0.63" stop-color="#B7AAAF"/>
<stop offset="0.66" stop-color="#A5949B"/>
<stop offset="0.71" stop-color="#887886"/>
<stop offset="0.8" stop-color="#5B4C64"/>
<stop offset="0.88" stop-color="#3A2C4C"/>
<stop offset="0.95" stop-color="#26183D"/>
<stop offset="1" stop-color="#1F1138"/>
</linearGradient>
</defs>
</svg>
