<svg width="293" height="54" viewBox="0 0 293 54" fill="none" xmlns="http://www.w3.org/2000/svg">
<path d="M25.6944 52.999V33.2932L20.7556 33.2498V52.6515H1.48413V40.2858H5.03316V13.4137H1.48413V8.18322L8.3402 1.32715H20.7556V21.0329L25.6944 21.0826V1.68081H44.9659V14.0404H41.4169V40.9186H44.9659V46.1491L38.116 52.999H25.6944Z" fill="url(#paint0_linear_440_1188)"/>
<path d="M19.8235 2.26177V21.9613L26.6485 22.0234V2.62784H44.0586V13.1136H40.5095V41.847H44.0586V45.7683L37.7547 52.0722H26.6485V32.4099L19.8235 32.3416V51.7558H2.41338V41.2204H5.9624V12.4869H2.41338V8.57184L8.72344 2.26177H19.8235ZM21.6848 0.400391H7.94787L7.40807 0.946395L1.09801 7.25646L0.552002 7.79626V14.3483H4.10103V39.359H0.552002V53.5861H21.6848V34.1906H24.7871V53.9026H38.5241L39.0701 53.3628L45.3739 47.0527L45.9199 46.5067V39.9857H42.3709V14.975H45.9199V0.766461H24.7623V20.1434H21.66V0.400391H21.6848Z" fill="#E8DC00"/>
<path d="M243.227 20.3402H234.617V17.6976C234.617 16.4644 234.507 15.679 234.286 15.3413C234.066 15.0037 233.699 14.8348 233.185 14.8348C232.628 14.8348 232.202 15.0624 231.908 15.5175C231.629 15.9726 231.49 16.6626 231.49 17.5875C231.49 18.7766 231.651 19.6722 231.974 20.2741C232.283 20.876 233.156 21.6027 234.595 22.4542C238.72 24.9059 241.319 26.9172 242.39 28.488C243.462 30.0589 243.998 32.5913 243.998 36.0853C243.998 38.6251 243.697 40.4969 243.095 41.7008C242.508 42.9046 241.363 43.9176 239.66 44.7397C237.957 45.5471 235.975 45.9509 233.714 45.9509C231.233 45.9509 229.111 45.4811 227.35 44.5415C225.603 43.6019 224.458 42.4054 223.914 40.952C223.371 39.4986 223.1 37.436 223.1 34.7641V32.4298H231.71V36.768C231.71 38.104 231.827 38.9628 232.062 39.3445C232.312 39.7262 232.745 39.917 233.362 39.917C233.978 39.917 234.433 39.6748 234.727 39.1903C235.035 38.7059 235.189 37.9865 235.189 37.0323C235.189 34.9329 234.903 33.5602 234.331 32.9143C233.743 32.2683 232.297 31.1893 229.992 29.6772C227.687 28.1504 226.161 27.042 225.412 26.352C224.663 25.662 224.039 24.7077 223.54 23.4892C223.056 22.2707 222.813 20.7145 222.813 18.8207C222.813 16.0901 223.158 14.0935 223.848 12.8309C224.553 11.5684 225.684 10.5847 227.24 9.88006C228.796 9.1607 230.675 8.80102 232.877 8.80102C235.285 8.80102 237.333 9.19006 239.021 9.96814C240.724 10.7462 241.847 11.7298 242.39 12.919C242.948 14.0935 243.227 16.0974 243.227 18.9308V20.3402ZM252.586 37.9351V45.2021H245.87V37.9351H252.586ZM271.26 9.54974L276.567 45.2021H267.076L266.614 38.794H263.288L262.738 45.2021H253.137L257.849 9.54974H271.26ZM266.349 32.4739C265.88 28.4366 265.41 23.4525 264.94 17.5214C264 24.3333 263.413 29.3175 263.178 32.4739H266.349ZM284.957 37.9351V45.2021H278.241V37.9351H284.957Z" fill="#35284F"/>
<path d="M243.227 20.3402V21.0283H243.915V20.3402H243.227ZM234.617 20.3402H233.929V21.0283H234.617V20.3402ZM231.908 15.5175L231.33 15.1445L231.326 15.1511L231.322 15.1579L231.908 15.5175ZM231.974 20.2741L232.587 19.9603L232.581 19.9487L231.974 20.2741ZM234.595 22.4542L234.946 21.8627L234.945 21.862L234.595 22.4542ZM242.39 28.488L241.822 28.8758L242.39 28.488ZM243.095 41.7008L242.479 41.393L242.477 41.3991L243.095 41.7008ZM239.66 44.7397L239.954 45.3615L239.959 45.3594L239.66 44.7397ZM227.35 44.5415L227.024 45.1475L227.026 45.1487L227.35 44.5415ZM223.914 40.952L223.27 41.1929L223.914 40.952ZM223.1 32.4298V31.7417H222.412V32.4298H223.1ZM231.71 32.4298H232.398V31.7417H231.71V32.4298ZM232.062 39.3445L231.476 39.7051L231.481 39.7132L231.486 39.7211L232.062 39.3445ZM234.727 39.1903L234.146 38.8209L234.142 38.8273L234.138 38.8337L234.727 39.1903ZM234.331 32.9143L234.846 32.4578L234.84 32.4514L234.331 32.9143ZM229.992 29.6772L229.612 30.2508L229.615 30.2525L229.992 29.6772ZM223.54 23.4892L222.901 23.7434L222.903 23.75L223.54 23.4892ZM223.848 12.8309L223.248 12.4955L223.245 12.5009L223.848 12.8309ZM227.24 9.88006L227.524 10.5069L227.528 10.5047L227.24 9.88006ZM239.021 9.96814L238.733 10.5931L238.735 10.594L239.021 9.96814ZM242.39 12.919L241.764 13.2049L241.769 13.2142L242.39 12.919ZM243.227 19.652H234.617V21.0283H243.227V19.652ZM235.305 20.3402V17.6976H233.929V20.3402H235.305ZM235.305 17.6976C235.305 17.0645 235.277 16.5248 235.216 16.0881C235.158 15.6738 235.059 15.2666 234.863 14.9654L233.71 15.7172C233.734 15.7537 233.801 15.908 233.853 16.2792C233.902 16.6279 233.929 17.0975 233.929 17.6976H235.305ZM234.863 14.9654C234.481 14.3794 233.86 14.1467 233.185 14.1467V15.523C233.539 15.523 233.652 15.6279 233.71 15.7172L234.863 14.9654ZM233.185 14.1467C232.402 14.1467 231.755 14.4859 231.33 15.1445L232.486 15.8905C232.649 15.6389 232.853 15.523 233.185 15.523V14.1467ZM231.322 15.1579C230.944 15.7743 230.802 16.6172 230.802 17.5875H232.178C232.178 16.708 232.315 16.1709 232.495 15.8771L231.322 15.1579ZM230.802 17.5875C230.802 18.8174 230.965 19.8486 231.368 20.5994L232.581 19.9487C232.338 19.4957 232.178 18.7359 232.178 17.5875H230.802ZM231.362 20.5878C231.578 21.0091 231.954 21.4118 232.421 21.7995C232.895 22.1944 233.507 22.6098 234.244 23.0464L234.945 21.862C234.244 21.4471 233.7 21.0734 233.301 20.7416C232.893 20.4026 232.679 20.141 232.587 19.9604L231.362 20.5878ZM234.243 23.0457C236.292 24.2631 237.947 25.363 239.216 26.3456C240.494 27.3343 241.346 28.1779 241.822 28.8758L242.959 28.1002C242.363 27.2273 241.38 26.2798 240.059 25.2573C238.73 24.2286 237.023 23.097 234.946 21.8627L234.243 23.0457ZM241.822 28.8758C242.774 30.271 243.31 32.6297 243.31 36.0853H244.686C244.686 32.5529 244.15 29.8467 242.959 28.1002L241.822 28.8758ZM243.31 36.0853C243.31 38.597 243.008 40.3364 242.48 41.393L243.71 42.0085C244.386 40.6575 244.686 38.6533 244.686 36.0853H243.31ZM242.477 41.3991C241.98 42.4169 240.98 43.338 239.361 44.12L239.959 45.3594C241.745 44.4972 243.035 43.3923 243.713 42.0025L242.477 41.3991ZM239.365 44.1179C237.771 44.8738 235.893 45.2627 233.714 45.2627V46.639C236.057 46.639 238.143 46.2205 239.954 45.3615L239.365 44.1179ZM233.714 45.2627C231.319 45.2627 229.314 44.8094 227.674 43.9343L227.026 45.1487C228.909 46.1528 231.147 46.639 233.714 46.639V45.2627ZM227.676 43.9355C226.034 43.0523 225.029 41.9686 224.559 40.7111L223.27 41.1929C223.886 42.8423 225.172 44.1516 227.024 45.1475L227.676 43.9355ZM224.559 40.7111C224.058 39.3711 223.788 37.4043 223.788 34.7641H222.412C222.412 37.4677 222.684 39.6262 223.27 41.1929L224.559 40.7111ZM223.788 34.7641V32.4298H222.412V34.7641H223.788ZM223.1 33.1179H231.71V31.7417H223.1V33.1179ZM231.022 32.4298V36.768H232.398V32.4298H231.022ZM231.022 36.768C231.022 37.4524 231.052 38.0352 231.116 38.5073C231.178 38.9594 231.281 39.3878 231.476 39.7051L232.648 38.9839C232.609 38.9195 232.535 38.7276 232.48 38.3209C232.427 37.9341 232.398 37.4195 232.398 36.768H231.022ZM231.486 39.7211C231.906 40.3624 232.603 40.6052 233.362 40.6052V39.2289C232.887 39.2289 232.718 39.09 232.638 38.9679L231.486 39.7211ZM233.362 40.6052C234.193 40.6052 234.884 40.2583 235.315 39.547L234.138 38.8337C233.982 39.0914 233.763 39.2289 233.362 39.2289V40.6052ZM235.307 39.5598C235.718 38.9139 235.877 38.0398 235.877 37.0323H234.501C234.501 37.9332 234.352 38.4978 234.146 38.8209L235.307 39.5598ZM235.877 37.0323C235.877 35.9562 235.805 35.037 235.648 34.2878C235.494 33.5497 235.246 32.91 234.845 32.4579L233.816 33.3707C233.987 33.5645 234.169 33.9341 234.301 34.5687C234.431 35.1922 234.501 36.009 234.501 37.0323H235.877ZM234.84 32.4514C234.183 31.7293 232.659 30.6038 230.37 29.1018L229.615 30.2525C231.935 31.7748 233.303 32.8074 233.821 33.3772L234.84 32.4514ZM230.372 29.1035C228.063 27.5738 226.581 26.4934 225.878 25.8459L224.946 26.858C225.74 27.5905 227.312 28.7269 229.612 30.2508L230.372 29.1035ZM225.878 25.8459C225.222 25.2411 224.649 24.3799 224.177 23.2283L222.903 23.75C223.43 25.0355 224.104 26.0828 224.946 26.858L225.878 25.8459ZM224.18 23.235C223.738 22.1248 223.502 20.6629 223.502 18.8207H222.125C222.125 20.7661 222.373 22.4166 222.901 23.7434L224.18 23.235ZM223.502 18.8207C223.502 16.1191 223.848 14.2668 224.452 13.1609L223.245 12.5009C222.469 13.9201 222.125 16.061 222.125 18.8207H223.502ZM224.449 13.1663C225.07 12.0544 226.076 11.1622 227.524 10.5069L226.956 9.25321C225.291 10.0073 224.036 11.0823 223.248 12.4955L224.449 13.1663ZM227.528 10.5047C228.972 9.83727 230.747 9.48914 232.877 9.48914V8.1129C230.603 8.1129 228.62 8.48412 226.951 9.25544L227.528 10.5047ZM232.877 9.48914C235.214 9.48914 237.158 9.867 238.733 10.5931L239.309 9.3432C237.508 8.51312 235.356 8.1129 232.877 8.1129V9.48914ZM238.735 10.594C240.352 11.3326 241.314 12.2199 241.764 13.2049L243.016 12.6331C242.38 11.2398 241.096 10.1598 239.307 9.34226L238.735 10.594ZM241.769 13.2142C242.255 14.2388 242.539 16.1067 242.539 18.9308H243.915C243.915 16.0881 243.641 13.9482 243.012 12.6237L241.769 13.2142ZM242.539 18.9308V20.3402H243.915V18.9308H242.539ZM252.586 37.9351H253.274V37.247H252.586V37.9351ZM252.586 45.2021V45.8903H253.274V45.2021H252.586ZM245.87 45.2021H245.182V45.8903H245.87V45.2021ZM245.87 37.9351V37.247H245.182V37.9351H245.87ZM251.898 37.9351V45.2021H253.274V37.9351H251.898ZM252.586 44.514H245.87V45.8903H252.586V44.514ZM246.558 45.2021V37.9351H245.182V45.2021H246.558ZM245.87 38.6233H252.586V37.247H245.87V38.6233ZM271.26 9.54974L271.941 9.44842L271.853 8.86162H271.26V9.54974ZM276.567 45.2021V45.8903H277.365L277.248 45.1008L276.567 45.2021ZM267.076 45.2021L266.39 45.2517L266.436 45.8903H267.076V45.2021ZM266.614 38.794L267.3 38.7444L267.254 38.1058H266.614V38.794ZM263.288 38.794V38.1058H262.657L262.603 38.7351L263.288 38.794ZM262.738 45.2021V45.8903H263.369L263.424 45.261L262.738 45.2021ZM253.137 45.2021L252.454 45.112L252.352 45.8903H253.137V45.2021ZM257.849 9.54974V8.86162H257.246L257.167 9.45957L257.849 9.54974ZM266.349 32.4739V33.162H267.122L267.033 32.3943L266.349 32.4739ZM264.94 17.5214L265.626 17.4671L265.125 11.1434L264.258 17.4274L264.94 17.5214ZM263.178 32.4739L262.492 32.4228L262.437 33.162H263.178V32.4739ZM270.58 9.65106L275.887 45.3035L277.248 45.1008L271.941 9.44842L270.58 9.65106ZM276.567 44.514H267.076V45.8903H276.567V44.514ZM267.762 45.1526L267.3 38.7444L265.927 38.8435L266.39 45.2517L267.762 45.1526ZM266.614 38.1058H263.288V39.4821H266.614V38.1058ZM262.603 38.7351L262.052 45.1432L263.424 45.261L263.974 38.8529L262.603 38.7351ZM262.738 44.514H253.137V45.8903H262.738V44.514ZM253.819 45.2923L258.531 9.63991L257.167 9.45957L252.454 45.112L253.819 45.2923ZM257.849 10.2379H271.26V8.86162H257.849V10.2379ZM267.033 32.3943C266.564 28.3683 266.095 23.3932 265.626 17.4671L264.254 17.5758C264.724 23.5118 265.195 28.5049 265.666 32.5534L267.033 32.3943ZM264.258 17.4274C263.319 24.2411 262.729 29.2434 262.492 32.4228L263.865 32.5249C264.098 29.3916 264.682 24.4256 265.622 17.6155L264.258 17.4274ZM263.178 33.162H266.349V31.7857H263.178V33.162ZM284.957 37.9351H285.646V37.247H284.957V37.9351ZM284.957 45.2021V45.8903H285.646V45.2021H284.957ZM278.241 45.2021H277.553V45.8903H278.241V45.2021ZM278.241 37.9351V37.247H277.553V37.9351H278.241ZM284.269 37.9351V45.2021H285.646V37.9351H284.269ZM284.957 44.514H278.241V45.8903H284.957V44.514ZM278.929 45.2021V37.9351H277.553V45.2021H278.929ZM278.241 38.6233H284.957V37.247H278.241V38.6233Z" fill="#E8DC00"/>
<path d="M50.3474 10.4274H66.3899V17.8317H59.9683V24.8474H65.9785V31.886H59.9683V40.0215H67.0298V47.4258H50.3474V10.4274ZM69.8178 10.4274H76.6279C81.1679 10.4274 84.2378 10.6026 85.8375 10.953C87.4524 11.3034 88.7626 12.2023 89.7681 13.6496C90.7889 15.0817 91.2992 17.3746 91.2992 20.5283C91.2992 23.4077 90.9412 25.3425 90.2252 26.3328C89.5091 27.3231 88.0999 27.9173 85.9974 28.1153C87.9018 28.5876 89.1816 29.2199 89.8367 30.0121C90.4918 30.8043 90.8955 31.5356 91.0479 32.2059C91.2154 32.8611 91.2992 34.6816 91.2992 37.6677V47.4258H82.3639V35.1311C82.3639 33.1505 82.2039 31.9241 81.884 31.4518C81.5793 30.9795 80.7642 30.7434 79.4387 30.7434V47.4258H69.8178V10.4274ZM79.4387 16.7576V24.9845C80.5204 24.9845 81.2746 24.8398 81.7011 24.5503C82.143 24.2456 82.3639 23.2782 82.3639 21.648V19.6142C82.3639 18.4411 82.1506 17.6717 81.724 17.306C81.3126 16.9404 80.5509 16.7576 79.4387 16.7576ZM95.0471 10.4274H101.857C106.397 10.4274 109.467 10.6026 111.067 10.953C112.682 11.3034 113.992 12.2023 114.997 13.6496C116.018 15.0817 116.529 17.3746 116.529 20.5283C116.529 23.4077 116.17 25.3425 115.454 26.3328C114.738 27.3231 113.329 27.9173 111.227 28.1153C113.131 28.5876 114.411 29.2199 115.066 30.0121C115.721 30.8043 116.125 31.5356 116.277 32.2059C116.445 32.8611 116.529 34.6816 116.529 37.6677V47.4258H107.593V35.1311C107.593 33.1505 107.433 31.9241 107.113 31.4518C106.809 30.9795 105.993 30.7434 104.668 30.7434V47.4258H95.0471V10.4274ZM104.668 16.7576V24.9845C105.75 24.9845 106.504 24.8398 106.93 24.5503C107.372 24.2456 107.593 23.2782 107.593 21.648V19.6142C107.593 18.4411 107.38 17.6717 106.953 17.306C106.542 16.9404 105.78 16.7576 104.668 16.7576ZM136.89 10.4274L142.398 47.4258H132.548L132.068 40.7757H128.618L128.046 47.4258H118.082L122.973 10.4274H136.89ZM131.794 34.217C131.307 30.0273 130.819 24.855 130.331 18.7C129.356 25.7691 128.747 30.9414 128.503 34.217H131.794ZM166.507 26.5613H156.886V20.1169C156.886 18.243 156.78 17.0775 156.566 16.6205C156.368 16.1482 155.919 15.912 155.218 15.912C154.426 15.912 153.923 16.1939 153.71 16.7576C153.496 17.3213 153.39 18.5401 153.39 20.414V37.5992C153.39 39.3969 153.496 40.57 153.71 41.1185C153.923 41.6669 154.403 41.9412 155.149 41.9412C155.865 41.9412 156.33 41.6669 156.543 41.1185C156.772 40.57 156.886 39.2826 156.886 37.2564V32.6173H166.507V34.057C166.507 37.881 166.233 40.5929 165.684 42.1925C165.151 43.7922 163.955 45.1938 162.097 46.3974C160.253 47.601 157.976 48.2028 155.264 48.2028C152.445 48.2028 150.122 47.6924 148.294 46.6716C146.465 45.6509 145.254 44.2417 144.66 42.4439C144.066 40.6309 143.769 37.9115 143.769 34.2855V23.4762C143.769 20.8101 143.86 18.8143 144.043 17.4889C144.226 16.1482 144.767 14.8608 145.666 13.6268C146.58 12.3927 147.837 11.4253 149.436 10.7245C151.051 10.0084 152.902 9.65042 154.989 9.65042C157.823 9.65042 160.162 10.1989 162.005 11.2958C163.849 12.3927 165.06 13.7639 165.639 15.4093C166.218 17.0394 166.507 19.5837 166.507 23.042V26.5613ZM191.942 32.0917C191.942 35.809 191.851 38.4447 191.668 39.9987C191.5 41.5374 190.952 42.9467 190.023 44.2264C189.108 45.5062 187.867 46.4888 186.298 47.1744C184.728 47.86 182.9 48.2028 180.813 48.2028C178.832 48.2028 177.05 47.8828 175.465 47.243C173.896 46.5879 172.632 45.6128 171.672 44.3178C170.712 43.0228 170.141 41.6136 169.958 40.0901C169.775 38.5666 169.684 35.9004 169.684 32.0917V25.7615C169.684 22.0441 169.767 19.4161 169.935 17.8774C170.118 16.3234 170.666 14.9065 171.58 13.6268C172.51 12.347 173.759 11.3644 175.328 10.6788C176.897 9.9932 178.726 9.65042 180.813 9.65042C182.793 9.65042 184.568 9.97797 186.138 10.6331C187.722 11.273 188.994 12.2404 189.954 13.5354C190.914 14.8303 191.485 16.2396 191.668 17.7631C191.851 19.2866 191.942 21.9527 191.942 25.7615V32.0917ZM182.321 19.9341C182.321 18.2125 182.222 17.1156 182.024 16.6433C181.841 16.1558 181.453 15.912 180.859 15.912C180.356 15.912 179.967 16.1101 179.693 16.5062C179.434 16.8871 179.305 18.0297 179.305 19.9341V37.2107C179.305 39.3588 179.388 40.6843 179.556 41.187C179.739 41.6898 180.15 41.9412 180.79 41.9412C181.445 41.9412 181.864 41.6517 182.047 41.0728C182.23 40.4938 182.321 39.115 182.321 36.9364V19.9341ZM205.174 10.4274V40.0215H211.024V47.4258H195.553V10.4274H205.174Z" fill="#35284F"/>
<path d="M50.3474 10.4274V9.76785H49.6878V10.4274H50.3474ZM66.3899 10.4274H67.0494V9.76785H66.3899V10.4274ZM66.3899 17.8317V18.4912H67.0494V17.8317H66.3899ZM59.9683 17.8317V17.1721H59.3087V17.8317H59.9683ZM59.9683 24.8474H59.3087V25.507H59.9683V24.8474ZM65.9785 24.8474H66.6381V24.1878H65.9785V24.8474ZM65.9785 31.886V32.5456H66.6381V31.886H65.9785ZM59.9683 31.886V31.2264H59.3087V31.886H59.9683ZM59.9683 40.0215H59.3087V40.6811H59.9683V40.0215ZM67.0298 40.0215H67.6893V39.362H67.0298V40.0215ZM67.0298 47.4258V48.0853H67.6893V47.4258H67.0298ZM50.3474 47.4258H49.6878V48.0853H50.3474V47.4258ZM50.3474 11.087H66.3899V9.76785H50.3474V11.087ZM65.7303 10.4274V17.8317H67.0494V10.4274H65.7303ZM66.3899 17.1721H59.9683V18.4912H66.3899V17.1721ZM59.3087 17.8317V24.8474H60.6279V17.8317H59.3087ZM59.9683 25.507H65.9785V24.1878H59.9683V25.507ZM65.319 24.8474V31.886H66.6381V24.8474H65.319ZM65.9785 31.2264H59.9683V32.5456H65.9785V31.2264ZM59.3087 31.886V40.0215H60.6279V31.886H59.3087ZM59.9683 40.6811H67.0298V39.362H59.9683V40.6811ZM66.3702 40.0215V47.4258H67.6893V40.0215H66.3702ZM67.0298 46.7662H50.3474V48.0853H67.0298V46.7662ZM51.0069 47.4258V10.4274H49.6878V47.4258H51.0069ZM69.8178 10.4274V9.76785H69.1582V10.4274H69.8178ZM85.8375 10.953L85.6963 11.5973L85.6976 11.5976L85.8375 10.953ZM89.7681 13.6496L89.2264 14.026L89.231 14.0324L89.7681 13.6496ZM85.9974 28.1153L85.9356 27.4587L82.0757 27.8223L85.8387 28.7555L85.9974 28.1153ZM91.0479 32.2059L90.4047 32.3521L90.4067 32.3608L90.4089 32.3694L91.0479 32.2059ZM91.2992 47.4258V48.0853H91.9588V47.4258H91.2992ZM82.3639 47.4258H81.7043V48.0853H82.3639V47.4258ZM81.884 31.4518L81.3297 31.8094L81.3337 31.8156L81.3379 31.8217L81.884 31.4518ZM79.4387 30.7434V30.0838H78.7792V30.7434H79.4387ZM79.4387 47.4258V48.0853H80.0983V47.4258H79.4387ZM69.8178 47.4258H69.1582V48.0853H69.8178V47.4258ZM79.4387 16.7576V16.098H78.7792V16.7576H79.4387ZM79.4387 24.9845H78.7792V25.6441H79.4387V24.9845ZM81.7011 24.5503L82.0715 25.0961L82.0756 25.0933L81.7011 24.5503ZM81.724 17.306L81.2857 17.7991L81.2948 17.8068L81.724 17.306ZM69.8178 11.087H76.6279V9.76785H69.8178V11.087ZM76.6279 11.087C81.1759 11.087 84.1766 11.2644 85.6963 11.5973L85.9786 10.3087C84.299 9.94082 81.1599 9.76785 76.6279 9.76785V11.087ZM85.6976 11.5976C87.138 11.9101 88.3092 12.7056 89.2264 14.0259L90.3098 13.2733C89.216 11.6989 87.7668 10.6967 85.9773 10.3085L85.6976 11.5976ZM89.231 14.0324C90.1305 15.2944 90.6397 17.4165 90.6397 20.5283H91.9588C91.9588 17.3327 91.4472 14.869 90.3052 13.2668L89.231 14.0324ZM90.6397 20.5283C90.6397 21.9444 90.5513 23.1047 90.3822 24.019C90.2113 24.9423 89.9669 25.5644 89.6907 25.9464L90.7596 26.7193C91.1995 26.111 91.4921 25.2705 91.6793 24.259C91.8681 23.2384 91.9588 21.9916 91.9588 20.5283H90.6397ZM89.6907 25.9464C89.1448 26.7013 87.9796 27.2661 85.9356 27.4587L86.0593 28.772C88.2201 28.5684 89.8734 27.9449 90.7596 26.7193L89.6907 25.9464ZM85.8387 28.7555C87.7124 29.2202 88.8143 29.8107 89.3284 30.4324L90.3449 29.5918C89.5488 28.6291 88.0912 27.955 86.1562 27.4752L85.8387 28.7555ZM89.3284 30.4324C89.9476 31.1812 90.2837 31.8199 90.4047 32.3521L91.691 32.0598C91.5073 31.2513 91.036 30.4274 90.3449 29.5918L89.3284 30.4324ZM90.4089 32.3694C90.4736 32.6223 90.5354 33.1767 90.5775 34.093C90.6188 34.9889 90.6397 36.1793 90.6397 37.6677H91.9588C91.9588 36.1701 91.9378 34.9571 91.8952 34.0324C91.8536 33.1282 91.7897 32.4447 91.6868 32.0425L90.4089 32.3694ZM90.6397 37.6677V47.4258H91.9588V37.6677H90.6397ZM91.2992 46.7662H82.3639V48.0853H91.2992V46.7662ZM83.0234 47.4258V35.1311H81.7043V47.4258H83.0234ZM83.0234 35.1311C83.0234 34.127 82.9831 33.2936 82.8979 32.6405C82.8167 32.0178 82.6837 31.4564 82.43 31.0819L81.3379 31.8217C81.4042 31.9195 81.5111 32.2075 81.5899 32.8111C81.6647 33.3845 81.7043 34.1546 81.7043 35.1311H83.0234ZM82.4382 31.0942C82.1649 30.6707 81.7127 30.4275 81.2277 30.287C80.7368 30.1448 80.1329 30.0838 79.4387 30.0838V31.4029C80.07 31.4029 80.5363 31.46 80.8606 31.554C81.1906 31.6496 81.2983 31.7606 81.3297 31.8094L82.4382 31.0942ZM78.7792 30.7434V47.4258H80.0983V30.7434H78.7792ZM79.4387 46.7662H69.8178V48.0853H79.4387V46.7662ZM70.4773 47.4258V10.4274H69.1582V47.4258H70.4773ZM78.7792 16.7576V24.9845H80.0983V16.7576H78.7792ZM79.4387 25.6441C80.5353 25.6441 81.4678 25.5057 82.0715 25.0961L81.3308 24.0046C81.0813 24.1738 80.5056 24.325 79.4387 24.325V25.6441ZM82.0756 25.0933C82.5087 24.7946 82.7218 24.266 82.8412 23.743C82.9674 23.1904 83.0234 22.4853 83.0234 21.648H81.7043C81.7043 22.4409 81.6499 23.0346 81.5552 23.4494C81.5081 23.6557 81.4552 23.7987 81.4061 23.8928C81.357 23.9872 81.3239 24.0093 81.3267 24.0074L82.0756 25.0933ZM83.0234 21.648V19.6142H81.7043V21.648H83.0234ZM83.0234 19.6142C83.0234 18.9932 82.9676 18.4432 82.8395 17.9811C82.712 17.5211 82.4998 17.1023 82.1532 16.8053L81.2948 17.8068C81.3748 17.8754 81.4825 18.0241 81.5683 18.3335C81.6535 18.6408 81.7043 19.062 81.7043 19.6142H83.0234ZM82.1622 16.8131C81.5556 16.2739 80.5724 16.098 79.4387 16.098V17.4171C80.5294 17.4171 81.0697 17.6069 81.2858 17.799L82.1622 16.8131ZM95.0471 10.4274V9.76785H94.3875V10.4274H95.0471ZM111.067 10.953L110.926 11.5973L110.927 11.5976L111.067 10.953ZM114.997 13.6496L114.456 14.026L114.46 14.0324L114.997 13.6496ZM111.227 28.1153L111.165 27.4587L107.305 27.8223L111.068 28.7555L111.227 28.1153ZM116.277 32.2059L115.634 32.3521L115.636 32.3608L115.638 32.3694L116.277 32.2059ZM116.529 47.4258V48.0853H117.188V47.4258H116.529ZM107.593 47.4258H106.934V48.0853H107.593V47.4258ZM107.113 31.4518L106.559 31.8094L106.563 31.8156L106.567 31.8217L107.113 31.4518ZM104.668 30.7434V30.0838H104.008V30.7434H104.668ZM104.668 47.4258V48.0853H105.328V47.4258H104.668ZM95.0471 47.4258H94.3875V48.0853H95.0471V47.4258ZM104.668 16.7576V16.098H104.008V16.7576H104.668ZM104.668 24.9845H104.008V25.6441H104.668V24.9845ZM106.93 24.5503L107.301 25.0961L107.305 25.0933L106.93 24.5503ZM106.953 17.306L106.515 17.7991L106.524 17.8068L106.953 17.306ZM95.0471 11.087H101.857V9.76785H95.0471V11.087ZM101.857 11.087C106.405 11.087 109.406 11.2644 110.926 11.5973L111.208 10.3087C109.528 9.94082 106.389 9.76785 101.857 9.76785V11.087ZM110.927 11.5976C112.367 11.9101 113.538 12.7056 114.456 14.0259L115.539 13.2733C114.445 11.6989 112.996 10.6967 111.207 10.3085L110.927 11.5976ZM114.46 14.0324C115.36 15.2944 115.869 17.4165 115.869 20.5283H117.188C117.188 17.3327 116.677 14.869 115.534 13.2668L114.46 14.0324ZM115.869 20.5283C115.869 21.9444 115.781 23.1047 115.611 24.019C115.441 24.9423 115.196 25.5644 114.92 25.9464L115.989 26.7193C116.429 26.111 116.721 25.2705 116.909 24.259C117.097 23.2384 117.188 21.9916 117.188 20.5283H115.869ZM114.92 25.9464C114.374 26.7013 113.209 27.2661 111.165 27.4587L111.289 28.772C113.449 28.5684 115.103 27.9449 115.989 26.7193L114.92 25.9464ZM111.068 28.7555C112.942 29.2202 114.044 29.8107 114.558 30.4324L115.574 29.5918C114.778 28.6291 113.321 27.955 111.385 27.4752L111.068 28.7555ZM114.558 30.4324C115.177 31.1812 115.513 31.8199 115.634 32.3521L116.92 32.0598C116.737 31.2513 116.265 30.4274 115.574 29.5918L114.558 30.4324ZM115.638 32.3694C115.703 32.6223 115.765 33.1767 115.807 34.093C115.848 34.9889 115.869 36.1793 115.869 37.6677H117.188C117.188 36.1701 117.167 34.9571 117.125 34.0324C117.083 33.1282 117.019 32.4447 116.916 32.0425L115.638 32.3694ZM115.869 37.6677V47.4258H117.188V37.6677H115.869ZM116.529 46.7662H107.593V48.0853H116.529V46.7662ZM108.253 47.4258V35.1311H106.934V47.4258H108.253ZM108.253 35.1311C108.253 34.127 108.212 33.2936 108.127 32.6405C108.046 32.0178 107.913 31.4564 107.659 31.0819L106.567 31.8217C106.633 31.9195 106.74 32.2075 106.819 32.8111C106.894 33.3845 106.934 34.1546 106.934 35.1311H108.253ZM107.667 31.0942C107.394 30.6707 106.942 30.4275 106.457 30.287C105.966 30.1448 105.362 30.0838 104.668 30.0838V31.4029C105.299 31.4029 105.766 31.46 106.09 31.554C106.42 31.6496 106.528 31.7606 106.559 31.8094L107.667 31.0942ZM104.008 30.7434V47.4258H105.328V30.7434H104.008ZM104.668 46.7662H95.0471V48.0853H104.668V46.7662ZM95.7066 47.4258V10.4274H94.3875V47.4258H95.7066ZM104.008 16.7576V24.9845H105.328V16.7576H104.008ZM104.668 25.6441C105.765 25.6441 106.697 25.5057 107.301 25.0961L106.56 24.0046C106.311 24.1738 105.735 24.325 104.668 24.325V25.6441ZM107.305 25.0933C107.738 24.7946 107.951 24.266 108.07 23.743C108.197 23.1904 108.253 22.4853 108.253 21.648H106.934C106.934 22.4409 106.879 23.0346 106.784 23.4494C106.737 23.6557 106.684 23.7987 106.635 23.8928C106.586 23.9872 106.553 24.0093 106.556 24.0074L107.305 25.0933ZM108.253 21.648V19.6142H106.934V21.648H108.253ZM108.253 19.6142C108.253 18.9932 108.197 18.4432 108.069 17.9811C107.941 17.5211 107.729 17.1023 107.383 16.8053L106.524 17.8068C106.604 17.8754 106.712 18.0241 106.798 18.3335C106.883 18.6408 106.934 19.062 106.934 19.6142H108.253ZM107.391 16.8131C106.785 16.2739 105.802 16.098 104.668 16.098V17.4171C105.759 17.4171 106.299 17.6069 106.515 17.799L107.391 16.8131ZM136.89 10.4274L137.543 10.3303L137.459 9.76785H136.89V10.4274ZM142.398 47.4258V48.0853H143.163L143.05 47.3287L142.398 47.4258ZM132.548 47.4258L131.89 47.4733L131.935 48.0853H132.548V47.4258ZM132.068 40.7757L132.726 40.7282L132.682 40.1161H132.068V40.7757ZM128.618 40.7757V40.1161H128.012L127.96 40.7192L128.618 40.7757ZM128.046 47.4258V48.0853H128.652L128.703 47.4822L128.046 47.4258ZM118.082 47.4258L117.429 47.3394L117.33 48.0853H118.082V47.4258ZM122.973 10.4274V9.76785H122.395L122.319 10.341L122.973 10.4274ZM131.794 34.217V34.8765H132.535L132.449 34.1407L131.794 34.217ZM130.331 18.7L130.989 18.648L130.509 12.5868L129.678 18.6099L130.331 18.7ZM128.503 34.217L127.846 34.168L127.793 34.8765H128.503V34.217ZM136.238 10.5245L141.745 47.5229L143.05 47.3287L137.543 10.3303L136.238 10.5245ZM142.398 46.7662H132.548V48.0853H142.398V46.7662ZM133.206 47.3783L132.726 40.7282L131.41 40.8231L131.89 47.4733L133.206 47.3783ZM132.068 40.1161H128.618V41.4352H132.068V40.1161ZM127.96 40.7192L127.389 47.3693L128.703 47.4822L129.275 40.8321L127.96 40.7192ZM128.046 46.7662H118.082V48.0853H128.046V46.7662ZM118.736 47.5122L123.627 10.5138L122.319 10.341L117.429 47.3394L118.736 47.5122ZM122.973 11.087H136.89V9.76785H122.973V11.087ZM132.449 34.1407C131.963 29.9619 131.476 24.7982 130.989 18.648L129.674 18.7521C130.162 24.9118 130.65 30.0928 131.139 34.2932L132.449 34.1407ZM129.678 18.6099C128.703 25.6807 128.091 30.8704 127.846 34.168L129.161 34.2659C129.403 31.0124 130.01 25.8576 130.985 18.7902L129.678 18.6099ZM128.503 34.8765H131.794V33.5574H128.503V34.8765ZM166.507 26.5613V27.2209H167.167V26.5613H166.507ZM156.886 26.5613H156.227V27.2209H156.886V26.5613ZM156.566 16.6205L155.958 16.8755L155.963 16.8876L155.969 16.8994L156.566 16.6205ZM156.543 41.1185L155.935 40.8648L155.932 40.8721L155.929 40.8794L156.543 41.1185ZM156.886 32.6173V31.9577H156.227V32.6173H156.886ZM166.507 32.6173H167.167V31.9577H166.507V32.6173ZM165.684 42.1925L165.061 41.9786L165.059 41.984L165.684 42.1925ZM162.097 46.3974L161.738 45.8438L161.736 45.8451L162.097 46.3974ZM144.66 42.4439L144.033 42.6493L144.034 42.6509L144.66 42.4439ZM144.043 17.4889L144.696 17.579L144.697 17.578L144.043 17.4889ZM145.666 13.6268L145.136 13.2342L145.132 13.2384L145.666 13.6268ZM149.436 10.7245L149.701 11.3286L149.704 11.3274L149.436 10.7245ZM165.639 15.4093L165.017 15.6282L165.017 15.63L165.639 15.4093ZM166.507 25.9018H156.886V27.2209H166.507V25.9018ZM157.546 26.5613V20.1169H156.227V26.5613H157.546ZM157.546 20.1169C157.546 19.1703 157.519 18.3882 157.463 17.7773C157.41 17.1924 157.324 16.6839 157.164 16.3415L155.969 16.8994C156.022 17.0141 156.096 17.3168 156.149 17.8975C156.2 18.452 156.227 19.1897 156.227 20.1169H157.546ZM157.175 16.3654C157.017 15.9893 156.749 15.6953 156.387 15.5053C156.039 15.3222 155.637 15.2525 155.218 15.2525V16.5716C155.5 16.5716 155.673 16.6199 155.774 16.673C155.862 16.7191 155.918 16.7793 155.958 16.8755L157.175 16.3654ZM155.218 15.2525C154.749 15.2525 154.304 15.3351 153.924 15.5481C153.531 15.7685 153.252 16.1045 153.093 16.5242L154.327 16.991C154.381 16.847 154.46 16.7602 154.569 16.6987C154.692 16.6299 154.894 16.5716 155.218 16.5716V15.2525ZM153.093 16.5242C152.953 16.8949 152.867 17.4159 152.813 18.037C152.757 18.6727 152.73 19.4668 152.73 20.414H154.049C154.049 19.4873 154.076 18.735 154.127 18.1519C154.179 17.5542 154.254 17.184 154.327 16.991L153.093 16.5242ZM152.73 20.414V37.5992H154.049V20.414H152.73ZM152.73 37.5992C152.73 38.5088 152.757 39.2732 152.813 39.887C152.867 40.4865 152.953 40.9933 153.095 41.3575L154.324 40.8794C154.253 40.6951 154.179 40.3412 154.127 39.7676C154.076 39.2083 154.049 38.4873 154.049 37.5992H152.73ZM153.095 41.3575C153.253 41.7628 153.522 42.091 153.902 42.3081C154.271 42.5187 154.7 42.6007 155.149 42.6007V41.2816C154.852 41.2816 154.668 41.2265 154.557 41.1628C154.457 41.1057 154.38 41.0226 154.324 40.8794L153.095 41.3575ZM155.149 42.6007C155.588 42.6007 156.008 42.5171 156.37 42.3035C156.742 42.0842 157.003 41.7563 157.158 41.3575L155.929 40.8794C155.871 41.029 155.793 41.1125 155.7 41.1675C155.597 41.2281 155.427 41.2816 155.149 41.2816V42.6007ZM157.152 41.3721C157.308 40.9974 157.4 40.4509 157.458 39.7999C157.517 39.1292 157.546 38.2794 157.546 37.2564H156.227C156.227 38.2596 156.198 39.0666 156.144 39.6833C156.087 40.3197 156.007 40.691 155.935 40.8648L157.152 41.3721ZM157.546 37.2564V32.6173H156.227V37.2564H157.546ZM156.886 33.2768H166.507V31.9577H156.886V33.2768ZM165.848 32.6173V34.057H167.167V32.6173H165.848ZM165.848 34.057C165.848 37.8766 165.57 40.4916 165.061 41.9786L166.308 42.4064C166.895 40.6941 167.167 37.8854 167.167 34.057H165.848ZM165.059 41.984C164.586 43.4026 163.511 44.6959 161.738 45.8438L162.455 46.951C164.4 45.6917 165.717 44.1819 166.31 42.4011L165.059 41.984ZM161.736 45.8451C160.022 46.964 157.877 47.5432 155.264 47.5432V48.8623C158.074 48.8623 160.484 48.238 162.457 46.9497L161.736 45.8451ZM155.264 47.5432C152.52 47.5432 150.317 47.0459 148.615 46.0958L147.972 47.2475C149.927 48.3389 152.37 48.8623 155.264 48.8623V47.5432ZM148.615 46.0958C146.915 45.1463 145.823 43.8608 145.286 42.2369L144.034 42.6509C144.685 44.6225 146.016 46.1555 147.972 47.2475L148.615 46.0958ZM145.287 42.2385C144.726 40.5272 144.428 37.8926 144.428 34.2855H143.109C143.109 37.9303 143.406 40.7346 144.033 42.6493L145.287 42.2385ZM144.428 34.2855V23.4762H143.109V34.2855H144.428ZM144.428 23.4762C144.428 20.8169 144.52 18.858 144.696 17.579L143.39 17.3987C143.2 18.7706 143.109 20.8034 143.109 23.4762H144.428ZM144.697 17.578C144.863 16.3587 145.356 15.1724 146.199 14.0151L145.132 13.2384C144.178 14.5492 143.589 15.9377 143.39 17.3997L144.697 17.578ZM146.196 14.0194C147.032 12.8899 148.192 11.9897 149.701 11.3286L149.172 10.1204C147.481 10.8609 146.127 11.8956 145.136 13.2342L146.196 14.0194ZM149.704 11.3274C151.22 10.6549 152.978 10.31 154.989 10.31V8.99086C152.827 8.99086 150.882 9.36202 149.169 10.1215L149.704 11.3274ZM154.989 10.31C157.742 10.31 159.954 10.8429 161.668 11.8626L162.342 10.729C160.369 9.55487 157.905 8.99086 154.989 8.99086V10.31ZM161.668 11.8626C163.41 12.8993 164.5 14.1598 165.017 15.6282L166.261 15.1904C165.62 13.368 164.287 11.8862 162.342 10.729L161.668 11.8626ZM165.017 15.63C165.557 17.1491 165.848 19.5992 165.848 23.042H167.167C167.167 19.5681 166.879 16.9297 166.26 15.1885L165.017 15.63ZM165.848 23.042V26.5613H167.167V23.042H165.848ZM191.668 39.9987L191.013 39.9216L191.012 39.9273L191.668 39.9987ZM190.023 44.2264L189.489 43.8388L189.486 43.8431L190.023 44.2264ZM175.465 47.243L175.211 47.8516L175.218 47.8545L175.465 47.243ZM169.935 17.8774L169.28 17.8003L169.279 17.8059L169.935 17.8774ZM171.58 13.6268L171.047 13.2392L171.044 13.2434L171.58 13.6268ZM186.138 10.6331L185.883 11.2418L185.891 11.2446L186.138 10.6331ZM182.024 16.6433L181.407 16.8749L181.411 16.8867L181.416 16.8984L182.024 16.6433ZM179.693 16.5062L179.151 16.1308L179.148 16.1353L179.693 16.5062ZM179.556 41.187L178.93 41.3956L178.933 41.404L178.936 41.4124L179.556 41.187ZM191.283 32.0917C191.283 35.8086 191.191 38.4099 191.013 39.9216L192.323 40.0757C192.511 38.4796 192.602 35.8095 192.602 32.0917H191.283ZM191.012 39.9273C190.857 41.3492 190.352 42.65 189.489 43.8389L190.556 44.614C191.551 43.2434 192.143 41.7256 192.324 40.0701L191.012 39.9273ZM189.486 43.8431C188.647 45.0173 187.504 45.9278 186.033 46.57L186.562 47.7788C188.23 47.0499 189.57 45.995 190.559 44.6098L189.486 43.8431ZM186.033 46.57C184.564 47.2122 182.829 47.5432 180.813 47.5432V48.8623C182.972 48.8623 184.893 48.5078 186.562 47.7788L186.033 46.57ZM180.813 47.5432C178.904 47.5432 177.207 47.2349 175.712 46.6314L175.218 47.8545C176.893 48.5307 178.761 48.8623 180.813 48.8623V47.5432ZM175.719 46.6343C174.254 46.0224 173.087 45.1192 172.202 43.9251L171.142 44.7106C172.177 46.1064 173.539 47.1533 175.211 47.8516L175.719 46.6343ZM172.202 43.9251C171.307 42.7174 170.781 41.4154 170.613 40.0115L169.303 40.1687C169.5 41.8118 170.118 43.3283 171.142 44.7106L172.202 43.9251ZM170.613 40.0115C170.435 38.5316 170.343 35.9014 170.343 32.0917H169.024C169.024 35.8995 169.115 38.6016 169.303 40.1687L170.613 40.0115ZM170.343 32.0917V25.7615H169.024V32.0917H170.343ZM170.343 25.7615C170.343 22.0442 170.427 19.4482 170.591 17.9488L169.279 17.8059C169.108 19.384 169.024 22.044 169.024 25.7615H170.343ZM170.59 17.9544C170.76 16.5115 171.267 15.1999 172.117 14.0101L171.044 13.2434C170.065 14.6132 169.476 16.1353 169.28 17.8003L170.59 17.9544ZM172.114 14.0143C172.969 12.8374 174.122 11.9258 175.592 11.2832L175.064 10.0744C173.397 10.8029 172.051 11.8567 171.047 13.2392L172.114 14.0143ZM175.592 11.2832C177.062 10.641 178.797 10.31 180.813 10.31V8.99086C178.654 8.99086 176.733 9.34538 175.064 10.0744L175.592 11.2832ZM180.813 10.31C182.72 10.31 184.407 10.6253 185.883 11.2417L186.392 10.0244C184.73 9.33065 182.867 8.99086 180.813 8.99086V10.31ZM185.891 11.2446C187.369 11.8419 188.541 12.7367 189.424 13.9281L190.484 13.1426C189.447 11.7441 188.075 10.704 186.385 10.0215L185.891 11.2446ZM189.424 13.9281C190.319 15.1358 190.845 16.4378 191.013 17.8417L192.323 17.6845C192.126 16.0414 191.508 14.5249 190.484 13.1426L189.424 13.9281ZM191.013 17.8417C191.191 19.3216 191.283 21.9518 191.283 25.7615H192.602C192.602 21.9537 192.511 19.2516 192.323 17.6845L191.013 17.8417ZM191.283 25.7615V32.0917H192.602V25.7615H191.283ZM182.981 19.9341C182.981 19.0632 182.956 18.3368 182.904 17.7609C182.854 17.2042 182.773 16.7246 182.632 16.3882L181.416 16.8984C181.473 17.0343 181.541 17.3393 181.59 17.8795C181.637 18.4005 181.662 19.0834 181.662 19.9341H182.981ZM182.642 16.4117C182.507 16.0518 182.279 15.7451 181.946 15.5362C181.62 15.3315 181.244 15.2525 180.859 15.2525V16.5716C181.068 16.5716 181.183 16.6144 181.245 16.6535C181.301 16.6884 181.359 16.7473 181.407 16.8749L182.642 16.4117ZM180.859 15.2525C180.151 15.2525 179.555 15.5477 179.151 16.1308L180.235 16.8816C180.38 16.6725 180.561 16.5716 180.859 16.5716V15.2525ZM179.148 16.1353C179.02 16.3233 178.94 16.5518 178.884 16.7717C178.826 17.0013 178.781 17.2713 178.746 17.5746C178.678 18.1812 178.645 18.9709 178.645 19.9341H179.964C179.964 18.9929 179.996 18.2591 180.057 17.7231C180.088 17.455 180.124 17.249 180.162 17.0977C180.181 17.0226 180.2 16.9672 180.215 16.9279C180.231 16.8875 180.241 16.874 180.239 16.8771L179.148 16.1353ZM178.645 19.9341V37.2107H179.964V19.9341H178.645ZM178.645 37.2107C178.645 38.2913 178.666 39.1751 178.709 39.8575C178.751 40.5171 178.816 41.0533 178.93 41.3956L180.182 40.9784C180.128 40.8179 180.068 40.4401 180.026 39.7742C179.985 39.1311 179.964 38.2782 179.964 37.2107H178.645ZM178.936 41.4124C179.073 41.7879 179.31 42.1032 179.658 42.3154C179.996 42.5219 180.387 42.6007 180.79 42.6007V41.2816C180.553 41.2816 180.419 41.2347 180.346 41.1898C180.282 41.1507 180.222 41.0889 180.176 40.9616L178.936 41.4124ZM180.79 42.6007C181.213 42.6007 181.623 42.5067 181.971 42.2667C182.323 42.0235 182.549 41.6728 182.676 41.2714L181.418 40.8741C181.362 41.0517 181.288 41.1351 181.221 41.1814C181.149 41.2309 181.022 41.2816 180.79 41.2816V42.6007ZM182.676 41.2714C182.793 40.8997 182.865 40.3407 182.911 39.6481C182.958 38.9384 182.981 38.033 182.981 36.9364H181.662C181.662 38.0184 181.639 38.8918 181.595 39.5608C181.549 40.2471 181.483 40.6669 181.418 40.8741L182.676 41.2714ZM182.981 36.9364V19.9341H181.662V36.9364H182.981ZM205.174 10.4274H205.833V9.76785H205.174V10.4274ZM205.174 40.0215H204.514V40.6811H205.174V40.0215ZM211.024 40.0215H211.684V39.362H211.024V40.0215ZM211.024 47.4258V48.0853H211.684V47.4258H211.024ZM195.553 47.4258H194.893V48.0853H195.553V47.4258ZM195.553 10.4274V9.76785H194.893V10.4274H195.553ZM204.514 10.4274V40.0215H205.833V10.4274H204.514ZM205.174 40.6811H211.024V39.362H205.174V40.6811ZM210.365 40.0215V47.4258H211.684V40.0215H210.365ZM211.024 46.7662H195.553V48.0853H211.024V46.7662ZM196.212 47.4258V10.4274H194.893V47.4258H196.212ZM195.553 11.087H205.174V9.76785H195.553V11.087Z" fill="#E8DC00"/>
<defs>
<linearGradient id="paint0_linear_440_1188" x1="23.225" y1="52.999" x2="23.225" y2="1.32715" gradientUnits="userSpaceOnUse">
<stop stop-color="#1F1138"/>
<stop offset="0.04" stop-color="#24163C"/>
<stop offset="0.1" stop-color="#332447"/>
<stop offset="0.16" stop-color="#4B3C58"/>
<stop offset="0.22" stop-color="#6D5D72"/>
<stop offset="0.28" stop-color="#988791"/>
<stop offset="0.3" stop-color="#A5949B"/>
<stop offset="0.31" stop-color="#AFA0A7"/>
<stop offset="0.37" stop-color="#D2C9CD"/>
<stop offset="0.42" stop-color="#EAE7E8"/>
<stop offset="0.46" stop-color="#FAF9F9"/>
<stop offset="0.49" stop-color="white"/>
<stop offset="0.52" stop-color="#FAF9FA"/>
<stop offset="0.55" stop-color="#EDE9EB"/>
<stop offset="0.59" stop-color="#D6CED2"/>
<stop offset="0.63" stop-color="#B7AAAF"/>
<stop offset="0.66" stop-color="#A5949B"/>
<stop offset="0.71" stop-color="#887886"/>
<stop offset="0.8" stop-color="#5B4C64"/>
<stop offset="0.88" stop-color="#3A2C4C"/>
<stop offset="0.95" stop-color="#26183D"/>
<stop offset="1" stop-color="#1F1138"/>
</linearGradient>
</defs>
</svg>
