<svg xmlns="http://www.w3.org/2000/svg" xmlns:xlink="http://www.w3.org/1999/xlink" width="21cm" height="21cm" viewBox="0 0 595.28 595.28"><defs><linearGradient id="a" x1="299.31" y1="293.14" x2="299.31" y2="151.26" gradientUnits="userSpaceOnUse"><stop offset="0" stop-color="#1f1138"/><stop offset="0.04" stop-color="#24163c"/><stop offset="0.1" stop-color="#332447"/><stop offset="0.16" stop-color="#4b3c58"/><stop offset="0.22" stop-color="#6d5d72"/><stop offset="0.28" stop-color="#988791"/><stop offset="0.3" stop-color="#a5949b"/><stop offset="0.31" stop-color="#afa0a7"/><stop offset="0.37" stop-color="#d2c9cd"/><stop offset="0.42" stop-color="#eae7e8"/><stop offset="0.46" stop-color="#faf9f9"/><stop offset="0.49" stop-color="#fff"/><stop offset="0.52" stop-color="#faf9fa"/><stop offset="0.55" stop-color="#ede9eb"/><stop offset="0.59" stop-color="#d6ced2"/><stop offset="0.63" stop-color="#b7aaaf"/><stop offset="0.66" stop-color="#a5949b"/><stop offset="0.71" stop-color="#887886"/><stop offset="0.8" stop-color="#5b4c64"/><stop offset="0.88" stop-color="#3a2c4c"/><stop offset="0.95" stop-color="#26183d"/><stop offset="1" stop-color="#1f1138"/></linearGradient><linearGradient id="b" x1="92.14" y1="435.33" x2="92.14" y2="352.05" xlink:href="#a"/></defs><polygon points="185.35 222.5 240.49 167.36 246.37 172.59 262.02 155.09 257.03 150.82 298.86 108.99 412.37 222.5 358.28 276.58 349.2 270.35 335.42 287.81 342.11 292.75 298.86 336.01 185.35 222.5" fill="#e7d72d"/><path d="M298.86,110.41,411,222.5l-52.79,52.79L349,269l-15,19,6.58,4.87-41.72,41.72L186.76,222.5l53.77-53.77,5.92,5.27,17-19-4.95-4.24,40.36-40.35m0-2.83L297.44,109l-40.35,40.35-1.53,1.53,1.64,1.41,3.4,2.91-14.31,16-4.43-3.94L240.45,166l-1.33,1.34-53.77,53.77-1.42,1.41,1.42,1.41L297.44,336l1.42,1.41,1.41-1.41L342,294.28l1.64-1.64-1.87-1.38-4.92-3.64,12.56-15.91,7.62,5.23,1.37.94,1.18-1.18,52.78-52.79,1.42-1.41-1.42-1.41L300.27,109l-1.41-1.41Z" fill="#28004a"/><polygon points="308.43 293.14 308.43 237.42 290.19 237.25 290.19 292.15 239.95 292.15 239.95 261.44 249.99 261.44 249.99 181.18 239.95 181.18 239.95 169.39 258.08 151.25 290.19 151.25 290.19 206.97 308.43 207.15 308.43 152.25 358.66 152.25 358.66 182.95 348.63 182.95 348.63 263.22 358.66 263.22 358.66 275.01 340.53 293.14 308.43 293.14" fill="url(#a)"/><path d="M289.69,151.76v55.71l19.24.18v-54.9h49.23v29.7h-10v81.27h10V274.8l-17.83,17.84h-31.4V236.93l-19.24-.18v54.9H240.45V261.94h10V180.67h-10V169.59l17.84-17.83h31.4m1-1H257.87l-.29.29-17.84,17.84-.29.29v12.49h10v79.27h-10v31.71h51.24V237.76l17.24.16v55.72h32.81l.29-.29,17.84-17.84.29-.29v-12.5h-10V183.45h10v-31.7H307.93v54.89l-17.24-.16V150.76Z" fill="#28004a"/><polygon points="96.12 435.33 96.12 403.57 88.16 403.49 88.16 434.77 57.1 434.77 57.1 414.84 62.82 414.84 62.82 371.53 57.1 371.53 57.1 363.09 68.14 352.05 88.16 352.05 88.16 383.81 96.12 383.89 96.12 352.62 127.18 352.62 127.18 372.54 121.46 372.54 121.46 415.85 127.18 415.85 127.18 424.29 116.13 435.33 96.12 435.33" fill="url(#b)"/><path d="M86.66,353.55V385.3l11,.1V354.12h28.06V371H120v46.31h5.72v6.32l-10.17,10.16H97.62V402.08l-11-.1v31.29H58.6V416.34h5.72V370H58.6v-6.32l10.16-10.16h17.9m3-3H67.52l-.88.88L56.48,361.59l-.88.88V373h5.72v40.31H55.6v22.93H89.66V405l5,0v31.78h22.13l.88-.88,10.17-10.16.88-.88V414.35H123V374h5.72V351.12H94.62v31.25l-5,0V350.55Z" fill="#e8dc00"/><text transform="translate(418.68 420.33) scale(1.23 1)" font-size="65.54" fill="#35284f" stroke="#e8dc00" stroke-miterlimit="10" stroke-width="2" font-family="Impact">S.<tspan x="45.99" y="0" letter-spacing="0.02em">A</tspan><tspan x="80.9" y="0">.</tspan></text><text transform="translate(99.64 484.02) scale(1.28 1)" font-size="17.16" font-family="Krungthep">IMPORTACIONES Y DISTRIBUCIONES</text><text transform="translate(132.76 421.54) scale(1.13 1)" font-size="70.96" fill="#35284f" stroke="#e8dc00" stroke-miterlimit="10" stroke-width="2" font-family="Impact">ERRACOL</text></svg>