<svg xmlns="http://www.w3.org/2000/svg" xmlns:xlink="http://www.w3.org/1999/xlink" width="21cm" height="6.99cm" viewBox="0 0 595.28 198.28"><defs><linearGradient id="a" x1="94.75" y1="112.19" x2="94.75" y2="28.91" gradientUnits="userSpaceOnUse"><stop offset="0" stop-color="#1f1138"/><stop offset="0.04" stop-color="#24163c"/><stop offset="0.1" stop-color="#332447"/><stop offset="0.16" stop-color="#4b3c58"/><stop offset="0.22" stop-color="#6d5d72"/><stop offset="0.28" stop-color="#988791"/><stop offset="0.3" stop-color="#a5949b"/><stop offset="0.31" stop-color="#afa0a7"/><stop offset="0.37" stop-color="#d2c9cd"/><stop offset="0.42" stop-color="#eae7e8"/><stop offset="0.46" stop-color="#faf9f9"/><stop offset="0.49" stop-color="#fff"/><stop offset="0.52" stop-color="#faf9fa"/><stop offset="0.55" stop-color="#ede9eb"/><stop offset="0.59" stop-color="#d6ced2"/><stop offset="0.63" stop-color="#b7aaaf"/><stop offset="0.66" stop-color="#a5949b"/><stop offset="0.71" stop-color="#887886"/><stop offset="0.8" stop-color="#5b4c64"/><stop offset="0.88" stop-color="#3a2c4c"/><stop offset="0.95" stop-color="#26183d"/><stop offset="1" stop-color="#1f1138"/></linearGradient></defs><polygon points="98.73 112.19 98.73 80.43 90.77 80.36 90.77 111.63 59.71 111.63 59.71 91.7 65.43 91.7 65.43 48.39 59.71 48.39 59.71 39.96 70.76 28.91 90.77 28.91 90.77 60.67 98.73 60.75 98.73 29.48 129.79 29.48 129.79 49.4 124.07 49.4 124.07 92.72 129.79 92.72 129.79 101.15 118.75 112.19 98.73 112.19" fill="url(#a)"/><path d="M89.27,30.41V62.16l11,.1V31h28.06V47.9h-5.72V94.21h5.72v6.32l-10.16,10.16h-17.9V79l-11-.11v31.29H61.21V93.2h5.72V46.89H61.21V40.58L71.38,30.41H89.27m3-3H70.13l-.87.88L59.09,38.46l-.88.87V49.89h5.72V90.2H58.21v22.93H92.27V81.87l5,0v31.77h22.14l.88-.87,10.16-10.17.88-.88V91.21h-5.72V50.9h5.72V28H97.23V59.23l-5,0V27.41Z" fill="#e8dc00"/><text transform="translate(421.29 97.2) scale(1.23 1)" font-size="65.54" fill="#35284f" stroke="#e8dc00" stroke-miterlimit="10" stroke-width="2" font-family="Impact">S.<tspan x="45.99" y="0" letter-spacing="0.02em">A</tspan><tspan x="80.9" y="0">.</tspan></text><text transform="translate(102.25 160.88) scale(1.28 1)" font-size="17.16" font-family="Krungthep">IMPORTACIONES Y DISTRIBUCIONES</text><text transform="translate(135.37 98.41) scale(1.13 1)" font-size="70.96" fill="#35284f" stroke="#e8dc00" stroke-miterlimit="10" stroke-width="2" font-family="Impact">ERRACOL</text></svg>