<svg width="278" height="52" viewBox="0 0 278 52" fill="none" xmlns="http://www.w3.org/2000/svg">
<path d="M23.9167 50.2226V31.4777L19.2186 31.4364V49.8921H0.886841V38.1293H4.26282V12.5675H0.886841V7.59208L7.40861 1.07031H19.2186V19.8152L23.9167 19.8625V1.40673H42.2484V13.1636H38.8725V38.7313H42.2484V43.7068L35.7326 50.2226H23.9167Z" fill="url(#paint0_linear_648_725)"/>
<path d="M18.3318 1.95909V20.6981L24.824 20.7571V2.30731H41.3852V12.2818H38.0092V39.6142H41.3852V43.3443L35.3887 49.3408H24.824V30.6372L18.3318 30.5723V49.0398H1.77062V39.0181H5.14659V11.6857H1.77062V7.96149L7.77301 1.95909H18.3318ZM20.1024 0.188477H7.03525L6.52177 0.707858L0.519382 6.71025L0 7.22373V13.4563H3.37598V37.2475H0V50.7809H20.1024V32.3311H23.0534V51.0819H36.1206L36.64 50.5684L42.6364 44.566L43.1558 44.0467V37.8436H39.7799V14.0524H43.1558V0.536698H23.0298V18.9688H20.0788V0.188477H20.1024Z" fill="white"/>
<path d="M230.843 19.3503H222.652V16.8366C222.652 15.6635 222.547 14.9164 222.338 14.5952C222.128 14.274 221.779 14.1134 221.291 14.1134C220.76 14.1134 220.355 14.3298 220.076 14.7628C219.81 15.1957 219.678 15.852 219.678 16.7318C219.678 17.863 219.831 18.7149 220.138 19.2874C220.432 19.86 221.263 20.5513 222.631 21.3612C226.555 23.6934 229.027 25.6066 230.047 27.1008C231.066 28.5951 231.576 31.0041 231.576 34.3277C231.576 36.7437 231.289 38.5242 230.717 39.6693C230.158 40.8145 229.069 41.7781 227.449 42.5601C225.829 43.3282 223.944 43.7122 221.793 43.7122C219.433 43.7122 217.415 43.2653 215.739 42.3716C214.078 41.4778 212.988 40.3397 212.472 38.9571C211.955 37.5746 211.697 35.6125 211.697 33.0709V30.8504H219.887V34.9771C219.887 36.2479 219.999 37.0649 220.222 37.428C220.46 37.7911 220.872 37.9726 221.458 37.9726C222.045 37.9726 222.478 37.7422 222.757 37.2813C223.05 36.8205 223.197 36.1362 223.197 35.2285C223.197 33.2315 222.924 31.9258 222.38 31.3113C221.821 30.6968 220.446 29.6704 218.253 28.232C216.061 26.7796 214.608 25.7253 213.896 25.0689C213.184 24.4126 212.59 23.5049 212.116 22.3458C211.655 21.1867 211.424 19.7064 211.424 17.9049C211.424 15.3074 211.752 13.4082 212.409 12.2072C213.079 11.0062 214.154 10.0705 215.635 9.4002C217.115 8.71591 218.903 8.37377 220.997 8.37377C223.288 8.37377 225.236 8.74384 226.842 9.48399C228.462 10.2241 229.53 11.1598 230.047 12.291C230.577 13.4082 230.843 15.3144 230.843 18.0096V19.3503ZM239.745 36.0873V43H233.356V36.0873H239.745ZM257.509 9.08598L262.557 43H253.529L253.089 36.9043H249.926L249.402 43H240.269L244.752 9.08598H257.509ZM252.837 30.8923C252.391 27.052 251.944 22.3108 251.497 16.669C250.603 23.1487 250.044 27.8899 249.821 30.8923H252.837ZM270.538 36.0873V43H264.149V36.0873H270.538Z" fill="#35284F"/>
<path d="M230.843 19.3503V20.0048H231.497V19.3503H230.843ZM222.652 19.3503H221.998V20.0048H222.652V19.3503ZM220.076 14.7628L219.526 14.4079L219.521 14.4143L219.517 14.4207L220.076 14.7628ZM220.138 19.2874L220.721 18.989L220.715 18.9779L220.138 19.2874ZM222.631 21.3612L222.966 20.7985L222.965 20.7979L222.631 21.3612ZM230.047 27.1008L229.506 27.4697L230.047 27.1008ZM230.717 39.6693L230.131 39.3766L230.129 39.3824L230.717 39.6693ZM227.449 42.5601L227.73 43.1516L227.734 43.1496L227.449 42.5601ZM215.739 42.3716L215.429 42.9481L215.431 42.9491L215.739 42.3716ZM212.472 38.9571L211.858 39.1863L212.472 38.9571ZM211.697 30.8504V30.1959H211.042V30.8504H211.697ZM219.887 30.8504H220.542V30.1959H219.887V30.8504ZM220.222 37.428L219.665 37.771L219.669 37.7787L219.674 37.7862L220.222 37.428ZM222.757 37.2813L222.205 36.9299L222.201 36.9359L222.197 36.9421L222.757 37.2813ZM222.38 31.3113L222.87 30.8771L222.864 30.871L222.38 31.3113ZM218.253 28.232L217.892 28.7777L217.894 28.7793L218.253 28.232ZM212.116 22.3458L211.507 22.5876L211.51 22.5939L212.116 22.3458ZM212.409 12.2072L211.837 11.8881L211.834 11.8933L212.409 12.2072ZM215.635 9.4002L215.905 9.9965L215.909 9.99435L215.635 9.4002ZM226.842 9.48399L226.568 10.0785L226.57 10.0794L226.842 9.48399ZM230.047 12.291L229.451 12.563L229.455 12.5718L230.047 12.291ZM230.843 18.6957H222.652V20.0048H230.843V18.6957ZM223.307 19.3503V16.8366H221.998V19.3503H223.307ZM223.307 16.8366C223.307 16.2343 223.28 15.7209 223.222 15.3055C223.167 14.9115 223.073 14.5241 222.886 14.2376L221.79 14.9527C221.812 14.9874 221.876 15.1343 221.925 15.4873C221.972 15.8191 221.998 16.2657 221.998 16.8366H223.307ZM222.886 14.2376C222.523 13.6801 221.932 13.4588 221.291 13.4588V14.768C221.627 14.768 221.734 14.8678 221.79 14.9527L222.886 14.2376ZM221.291 13.4588C220.546 13.4588 219.93 13.7815 219.526 14.4079L220.626 15.1176C220.78 14.8782 220.974 14.768 221.291 14.768V13.4588ZM219.517 14.4207C219.158 15.0071 219.023 15.8088 219.023 16.7318H220.332C220.332 15.8952 220.462 15.3843 220.634 15.1048L219.517 14.4207ZM219.023 16.7318C219.023 17.9018 219.178 18.8827 219.562 19.5969L220.715 18.9779C220.484 18.547 220.332 17.8242 220.332 16.7318H219.023ZM219.556 19.5858C219.761 19.9866 220.12 20.3696 220.563 20.7385C221.014 21.1141 221.596 21.5093 222.298 21.9245L222.965 20.7979C222.298 20.4032 221.78 20.0477 221.4 19.7321C221.013 19.4097 220.809 19.1608 220.721 18.989L219.556 19.5858ZM222.297 21.9239C224.245 23.0819 225.82 24.1282 227.028 25.0629C228.243 26.0034 229.053 26.8059 229.506 27.4697L230.587 26.7319C230.021 25.9016 229.086 25.0003 227.829 24.0276C226.565 23.0491 224.941 21.9727 222.966 20.7985L222.297 21.9239ZM229.506 27.4697C230.411 28.7969 230.921 31.0406 230.921 34.3277H232.23C232.23 30.9675 231.721 28.3933 230.587 26.7319L229.506 27.4697ZM230.921 34.3277C230.921 36.7169 230.634 38.3715 230.131 39.3766L231.302 39.9621C231.945 38.6769 232.23 36.7705 232.23 34.3277H230.921ZM230.129 39.3824C229.656 40.3506 228.705 41.2267 227.165 41.9706L227.734 43.1496C229.433 42.3294 230.66 41.2784 231.305 39.9563L230.129 39.3824ZM227.169 41.9686C225.652 42.6877 223.866 43.0576 221.793 43.0576V44.3668C224.022 44.3668 226.006 43.9687 227.73 43.1516L227.169 41.9686ZM221.793 43.0576C219.515 43.0576 217.608 42.6264 216.047 41.794L215.431 42.9491C217.222 43.9043 219.351 44.3668 221.793 44.3668V43.0576ZM216.049 41.7951C214.487 40.955 213.532 39.9241 213.085 38.728L211.858 39.1863C212.445 40.7552 213.668 42.0006 215.429 42.9481L216.049 41.7951ZM213.085 38.728C212.608 37.4533 212.351 35.5824 212.351 33.0709H211.042C211.042 35.6427 211.301 37.6959 211.858 39.1863L213.085 38.728ZM212.351 33.0709V30.8504H211.042V33.0709H212.351ZM211.697 31.505H219.887V30.1959H211.697V31.505ZM219.232 30.8504V34.9771H220.542V30.8504H219.232ZM219.232 34.9771C219.232 35.6281 219.261 36.1825 219.322 36.6316C219.381 37.0617 219.479 37.4691 219.665 37.771L220.78 37.0849C220.742 37.0237 220.672 36.8411 220.619 36.4542C220.569 36.0864 220.542 35.5969 220.542 34.9771H219.232ZM219.674 37.7862C220.073 38.3962 220.737 38.6272 221.458 38.6272V37.318C221.006 37.318 220.846 37.1859 220.77 37.0698L219.674 37.7862ZM221.458 38.6272C222.249 38.6272 222.907 38.2972 223.317 37.6206L222.197 36.9421C222.049 37.1872 221.84 37.318 221.458 37.318V38.6272ZM223.309 37.6328C223.7 37.0184 223.851 36.1869 223.851 35.2285H222.542C222.542 36.0855 222.4 36.6226 222.205 36.9299L223.309 37.6328ZM223.851 35.2285C223.851 34.2049 223.782 33.3305 223.633 32.6178C223.487 31.9157 223.251 31.3073 222.87 30.8771L221.89 31.7455C222.053 31.9298 222.226 32.2814 222.352 32.8851C222.475 33.4781 222.542 34.2551 222.542 35.2285H223.851ZM222.864 30.871C222.24 30.184 220.79 29.1134 218.612 27.6847L217.894 28.7793C220.101 30.2274 221.403 31.2096 221.895 31.7516L222.864 30.871ZM218.615 27.6863C216.418 26.2312 215.008 25.2035 214.34 24.5876L213.452 25.5503C214.209 26.2471 215.703 27.3281 217.892 28.7777L218.615 27.6863ZM214.34 24.5876C213.715 24.0123 213.17 23.1931 212.721 22.0976L211.51 22.5939C212.011 23.8166 212.652 24.8129 213.452 25.5503L214.34 24.5876ZM212.724 22.1039C212.304 21.0479 212.079 19.6573 212.079 17.9049H210.77C210.77 19.7555 211.005 21.3254 211.507 22.5876L212.724 22.1039ZM212.079 17.9049C212.079 15.335 212.408 13.5731 212.983 12.5211L211.834 11.8933C211.097 13.2432 210.77 15.2797 210.77 17.9049H212.079ZM212.98 12.5262C213.571 11.4686 214.528 10.6198 215.905 9.99648L215.365 8.80391C213.781 9.5212 212.588 10.5438 211.837 11.8881L212.98 12.5262ZM215.909 9.99435C217.283 9.3595 218.971 9.02834 220.997 9.02834V7.7192C218.834 7.7192 216.947 8.07233 215.36 8.80604L215.909 9.99435ZM220.997 9.02834C223.22 9.02834 225.069 9.38778 226.568 10.0785L227.116 8.88951C225.402 8.09991 223.355 7.7192 220.997 7.7192V9.02834ZM226.57 10.0794C228.107 10.7819 229.023 11.626 229.451 12.5629L230.642 12.019C230.037 10.6936 228.816 9.66632 227.114 8.88862L226.57 10.0794ZM229.455 12.5718C229.918 13.5464 230.188 15.3232 230.188 18.0096H231.497C231.497 15.3056 231.236 13.2699 230.638 12.0101L229.455 12.5718ZM230.188 18.0096V19.3503H231.497V18.0096H230.188ZM239.745 36.0873H240.4V35.4328H239.745V36.0873ZM239.745 43V43.6546H240.4V43H239.745ZM233.356 43H232.702V43.6546H233.356V43ZM233.356 36.0873V35.4328H232.702V36.0873H233.356ZM239.091 36.0873V43H240.4V36.0873H239.091ZM239.745 42.3454H233.356V43.6546H239.745V42.3454ZM234.011 43V36.0873H232.702V43H234.011ZM233.356 36.7419H239.745V35.4328H233.356V36.7419ZM257.509 9.08598L258.156 8.98961L258.073 8.43141H257.509V9.08598ZM262.557 43V43.6546H263.316L263.205 42.9036L262.557 43ZM253.529 43L252.876 43.0471L252.92 43.6546H253.529V43ZM253.089 36.9043L253.742 36.8572L253.698 36.2497H253.089V36.9043ZM249.926 36.9043V36.2497H249.325L249.274 36.8482L249.926 36.9043ZM249.402 43V43.6546H250.003L250.054 43.056L249.402 43ZM240.269 43L239.62 42.9142L239.522 43.6546H240.269V43ZM244.752 9.08598V8.43141H244.178L244.103 9.00021L244.752 9.08598ZM252.837 30.8923V31.5469H253.573L253.488 30.8167L252.837 30.8923ZM251.497 16.669L252.149 16.6173L251.673 10.602L250.848 16.5795L251.497 16.669ZM249.821 30.8923L249.168 30.8438L249.116 31.5469H249.821V30.8923ZM256.861 9.18236L261.91 43.0964L263.205 42.9036L258.156 8.98961L256.861 9.18236ZM262.557 42.3454H253.529V43.6546H262.557V42.3454ZM254.182 42.9529L253.742 36.8572L252.436 36.9514L252.876 43.0471L254.182 42.9529ZM253.089 36.2497H249.926V37.5588H253.089V36.2497ZM249.274 36.8482L248.75 42.944L250.054 43.056L250.578 36.9603L249.274 36.8482ZM249.402 42.3454H240.269V43.6546H249.402V42.3454ZM240.918 43.0858L245.401 9.17176L244.103 9.00021L239.62 42.9142L240.918 43.0858ZM244.752 9.74055H257.509V8.43141H244.752V9.74055ZM253.488 30.8167C253.042 26.987 252.596 22.2545 252.149 16.6173L250.844 16.7207C251.292 22.3672 251.739 27.1169 252.187 30.968L253.488 30.8167ZM250.848 16.5795C249.954 23.061 249.393 27.8194 249.168 30.8438L250.474 30.9409C250.696 27.9603 251.252 23.2365 252.145 16.7584L250.848 16.5795ZM249.821 31.5469H252.837V30.2378H249.821V31.5469ZM270.538 36.0873H271.193V35.4328H270.538V36.0873ZM270.538 43V43.6546H271.193V43H270.538ZM264.149 43H263.495V43.6546H264.149V43ZM264.149 36.0873V35.4328H263.495V36.0873H264.149ZM269.884 36.0873V43H271.193V36.0873H269.884ZM270.538 42.3454H264.149V43.6546H270.538V42.3454ZM264.804 43V36.0873H263.495V43H264.804ZM264.149 36.7419H270.538V35.4328H264.149V36.7419Z" fill="white"/>
<path d="M47.3674 10.0185H62.6277V17.0618H56.5192V23.7354H62.2364V30.4308H56.5192V38.1697H63.2364V45.2129H47.3674V10.0185ZM65.8885 10.0185H72.3665C76.6852 10.0185 79.6053 10.1852 81.127 10.5185C82.6632 10.8518 83.9095 11.7069 84.866 13.0836C85.837 14.4459 86.3225 16.627 86.3225 19.6269C86.3225 22.3659 85.9819 24.2064 85.3008 25.1484C84.6197 26.0904 83.2791 26.6556 81.2792 26.844C83.0907 27.2933 84.3081 27.8947 84.9312 28.6483C85.5544 29.4019 85.9384 30.0975 86.0834 30.7352C86.2428 31.3583 86.3225 33.0901 86.3225 35.9306V45.2129H77.8228V33.5177C77.8228 31.6337 77.6706 30.4671 77.3663 30.0178C77.0765 29.5685 76.3011 29.3439 75.0403 29.3439V45.2129H65.8885V10.0185ZM75.0403 16.0401V23.8659C76.0692 23.8659 76.7866 23.7282 77.1924 23.4528C77.6127 23.163 77.8228 22.2427 77.8228 20.6921V18.7573C77.8228 17.6414 77.6199 16.9096 77.2141 16.5618C76.8228 16.214 76.0982 16.0401 75.0403 16.0401ZM89.8876 10.0185H96.3656C100.684 10.0185 103.604 10.1852 105.126 10.5185C106.662 10.8518 107.909 11.7069 108.865 13.0836C109.836 14.4459 110.322 16.627 110.322 19.6269C110.322 22.3659 109.981 24.2064 109.3 25.1484C108.619 26.0904 107.278 26.6556 105.278 26.844C107.09 27.2933 108.307 27.8947 108.93 28.6483C109.554 29.4019 109.938 30.0975 110.082 30.7352C110.242 31.3583 110.322 33.0901 110.322 35.9306V45.2129H101.822V33.5177C101.822 31.6337 101.67 30.4671 101.365 30.0178C101.076 29.5685 100.3 29.3439 99.0394 29.3439V45.2129H89.8876V10.0185ZM99.0394 16.0401V23.8659C100.068 23.8659 100.786 23.7282 101.192 23.4528C101.612 23.163 101.822 22.2427 101.822 20.6921V18.7573C101.822 17.6414 101.619 16.9096 101.213 16.5618C100.822 16.214 100.097 16.0401 99.0394 16.0401ZM129.69 10.0185L134.929 45.2129H125.56L125.104 38.887H121.821L121.278 45.2129H111.8L116.452 10.0185H129.69ZM124.843 32.6481C124.379 28.6628 123.915 23.7427 123.452 17.8878C122.524 24.6122 121.944 29.5323 121.712 32.6481H124.843ZM157.863 25.3658H148.711V19.2356C148.711 17.453 148.61 16.3444 148.407 15.9096C148.219 15.4604 147.791 15.2357 147.125 15.2357C146.371 15.2357 145.893 15.5038 145.69 16.0401C145.487 16.5763 145.386 17.7356 145.386 19.5182V35.8654C145.386 37.5755 145.487 38.6914 145.69 39.2131C145.893 39.7348 146.349 39.9957 147.059 39.9957C147.741 39.9957 148.183 39.7348 148.385 39.2131C148.603 38.6914 148.711 37.4668 148.711 35.5393V31.1265H157.863V32.496C157.863 36.1335 157.602 38.7131 157.081 40.2348C156.574 41.7565 155.436 43.0898 153.668 44.2347C151.914 45.3796 149.748 45.952 147.168 45.952C144.487 45.952 142.277 45.4665 140.538 44.4955C138.799 43.5245 137.647 42.184 137.081 40.4739C136.516 38.7494 136.234 36.1625 136.234 32.7134V22.4311C136.234 19.895 136.321 17.9965 136.495 16.7357C136.668 15.4604 137.183 14.2358 138.038 13.0619C138.908 11.888 140.103 10.9678 141.625 10.3011C143.161 9.62 144.922 9.27943 146.907 9.27943C149.603 9.27943 151.827 9.80115 153.581 10.8446C155.334 11.888 156.487 13.1923 157.037 14.7575C157.588 16.3082 157.863 18.7284 157.863 22.0181V25.3658ZM182.058 30.6265C182.058 34.1626 181.971 36.6697 181.797 38.1479C181.638 39.6116 181.116 40.9522 180.232 42.1695C179.363 43.3869 178.181 44.3216 176.689 44.9738C175.196 45.6259 173.457 45.952 171.472 45.952C169.588 45.952 167.892 45.6477 166.385 45.039C164.892 44.4158 163.689 43.4883 162.776 42.2565C161.863 41.0246 161.32 39.6841 161.146 38.2349C160.972 36.7857 160.885 34.2495 160.885 30.6265V24.605C160.885 21.0689 160.965 18.5689 161.124 17.1052C161.298 15.627 161.82 14.2792 162.689 13.0619C163.573 11.8446 164.762 10.9098 166.254 10.2577C167.747 9.60551 169.486 9.27943 171.472 9.27943C173.356 9.27943 175.044 9.59101 176.537 10.2142C178.044 10.8229 179.254 11.7431 180.167 12.9749C181.08 14.2068 181.623 15.5473 181.797 16.9965C181.971 18.4458 182.058 20.9819 182.058 24.605V30.6265ZM172.906 19.0617C172.906 17.4241 172.812 16.3806 172.624 15.9314C172.45 15.4676 172.08 15.2357 171.515 15.2357C171.037 15.2357 170.667 15.4241 170.406 15.8009C170.16 16.1632 170.037 17.2502 170.037 19.0617V35.4959C170.037 37.5393 170.117 38.8001 170.276 39.2783C170.45 39.7566 170.841 39.9957 171.45 39.9957C172.073 39.9957 172.471 39.7203 172.645 39.1696C172.819 38.6189 172.906 37.3074 172.906 35.235V19.0617ZM194.645 10.0185V38.1697H200.21V45.2129H185.493V10.0185H194.645Z" fill="#35284F"/>
<path d="M47.3674 10.0185V9.39114H46.74V10.0185H47.3674ZM62.6277 10.0185H63.2551V9.39114H62.6277V10.0185ZM62.6277 17.0618V17.6892H63.2551V17.0618H62.6277ZM56.5192 17.0618V16.4344H55.8918V17.0618H56.5192ZM56.5192 23.7354H55.8918V24.3628H56.5192V23.7354ZM62.2364 23.7354H62.8638V23.108H62.2364V23.7354ZM62.2364 30.4308V31.0582H62.8638V30.4308H62.2364ZM56.5192 30.4308V29.8034H55.8918V30.4308H56.5192ZM56.5192 38.1697H55.8918V38.7971H56.5192V38.1697ZM63.2364 38.1697H63.8638V37.5423H63.2364V38.1697ZM63.2364 45.2129V45.8403H63.8638V45.2129H63.2364ZM47.3674 45.2129H46.74V45.8403H47.3674V45.2129ZM47.3674 10.6459H62.6277V9.39114H47.3674V10.6459ZM62.0003 10.0185V17.0618H63.2551V10.0185H62.0003ZM62.6277 16.4344H56.5192V17.6892H62.6277V16.4344ZM55.8918 17.0618V23.7354H57.1466V17.0618H55.8918ZM56.5192 24.3628H62.2364V23.108H56.5192V24.3628ZM61.609 23.7354V30.4308H62.8638V23.7354H61.609ZM62.2364 29.8034H56.5192V31.0582H62.2364V29.8034ZM55.8918 30.4308V38.1697H57.1466V30.4308H55.8918ZM56.5192 38.7971H63.2364V37.5423H56.5192V38.7971ZM62.609 38.1697V45.2129H63.8638V38.1697H62.609ZM63.2364 44.5855H47.3674V45.8403H63.2364V44.5855ZM47.9948 45.2129V10.0185H46.74V45.2129H47.9948ZM65.8885 10.0185V9.39114H65.2611V10.0185H65.8885ZM81.127 10.5185L80.9928 11.1314L80.994 11.1316L81.127 10.5185ZM84.866 13.0836L84.3507 13.4416L84.3551 13.4478L84.866 13.0836ZM81.2792 26.844L81.2204 26.2194L77.5487 26.5652L81.1282 27.453L81.2792 26.844ZM84.9312 28.6483L85.4147 28.2485L84.9312 28.6483ZM86.0834 30.7352L85.4716 30.8742L85.4734 30.8825L85.4755 30.8907L86.0834 30.7352ZM86.3225 45.2129V45.8403H86.9499V45.2129H86.3225ZM77.8228 45.2129H77.1954V45.8403H77.8228V45.2129ZM77.3663 30.0178L76.839 30.358L76.8469 30.3697L77.3663 30.0178ZM75.0403 29.3439V28.7165H74.4129V29.3439H75.0403ZM75.0403 45.2129V45.8403H75.6677V45.2129H75.0403ZM65.8885 45.2129H65.2611V45.8403H65.8885V45.2129ZM75.0403 16.0401V15.4127H74.4129V16.0401H75.0403ZM75.0403 23.8659H74.4129V24.4932H75.0403V23.8659ZM77.1924 23.4528L77.5447 23.972L77.5486 23.9693L77.1924 23.4528ZM77.2141 16.5618L76.7972 17.0308L76.8058 17.0381L77.2141 16.5618ZM65.8885 10.6459H72.3665V9.39114H65.8885V10.6459ZM72.3665 10.6459C76.6928 10.6459 79.5471 10.8147 80.9928 11.1314L81.2613 9.90565C79.6636 9.55567 76.6775 9.39114 72.3665 9.39114V10.6459ZM80.994 11.1316C82.3641 11.4289 83.4782 12.1857 84.3508 13.4416L85.3813 12.7257C84.3408 11.2281 82.9623 10.2747 81.2601 9.90539L80.994 11.1316ZM84.3551 13.4478C85.2107 14.6482 85.6951 16.6668 85.6951 19.6269H86.9499C86.9499 16.5872 86.4633 14.2436 85.3769 12.7195L84.3551 13.4478ZM85.6951 19.6269C85.6951 20.974 85.6111 22.0777 85.4501 22.9474C85.2876 23.8257 85.0551 24.4175 84.7924 24.7808L85.8092 25.516C86.2276 24.9374 86.5059 24.1379 86.684 23.1757C86.8636 22.2049 86.9499 21.0188 86.9499 19.6269H85.6951ZM84.7924 24.7808C84.2731 25.4989 83.1648 26.0362 81.2204 26.2194L81.338 27.4686C83.3935 27.275 84.9662 26.6819 85.8092 25.516L84.7924 24.7808ZM81.1282 27.453C82.9105 27.895 83.9587 28.4567 84.4477 29.0481L85.4147 28.2485C84.6575 27.3327 83.2709 26.6915 81.4302 26.2351L81.1282 27.453ZM84.4477 29.0481C85.0368 29.7604 85.3565 30.368 85.4716 30.8742L86.6952 30.5961C86.5204 29.827 86.072 29.0434 85.4147 28.2485L84.4477 29.0481ZM85.4755 30.8907C85.5371 31.1313 85.5959 31.6585 85.636 32.5302C85.6752 33.3825 85.6951 34.5148 85.6951 35.9306H86.9499C86.9499 34.506 86.9299 33.3522 86.8894 32.4726C86.8499 31.6124 86.7891 30.9622 86.6912 30.5797L85.4755 30.8907ZM85.6951 35.9306V45.2129H86.9499V35.9306H85.6951ZM86.3225 44.5855H77.8228V45.8403H86.3225V44.5855ZM78.4502 45.2129V33.5177H77.1954V45.2129H78.4502ZM78.4502 33.5177C78.4502 32.5626 78.4118 31.7698 78.3308 31.1486C78.2535 30.5562 78.127 30.0221 77.8857 29.6659L76.8469 30.3697C76.9099 30.4627 77.0116 30.7366 77.0865 31.3109C77.1577 31.8562 77.1954 32.5888 77.1954 33.5177H78.4502ZM77.8935 29.6777C77.6336 29.2748 77.2034 29.0435 76.742 28.9098C76.2751 28.7745 75.7006 28.7165 75.0403 28.7165V29.9713C75.6408 29.9713 76.0844 30.0256 76.3928 30.115C76.7067 30.2059 76.8092 30.3115 76.8391 30.3579L77.8935 29.6777ZM74.4129 29.3439V45.2129H75.6677V29.3439H74.4129ZM75.0403 44.5855H65.8885V45.8403H75.0403V44.5855ZM66.5159 45.2129V10.0185H65.2611V45.2129H66.5159ZM74.4129 16.0401V23.8659H75.6677V16.0401H74.4129ZM75.0403 24.4932C76.0834 24.4932 76.9704 24.3617 77.5447 23.972L76.8401 22.9337C76.6028 23.0947 76.0551 23.2385 75.0403 23.2385V24.4932ZM77.5486 23.9693C77.9606 23.6852 78.1633 23.1824 78.2769 22.6849C78.3969 22.1592 78.4502 21.4885 78.4502 20.6921H77.1954C77.1954 21.4463 77.1436 22.011 77.0535 22.4056C77.0087 22.6018 76.9584 22.7378 76.9118 22.8274C76.865 22.9172 76.8335 22.9382 76.8362 22.9363L77.5486 23.9693ZM78.4502 20.6921V18.7573H77.1954V20.6921H78.4502ZM78.4502 18.7573C78.4502 18.1666 78.3971 17.6435 78.2752 17.2039C78.1539 16.7663 77.9521 16.368 77.6224 16.0854L76.8058 17.0381C76.882 17.1034 76.9845 17.2449 77.066 17.5391C77.1471 17.8314 77.1954 18.2321 77.1954 18.7573H78.4502ZM77.6309 16.0928C77.0539 15.5799 76.1187 15.4127 75.0403 15.4127V16.6674C76.0778 16.6674 76.5918 16.848 76.7973 17.0307L77.6309 16.0928ZM89.8876 10.0185V9.39114H89.2602V10.0185H89.8876ZM105.126 10.5185L104.992 11.1314L104.993 11.1316L105.126 10.5185ZM108.865 13.0836L108.35 13.4416L108.354 13.4478L108.865 13.0836ZM105.278 26.844L105.219 26.2194L101.548 26.5652L105.127 27.453L105.278 26.844ZM108.93 28.6483L109.414 28.2485L108.93 28.6483ZM110.082 30.7352L109.471 30.8742L109.473 30.8825L109.475 30.8907L110.082 30.7352ZM110.322 45.2129V45.8403H110.949V45.2129H110.322ZM101.822 45.2129H101.195V45.8403H101.822V45.2129ZM101.365 30.0178L100.838 30.358L100.846 30.3697L101.365 30.0178ZM99.0394 29.3439V28.7165H98.412V29.3439H99.0394ZM99.0394 45.2129V45.8403H99.6668V45.2129H99.0394ZM89.8876 45.2129H89.2602V45.8403H89.8876V45.2129ZM99.0394 16.0401V15.4127H98.412V16.0401H99.0394ZM99.0394 23.8659H98.412V24.4932H99.0394V23.8659ZM101.192 23.4528L101.544 23.972L101.548 23.9693L101.192 23.4528ZM101.213 16.5618L100.796 17.0308L100.805 17.0381L101.213 16.5618ZM89.8876 10.6459H96.3656V9.39114H89.8876V10.6459ZM96.3656 10.6459C100.692 10.6459 103.546 10.8147 104.992 11.1314L105.26 9.90565C103.663 9.55567 100.677 9.39114 96.3656 9.39114V10.6459ZM104.993 11.1316C106.363 11.4289 107.477 12.1857 108.35 13.4416L109.38 12.7257C108.34 11.2281 106.961 10.2747 105.259 9.90539L104.993 11.1316ZM108.354 13.4478C109.21 14.6482 109.694 16.6668 109.694 19.6269H110.949C110.949 16.5872 110.462 14.2436 109.376 12.7195L108.354 13.4478ZM109.694 19.6269C109.694 20.974 109.61 22.0777 109.449 22.9474C109.287 23.8257 109.054 24.4175 108.791 24.7808L109.808 25.516C110.227 24.9374 110.505 24.1379 110.683 23.1757C110.863 22.2049 110.949 21.0188 110.949 19.6269H109.694ZM108.791 24.7808C108.272 25.4989 107.164 26.0362 105.219 26.2194L105.337 27.4686C107.393 27.275 108.965 26.6819 109.808 25.516L108.791 24.7808ZM105.127 27.453C106.91 27.895 107.958 28.4567 108.447 29.0481L109.414 28.2485C108.657 27.3327 107.27 26.6915 105.429 26.2351L105.127 27.453ZM108.447 29.0481C109.036 29.7604 109.356 30.368 109.471 30.8742L110.694 30.5961C110.519 29.827 110.071 29.0434 109.414 28.2485L108.447 29.0481ZM109.475 30.8907C109.536 31.1313 109.595 31.6585 109.635 32.5302C109.674 33.3825 109.694 34.5148 109.694 35.9306H110.949C110.949 34.506 110.929 33.3522 110.889 32.4726C110.849 31.6124 110.788 30.9622 110.69 30.5797L109.475 30.8907ZM109.694 35.9306V45.2129H110.949V35.9306H109.694ZM110.322 44.5855H101.822V45.8403H110.322V44.5855ZM102.449 45.2129V33.5177H101.195V45.2129H102.449ZM102.449 33.5177C102.449 32.5626 102.411 31.7698 102.33 31.1486C102.253 30.5562 102.126 30.0221 101.885 29.6659L100.846 30.3697C100.909 30.4627 101.011 30.7366 101.086 31.3109C101.157 31.8562 101.195 32.5888 101.195 33.5177H102.449ZM101.893 29.6777C101.633 29.2748 101.203 29.0435 100.741 28.9098C100.274 28.7745 99.6997 28.7165 99.0394 28.7165V29.9713C99.6399 29.9713 100.083 30.0256 100.392 30.115C100.706 30.2059 100.808 30.3115 100.838 30.3579L101.893 29.6777ZM98.412 29.3439V45.2129H99.6668V29.3439H98.412ZM99.0394 44.5855H89.8876V45.8403H99.0394V44.5855ZM90.515 45.2129V10.0185H89.2602V45.2129H90.515ZM98.412 16.0401V23.8659H99.6668V16.0401H98.412ZM99.0394 24.4932C100.082 24.4932 100.97 24.3617 101.544 23.972L100.839 22.9337C100.602 23.0947 100.054 23.2385 99.0394 23.2385V24.4932ZM101.548 23.9693C101.96 23.6852 102.162 23.1824 102.276 22.6849C102.396 22.1592 102.449 21.4885 102.449 20.6921H101.195C101.195 21.4463 101.143 22.011 101.053 22.4056C101.008 22.6018 100.958 22.7378 100.911 22.8274C100.864 22.9172 100.833 22.9382 100.835 22.9363L101.548 23.9693ZM102.449 20.6921V18.7573H101.195V20.6921H102.449ZM102.449 18.7573C102.449 18.1666 102.396 17.6435 102.274 17.2039C102.153 16.7663 101.951 16.368 101.622 16.0854L100.805 17.0381C100.881 17.1034 100.984 17.2449 101.065 17.5391C101.146 17.8314 101.195 18.2321 101.195 18.7573H102.449ZM101.63 16.0928C101.053 15.5799 100.118 15.4127 99.0394 15.4127V16.6674C100.077 16.6674 100.591 16.848 100.796 17.0307L101.63 16.0928ZM129.69 10.0185L130.311 9.92616L130.231 9.39114H129.69V10.0185ZM134.929 45.2129V45.8403H135.657L135.55 45.1205L134.929 45.2129ZM125.56 45.2129L124.934 45.258L124.976 45.8403H125.56V45.2129ZM125.104 38.887L125.729 38.8419L125.687 38.2596H125.104V38.887ZM121.821 38.887V38.2596H121.245L121.196 38.8333L121.821 38.887ZM121.278 45.2129V45.8403H121.854L121.903 45.2666L121.278 45.2129ZM111.8 45.2129L111.178 45.1307L111.084 45.8403H111.8V45.2129ZM116.452 10.0185V9.39114H115.902L115.83 9.93632L116.452 10.0185ZM124.843 32.6481V33.2755H125.547L125.466 32.5756L124.843 32.6481ZM123.452 17.8878L124.077 17.8383L123.62 12.0726L122.83 17.8021L123.452 17.8878ZM121.712 32.6481L121.087 32.6016L121.037 33.2755H121.712V32.6481ZM129.07 10.1109L134.309 45.3053L135.55 45.1205L130.311 9.92616L129.07 10.1109ZM134.929 44.5855H125.56V45.8403H134.929V44.5855ZM126.186 45.1677L125.729 38.8419L124.478 38.9322L124.934 45.258L126.186 45.1677ZM125.104 38.2596H121.821V39.5144H125.104V38.2596ZM121.196 38.8333L120.653 45.1592L121.903 45.2666L122.446 38.9407L121.196 38.8333ZM121.278 44.5855H111.8V45.8403H121.278V44.5855ZM112.422 45.2951L117.074 10.1007L115.83 9.93632L111.178 45.1307L112.422 45.2951ZM116.452 10.6459H129.69V9.39114H116.452V10.6459ZM125.466 32.5756C125.003 28.6005 124.54 23.6886 124.077 17.8383L122.826 17.9373C123.29 23.7967 123.755 28.725 124.22 32.7207L125.466 32.5756ZM122.83 17.8021C121.902 24.5281 121.32 29.4648 121.087 32.6016L122.338 32.6947C122.568 29.5999 123.146 24.6963 124.073 17.9735L122.83 17.8021ZM121.712 33.2755H124.843V32.0207H121.712V33.2755ZM157.863 25.3658V25.9932H158.491V25.3658H157.863ZM148.711 25.3658H148.084V25.9932H148.711V25.3658ZM148.407 15.9096L147.829 16.1523L147.833 16.1637L147.839 16.1749L148.407 15.9096ZM145.69 16.0401L145.103 15.818L145.69 16.0401ZM145.69 39.2131L145.105 39.4405L145.69 39.2131ZM148.385 39.2131L147.806 38.9718L147.803 38.9787L147.801 38.9857L148.385 39.2131ZM148.711 31.1265V30.4991H148.084V31.1265H148.711ZM157.863 31.1265H158.491V30.4991H157.863V31.1265ZM157.081 40.2348L156.487 40.0313L156.486 40.0364L157.081 40.2348ZM153.668 44.2347L153.327 43.708L153.325 43.7093L153.668 44.2347ZM137.081 40.4739L136.485 40.6693L136.486 40.6708L137.081 40.4739ZM136.495 16.7357L137.116 16.8214L137.116 16.8204L136.495 16.7357ZM138.038 13.0619L137.534 12.6884L137.531 12.6925L138.038 13.0619ZM141.625 10.3011L141.877 10.8758L141.879 10.8747L141.625 10.3011ZM157.037 14.7575L156.445 14.9657L156.446 14.9675L157.037 14.7575ZM157.863 24.7384H148.711V25.9932H157.863V24.7384ZM149.339 25.3658V19.2356H148.084V25.3658H149.339ZM149.339 19.2356C149.339 18.3351 149.313 17.5911 149.26 17.01C149.209 16.4537 149.128 15.97 148.976 15.6443L147.839 16.1749C147.89 16.284 147.96 16.572 148.011 17.1244C148.059 17.6519 148.084 18.3535 148.084 19.2356H149.339ZM148.986 15.667C148.836 15.3092 148.581 15.0296 148.237 14.8488C147.906 14.6747 147.523 14.6083 147.125 14.6083V15.8631C147.393 15.8631 147.557 15.9091 147.653 15.9596C147.737 16.0035 147.79 16.0607 147.829 16.1523L148.986 15.667ZM147.125 14.6083C146.679 14.6083 146.255 14.6869 145.894 14.8895C145.52 15.0992 145.254 15.4188 145.103 15.818L146.277 16.2621C146.328 16.1251 146.403 16.0425 146.508 15.9841C146.624 15.9186 146.817 15.8631 147.125 15.8631V14.6083ZM145.103 15.818C144.97 16.1706 144.888 16.6662 144.837 17.2571C144.784 17.8618 144.758 18.6171 144.758 19.5182H146.013C146.013 18.6367 146.038 17.9211 146.087 17.3664C146.136 16.7979 146.207 16.4457 146.277 16.2621L145.103 15.818ZM144.758 19.5182V35.8654H146.013V19.5182H144.758ZM144.758 35.8654C144.758 36.7307 144.784 37.4578 144.837 38.0417C144.889 38.612 144.97 39.0941 145.105 39.4405L146.275 38.9857C146.206 38.8104 146.136 38.4737 146.086 37.9281C146.038 37.3961 146.013 36.7102 146.013 35.8654H144.758ZM145.105 39.4405C145.255 39.826 145.512 40.1382 145.873 40.3448C146.224 40.5451 146.632 40.6231 147.059 40.6231V39.3683C146.777 39.3683 146.602 39.3158 146.496 39.2553C146.401 39.201 146.328 39.1219 146.275 38.9857L145.105 39.4405ZM147.059 40.6231C147.477 40.6231 147.876 40.5435 148.221 40.3404C148.574 40.1318 148.823 39.8199 148.97 39.4405L147.801 38.9857C147.745 39.1281 147.671 39.2074 147.583 39.2597C147.485 39.3174 147.323 39.3683 147.059 39.3683V40.6231ZM148.965 39.4544C149.113 39.098 149.2 38.5781 149.255 37.9588C149.312 37.3208 149.339 36.5125 149.339 35.5393H148.084C148.084 36.4937 148.057 37.2613 148.005 37.8479C147.951 38.4533 147.875 38.8065 147.806 38.9718L148.965 39.4544ZM149.339 35.5393V31.1265H148.084V35.5393H149.339ZM148.711 31.7538H157.863V30.4991H148.711V31.7538ZM157.236 31.1265V32.496H158.491V31.1265H157.236ZM157.236 32.496C157.236 36.1294 156.972 38.6168 156.487 40.0313L157.674 40.4383C158.233 38.8095 158.491 36.1377 158.491 32.496H157.236ZM156.486 40.0364C156.036 41.3858 155.013 42.6162 153.327 43.708L154.009 44.7613C155.859 43.5634 157.111 42.1272 157.676 40.4332L156.486 40.0364ZM153.325 43.7093C151.695 44.7736 149.654 45.3246 147.168 45.3246V46.5794C149.841 46.5794 152.134 45.9855 154.011 44.76L153.325 43.7093ZM147.168 45.3246C144.558 45.3246 142.462 44.8515 140.844 43.9477L140.232 45.0433C142.091 46.0815 144.416 46.5794 147.168 46.5794V45.3246ZM140.844 43.9477C139.226 43.0445 138.188 41.8217 137.677 40.277L136.486 40.6708C137.106 42.5463 138.372 44.0046 140.232 45.0433L140.844 43.9477ZM137.678 40.2785C137.144 38.6507 136.861 36.1446 136.861 32.7134H135.606C135.606 36.1804 135.888 38.848 136.485 40.6693L137.678 40.2785ZM136.861 32.7134V22.4311H135.606V32.7134H136.861ZM136.861 22.4311C136.861 19.9014 136.948 18.038 137.116 16.8214L135.873 16.65C135.693 17.955 135.606 19.8886 135.606 22.4311H136.861ZM137.116 16.8204C137.274 15.6606 137.743 14.5321 138.545 13.4313L137.531 12.6925C136.623 13.9394 136.063 15.2601 135.873 16.6509L137.116 16.8204ZM138.542 13.4353C139.338 12.3609 140.441 11.5047 141.877 10.8758L141.373 9.72646C139.765 10.4309 138.477 11.4151 137.534 12.6885L138.542 13.4353ZM141.879 10.8747C143.322 10.2349 144.994 9.90683 146.907 9.90683V8.65203C144.85 8.65203 143 9.00509 141.37 9.72759L141.879 10.8747ZM146.907 9.90683C149.525 9.90683 151.63 10.4138 153.26 11.3838L153.902 10.3054C152.025 9.18854 149.68 8.65203 146.907 8.65203V9.90683ZM153.26 11.3838C154.917 12.3699 155.954 13.5689 156.445 14.9657L157.629 14.5493C157.019 12.8157 155.752 11.4062 153.902 10.3054L153.26 11.3838ZM156.446 14.9675C156.959 16.4125 157.236 18.7432 157.236 22.0181H158.491C158.491 18.7136 158.217 16.2038 157.628 14.5475L156.446 14.9675ZM157.236 22.0181V25.3658H158.491V22.0181H157.236ZM181.797 38.1479L181.174 38.0746L181.174 38.08L181.797 38.1479ZM180.232 42.1695L179.724 41.8009L179.722 41.8049L180.232 42.1695ZM166.385 45.039L166.143 45.618L166.15 45.6207L166.385 45.039ZM161.146 38.2349L160.523 38.3096L161.146 38.2349ZM161.124 17.1052L160.501 17.0319L160.5 17.0373L161.124 17.1052ZM162.689 13.0619L162.182 12.6932L162.179 12.6972L162.689 13.0619ZM166.254 10.2577L166.003 9.68273L166.254 10.2577ZM176.537 10.2142L176.295 10.7932L176.302 10.7959L176.537 10.2142ZM180.167 12.9749L179.663 13.3485L180.167 12.9749ZM172.624 15.9314L172.036 16.1517L172.04 16.1629L172.045 16.174L172.624 15.9314ZM170.406 15.8009L169.89 15.4438L169.888 15.4481L170.406 15.8009ZM170.276 39.2783L169.681 39.4767L169.683 39.4848L169.686 39.4927L170.276 39.2783ZM172.645 39.1696L172.047 38.9807L172.645 39.1696ZM181.431 30.6265C181.431 34.1622 181.343 36.6366 181.174 38.0746L182.42 38.2212C182.599 36.7029 182.685 34.163 182.685 30.6265H181.431ZM181.174 38.08C181.026 39.4326 180.546 40.6699 179.724 41.8009L180.74 42.5382C181.687 41.2344 182.249 39.7907 182.421 38.2159L181.174 38.08ZM179.722 41.8049C178.924 42.9219 177.836 43.7879 176.438 44.3988L176.94 45.5487C178.527 44.8553 179.801 43.8519 180.743 42.5342L179.722 41.8049ZM176.438 44.3988C175.039 45.0097 173.389 45.3246 171.472 45.3246V46.5794C173.525 46.5794 175.353 46.2422 176.94 45.5487L176.438 44.3988ZM171.472 45.3246C169.655 45.3246 168.041 45.0314 166.62 44.4572L166.15 45.6207C167.743 46.264 169.52 46.5794 171.472 46.5794V45.3246ZM166.626 44.46C165.232 43.8779 164.122 43.0188 163.28 41.8829L162.272 42.6301C163.256 43.9578 164.552 44.9537 166.143 45.618L166.626 44.46ZM163.28 41.8829C162.429 40.734 161.929 39.4956 161.769 38.1601L160.523 38.3096C160.71 39.8726 161.298 41.3152 162.272 42.6301L163.28 41.8829ZM161.769 38.1601C161.6 36.7524 161.512 34.2504 161.512 30.6265H160.258C160.258 34.2487 160.344 36.8189 160.523 38.3096L161.769 38.1601ZM161.512 30.6265V24.605H160.258V30.6265H161.512ZM161.512 24.605C161.512 21.0689 161.592 18.5995 161.748 17.1732L160.5 17.0373C160.337 18.5384 160.258 21.0688 160.258 24.605H161.512ZM161.747 17.1785C161.909 15.8059 162.391 14.5583 163.2 13.4266L162.179 12.6972C161.248 14.0002 160.687 15.4481 160.501 17.0319L161.747 17.1785ZM163.197 13.4306C164.01 12.311 165.106 11.4438 166.506 10.8326L166.003 9.68273C164.417 10.3758 163.137 11.3781 162.182 12.6932L163.197 13.4306ZM166.506 10.8326C167.904 10.2217 169.554 9.90683 171.472 9.90683V8.65203C169.418 8.65203 167.59 8.98927 166.003 9.68273L166.506 10.8326ZM171.472 9.90683C173.286 9.90683 174.89 10.2068 176.295 10.7931L176.778 9.63521C175.197 8.97526 173.425 8.65203 171.472 8.65203V9.90683ZM176.302 10.7959C177.708 11.364 178.823 12.2152 179.663 13.3485L180.671 12.6014C179.685 11.271 178.379 10.2817 176.771 9.63243L176.302 10.7959ZM179.663 13.3485C180.514 14.4974 181.014 15.7359 181.174 17.0713L182.42 16.9218C182.233 15.3588 181.645 13.9162 180.671 12.6014L179.663 13.3485ZM181.174 17.0713C181.343 18.479 181.431 20.981 181.431 24.605H182.685C182.685 20.9828 182.599 18.4125 182.42 16.9218L181.174 17.0713ZM181.431 24.605V30.6265H182.685V24.605H181.431ZM173.534 19.0617C173.534 18.2332 173.51 17.5423 173.46 16.9945C173.413 16.4649 173.336 16.0087 173.202 15.6887L172.045 16.174C172.099 16.3033 172.164 16.5934 172.211 17.1073C172.255 17.6029 172.279 18.2525 172.279 19.0617H173.534ZM173.211 15.7111C173.083 15.3687 172.866 15.0769 172.55 14.8782C172.239 14.6835 171.881 14.6083 171.515 14.6083V15.8631C171.714 15.8631 171.823 15.9039 171.883 15.9411C171.935 15.9742 171.991 16.0303 172.036 16.1517L173.211 15.7111ZM171.515 14.6083C170.842 14.6083 170.274 14.8892 169.891 15.4438L170.922 16.1581C171.06 15.9591 171.232 15.8631 171.515 15.8631V14.6083ZM169.888 15.4481C169.766 15.6269 169.69 15.8443 169.637 16.0535C169.581 16.2719 169.538 16.5288 169.506 16.8172C169.44 17.3943 169.409 18.1454 169.409 19.0617H170.664C170.664 18.1664 170.695 17.4683 170.753 16.9585C170.781 16.7035 170.816 16.5075 170.853 16.3635C170.871 16.2921 170.888 16.2394 170.903 16.2021C170.918 16.1636 170.927 16.1508 170.925 16.1537L169.888 15.4481ZM169.409 19.0617V35.4959H170.664V19.0617H169.409ZM169.409 35.4959C169.409 36.5238 169.429 37.3645 169.47 38.0136C169.51 38.641 169.572 39.1512 169.681 39.4767L170.871 39.0799C170.82 38.9272 170.763 38.5678 170.723 37.9344C170.684 37.3227 170.664 36.5113 170.664 35.4959H169.409ZM169.686 39.4927C169.816 39.8499 170.042 40.1498 170.373 40.3517C170.694 40.5481 171.067 40.6231 171.45 40.6231V39.3683C171.224 39.3683 171.097 39.3237 171.027 39.281C170.966 39.2438 170.91 39.185 170.866 39.0639L169.686 39.4927ZM171.45 40.6231C171.852 40.6231 172.242 40.5337 172.573 40.3054C172.908 40.074 173.123 39.7404 173.244 39.3586L172.047 38.9807C171.994 39.1496 171.923 39.229 171.859 39.273C171.791 39.32 171.67 39.3683 171.45 39.3683V40.6231ZM173.244 39.3586C173.355 39.005 173.423 38.4732 173.467 37.8145C173.512 37.1394 173.534 36.2781 173.534 35.235H172.279C172.279 36.2642 172.257 37.095 172.215 37.7314C172.172 38.3842 172.109 38.7835 172.047 38.9807L173.244 39.3586ZM173.534 35.235V19.0617H172.279V35.235H173.534ZM194.645 10.0185H195.272V9.39114H194.645V10.0185ZM194.645 38.1697H194.017V38.7971H194.645V38.1697ZM200.21 38.1697H200.837V37.5423H200.21V38.1697ZM200.21 45.2129V45.8403H200.837V45.2129H200.21ZM185.493 45.2129H184.865V45.8403H185.493V45.2129ZM185.493 10.0185V9.39114H184.865V10.0185H185.493ZM194.017 10.0185V38.1697H195.272V10.0185H194.017ZM194.645 38.7971H200.21V37.5423H194.645V38.7971ZM199.582 38.1697V45.2129H200.837V38.1697H199.582ZM200.21 44.5855H185.493V45.8403H200.21V44.5855ZM186.12 45.2129V10.0185H184.865V45.2129H186.12ZM185.493 10.6459H194.645V9.39114H185.493V10.6459Z" fill="white"/>
<defs>
<linearGradient id="paint0_linear_648_725" x1="21.5676" y1="50.2226" x2="21.5676" y2="1.07031" gradientUnits="userSpaceOnUse">
<stop stop-color="#1F1138"/>
<stop offset="0.04" stop-color="#24163C"/>
<stop offset="0.1" stop-color="#332447"/>
<stop offset="0.16" stop-color="#4B3C58"/>
<stop offset="0.22" stop-color="#6D5D72"/>
<stop offset="0.28" stop-color="#988791"/>
<stop offset="0.3" stop-color="#A5949B"/>
<stop offset="0.31" stop-color="#AFA0A7"/>
<stop offset="0.37" stop-color="#D2C9CD"/>
<stop offset="0.42" stop-color="#EAE7E8"/>
<stop offset="0.46" stop-color="#FAF9F9"/>
<stop offset="0.49" stop-color="white"/>
<stop offset="0.52" stop-color="#FAF9FA"/>
<stop offset="0.55" stop-color="#EDE9EB"/>
<stop offset="0.59" stop-color="#D6CED2"/>
<stop offset="0.63" stop-color="#B7AAAF"/>
<stop offset="0.66" stop-color="#A5949B"/>
<stop offset="0.71" stop-color="#887886"/>
<stop offset="0.8" stop-color="#5B4C64"/>
<stop offset="0.88" stop-color="#3A2C4C"/>
<stop offset="0.95" stop-color="#26183D"/>
<stop offset="1" stop-color="#1F1138"/>
</linearGradient>
</defs>
</svg>
